<?xml version="1.0" encoding="UTF-8"?>
<svg version="1.1" xmlns="http://www.w3.org/2000/svg" width="305" height="165">
<path d="M0 0 C1.60293085 0.04234573 3.20571762 0.09037064 4.80834961 0.14282227 C6.07140175 0.17823875 6.07140175 0.17823875 7.35997009 0.21437073 C10.06037467 0.29119796 12.76050607 0.37513964 15.46069336 0.45922852 C17.28685168 0.51243015 19.1130235 0.56517066 20.93920898 0.61743164 C25.42571145 0.74683873 29.91198137 0.8826285 34.39819336 1.02172852 C34.62458496 1.76076416 34.85097656 2.4997998 35.08422852 3.26123047 C46.49038713 40.89235486 46.49038713 40.89235486 59.39819336 78.02172852 C61.7437881 72.79618757 63.58225873 67.55285044 65.27319336 62.08422852 C68.54688116 51.65561918 71.89487937 41.25206658 75.26934814 30.85568237 C75.85196715 29.05981663 76.43380402 27.26369695 77.01483154 25.46731567 C77.84392363 22.90412992 78.67544367 20.34174362 79.50756836 17.77954102 C79.75425262 17.01561539 80.00093689 16.25168976 80.25509644 15.46461487 C80.72585061 14.01889231 81.20356496 12.57541271 81.68908691 11.13458252 C82.1792915 9.67396862 82.64984832 8.2066666 83.10437012 6.73455811 C83.82885742 4.53686523 83.82885742 4.53686523 85.39819336 1.02172852 C89.11765052 -0.38512327 93.04509285 -0.12247253 96.97241211 -0.11108398 C98.05906914 -0.11251907 98.05906914 -0.11251907 99.16767883 -0.11398315 C100.69316698 -0.11466181 102.21865807 -0.11282948 103.74414062 -0.10864258 C106.08787437 -0.10326648 108.4314185 -0.10861007 110.77514648 -0.11499023 C112.25756878 -0.11432985 113.73999097 -0.11304953 115.22241211 -0.11108398 C115.92653732 -0.11310822 116.63066254 -0.11513245 117.35612488 -0.11721802 C122.28322559 -0.09323925 122.28322559 -0.09323925 123.39819336 1.02172852 C123.49404334 2.56525982 123.52007406 4.1131796 123.51844788 5.65968323 C123.52050987 7.16367172 123.52050987 7.16367172 123.52261353 8.69804382 C123.51901825 9.80718643 123.51542297 10.91632904 123.51171875 12.05908203 C123.51186478 13.21990295 123.5120108 14.38072388 123.51216125 15.57672119 C123.51146153 19.43471104 123.50366634 23.2926533 123.49584961 27.15063477 C123.49398564 29.8172158 123.49251248 32.48379416 123.49156189 35.15037537 C123.48844884 41.46501731 123.4802358 47.77964203 123.4702124 54.09427637 C123.45905046 61.28158485 123.45354061 68.46889413 123.44851696 75.65620911 C123.43805316 90.44472441 123.42045422 105.23322616 123.39819336 120.02172852 C120.0540812 120.7215045 116.98959531 121.14975176 113.57006836 121.15454102 C112.68834961 121.15583008 111.80663086 121.15711914 110.89819336 121.15844727 C109.99069336 121.15458008 109.08319336 121.15071289 108.14819336 121.14672852 C107.22522461 121.1505957 106.30225586 121.15446289 105.35131836 121.15844727 C104.47475586 121.1571582 103.59819336 121.15586914 102.69506836 121.15454102 C101.89423828 121.15341309 101.0934082 121.15228516 100.26831055 121.15112305 C98.39819336 121.02172852 98.39819336 121.02172852 97.39819336 120.02172852 C97.27335182 117.6802001 97.21220045 115.36665266 97.19287109 113.0234375 C97.1829715 112.29177368 97.1730719 111.56010986 97.16287231 110.80627441 C97.13116953 108.37682379 97.10646543 105.94735358 97.08178711 103.51782227 C97.06122514 101.83772765 97.04022888 100.15763829 97.01881409 98.47755432 C96.9635151 94.04705048 96.91414049 89.61649936 96.8659668 85.18591309 C96.81580876 80.66825126 96.76009302 76.15065844 96.70483398 71.63305664 C96.59715676 62.76267282 96.49573318 53.89222919 96.39819336 45.02172852 C95.44009878 47.57657676 94.48201049 50.13142736 93.52392578 52.6862793 C93.25460991 53.40443314 92.98529404 54.12258698 92.70781708 54.86250305 C91.93790938 56.91556579 91.16804286 58.96864396 90.39819336 61.02172852 C90.01947586 62.03169891 89.64075836 63.04166931 89.25056458 64.08224487 C88.40017111 66.35235349 87.55480421 68.62427734 86.71069336 70.89672852 C86.4290332 71.64696289 86.14737305 72.39719727 85.85717773 73.17016602 C84.13039316 77.82809763 82.63593218 82.51189518 81.23535156 87.27709961 C79.58164255 92.69879593 77.69419103 98.0425574 75.83569336 103.39672852 C75.43672852 104.55817383 75.03776367 105.71961914 74.62670898 106.91625977 C74.24063477 108.03129883 73.85456055 109.14633789 73.45678711 110.29516602 C73.1093042 111.2998291 72.76182129 112.30449219 72.40380859 113.33959961 C70.65862539 117.99426887 70.65862539 117.99426887 69.39819336 120.02172852 C62.89677621 121.52205555 55.91630393 121.38598422 49.39819336 120.02172852 C46.84010817 113.31889771 44.4825783 106.55531741 42.14819336 99.77172852 C41.34377366 97.44090691 40.53908353 95.11017862 39.73413086 92.77954102 C39.14003418 91.05912598 39.14003418 91.05912598 38.53393555 89.30395508 C36.95741026 84.74789189 35.36760539 80.19655772 33.77319336 75.64672852 C33.35976685 74.46506104 33.35976685 74.46506104 32.93798828 73.25952148 C31.43747108 68.97396341 29.92770051 64.69182658 28.40991211 60.41235352 C27.92095459 59.02862549 27.92095459 59.02862549 27.42211914 57.61694336 C26.7941886 55.84030496 26.16376355 54.0645457 25.53051758 52.28979492 C25.25095215 51.49750488 24.97138672 50.70521484 24.68334961 49.88891602 C24.43464111 49.18879395 24.18593262 48.48867188 23.9296875 47.76733398 C23.39819336 46.02172852 23.39819336 46.02172852 23.39819336 44.02172852 C22.73819336 44.02172852 22.07819336 44.02172852 21.39819336 44.02172852 C21.39819336 57.88172852 21.39819336 71.74172852 21.39819336 86.02172852 C20.73819336 86.02172852 20.07819336 86.02172852 19.39819336 86.02172852 C14.21942139 73.24007855 9.3494016 60.35862743 4.60913086 47.40844727 C4.23817543 46.39532722 4.23817543 46.39532722 3.85972595 45.36174011 C2.6020322 41.92614649 1.34599936 38.48996038 0.09277344 35.05273438 C-0.37440789 33.77416172 -0.84161073 32.49559692 -1.30883789 31.21704102 C-1.72625244 30.07251465 -2.14366699 28.92798828 -2.57373047 27.7487793 C-3.51604462 25.10746173 -3.51604462 25.10746173 -4.60180664 23.02172852 C-4.69782734 21.36636788 -4.73255218 19.70721416 -4.73461914 18.04907227 C-4.7359082 17.06745117 -4.73719727 16.08583008 -4.73852539 15.07446289 C-4.7346582 14.04643555 -4.73079102 13.0184082 -4.72680664 11.95922852 C-4.73067383 10.92733398 -4.73454102 9.89543945 -4.73852539 8.83227539 C-4.73723633 7.85194336 -4.73594727 6.87161133 -4.73461914 5.86157227 C-4.73292725 4.5060022 -4.73292725 4.5060022 -4.73120117 3.12304688 C-4.50665039 -0.5235731 -3.80580714 0.02295918 0 0 Z " fill="#027F8C" transform="translate(180.601806640625,4.978271484375)"/>
<path d="M0 0 C1.18142578 -0.020625 2.36285156 -0.04125 3.58007812 -0.0625 C17.90922198 -0.12600867 31.64378327 4.61588721 42.2734375 14.6171875 C54.91734318 28.03128032 61.83967862 45.08592704 62.1875 63.5 C61.51096049 83.2098511 55.98662321 101.45225618 41.22265625 115.25390625 C27.66103901 126.48565084 11.36696872 131.59533629 -6.1875 130.25 C-21.31162453 128.32670093 -33.5903208 122.16175224 -44.1875 111.25 C-45.02861328 110.43982422 -45.02861328 110.43982422 -45.88671875 109.61328125 C-56.91976585 98.11690408 -60.73884394 81.96921298 -60.68847656 66.59277344 C-60.68750754 64.51614991 -60.72918167 62.44327753 -60.7734375 60.3671875 C-60.91863951 44.01976968 -54.71759756 28.33979987 -43.44140625 16.37890625 C-30.49525296 4.1507372 -17.38439816 0.0746512 0 0 Z M-21.1875 36.25 C-29.0917397 46.78898627 -30.44826165 60.99390818 -28.71875 73.69140625 C-26.94004085 83.50606926 -24.13310106 91.80899482 -15.75 97.75 C-8.71104619 101.91687232 -1.77678274 103.31080486 6.26171875 101.78515625 C13.62330321 99.87993761 19.42198245 97.02701773 23.5703125 90.47265625 C30.36479138 77.45811096 32.2244562 63.42771628 28.125 49.1875 C24.62058476 39.39467414 19.99927323 32.77103655 10.484375 28.109375 C-1.09357272 24.38547369 -12.85413175 27.72723702 -21.1875 36.25 Z " fill="#027F8C" transform="translate(60.1875,-0.25)"/>
<path d="M0 0 C1.16781006 0.00523682 2.33562012 0.01047363 3.53881836 0.01586914 C4.79887695 0.0190918 6.05893555 0.02231445 7.35717773 0.02563477 C8.6976732 0.03399136 10.03816799 0.04245632 11.37866211 0.05102539 C12.72306153 0.05603879 14.06746271 0.06060197 15.41186523 0.06469727 C18.71334151 0.07653051 22.01473014 0.09301568 25.31616211 0.11352539 C31.906187 16.60689325 38.11030549 33.23598533 44.28637695 49.88745117 C48.30000646 60.7066572 52.33929493 71.51495458 56.44116211 82.30102539 C56.88177979 83.46093994 57.32239746 84.62085449 57.77636719 85.81591797 C59.59400358 90.59745112 61.41662392 95.3769748 63.24975586 100.15258789 C63.79280288 101.57703722 64.33577939 103.00151343 64.87866211 104.42602539 C65.5302832 106.12178711 65.5302832 106.12178711 66.19506836 107.85180664 C67.46126202 111.53568018 68.37138792 115.33442863 69.31616211 119.11352539 C60.07616211 119.11352539 50.83616211 119.11352539 41.31616211 119.11352539 C33.31616211 99.91352539 33.31616211 99.91352539 33.31616211 94.11352539 C13.02116211 93.61852539 13.02116211 93.61852539 -7.68383789 93.11352539 C-5.35050456 86.11352539 -3.01717122 79.11352539 -0.68383789 72.11352539 C7.23616211 71.78352539 15.15616211 71.45352539 23.31616211 71.11352539 C19.64662407 58.32574132 15.59525686 45.70968164 11.31616211 33.11352539 C7.71119356 40.61895172 4.79861547 48.16690094 2.31616211 56.11352539 C1.32616211 56.11352539 0.33616211 56.11352539 -0.68383789 56.11352539 C-0.69801758 55.26532227 -0.71219727 54.41711914 -0.72680664 53.54321289 C-1.16257627 42.82563558 -3.89250962 33.85433588 -8.55883789 24.17602539 C-11.41722918 16.3948491 -6.76280407 8.29084521 -3.68383789 1.11352539 C-2.68383789 0.11352539 -2.68383789 0.11352539 0 0 Z " fill="#027F8C" transform="translate(132.683837890625,5.886474609375)"/>
<path d="M0 0 C4.95 0 9.9 0 15 0 C15.66 1.98 16.32 3.96 17 6 C17.33 4.02 17.66 2.04 18 0 C24.6 0 31.2 0 38 0 C38 7.59 38 15.18 38 23 C36.35 22.67 34.7 22.34 33 22 C33 15.73 33 9.46 33 3 C32.01 3 31.02 3 30 3 C30 9.6 30 16.2 30 23 C28.35 23 26.7 23 25 23 C24.97310551 20.04160645 24.95321259 17.08345573 24.9375 14.125 C24.92912109 13.28324219 24.92074219 12.44148437 24.91210938 11.57421875 C24.90727539 10.36572266 24.90727539 10.36572266 24.90234375 9.1328125 C24.89448853 8.01737061 24.89448853 8.01737061 24.88647461 6.87939453 C25 5 25 5 26 3 C24.68 3 23.36 3 22 3 C22 9.6 22 16.2 22 23 C20.02 23 18.04 23 16 23 C15.34 20.36 14.68 17.72 14 15 C13.67 17.64 13.34 20.28 13 23 C12.01 23 11.02 23 10 23 C9.67 16.4 9.34 9.8 9 3 C7.35 3 5.7 3 4 3 C4 4.98 4 6.96 4 9 C5.65 9 7.3 9 9 9 C9 10.32 9 11.64 9 13 C7.35 13 5.7 13 4 13 C4.33 14.98 4.66 16.96 5 19 C6.32 19 7.64 19 9 19 C9 20.32 9 21.64 9 23 C6.03 23 3.06 23 0 23 C0 15.41 0 7.82 0 0 Z " fill="#67CEC9" transform="translate(148,136)"/>
<path d="M0 0 C1.65 0 3.3 0 5 0 C5.99 4.62 6.98 9.24 8 14 C8.33 9.38 8.66 4.76 9 0 C10.98 0 12.96 0 15 0 C15.33 1.65 15.66 3.3 16 5 C16.33 3.35 16.66 1.7 17 0 C18.65 0 20.3 0 22 0 C22 7.59 22 15.18 22 23 C20.02 23 18.04 23 16 23 C15.67 22.01 15.34 21.02 15 20 C14.34 20.99 13.68 21.98 13 23 C11.0546875 23.29296875 11.0546875 23.29296875 8.875 23.1875 C7.59625 23.125625 6.3175 23.06375 5 23 C4.67 21.35 4.34 19.7 4 18 C3.01 18 2.02 18 1 18 C0.01 20.475 0.01 20.475 -1 23 C-2.32 23 -3.64 23 -5 23 C-4.44636539 14.97229811 -2.34312056 7.66145933 0 0 Z M1 8 C1 9.98 1 11.96 1 14 C1.66 14 2.32 14 3 14 C2.67 12.02 2.34 10.04 2 8 C1.67 8 1.34 8 1 8 Z M13 10 C14 12 14 12 14 12 Z " fill="#6BCBC7" transform="translate(47,136)"/>
<path d="M0 0 C4.6096875 -0.1546875 4.6096875 -0.1546875 9.3125 -0.3125 C10.75943237 -0.38078003 10.75943237 -0.38078003 12.2355957 -0.45043945 C14.57061839 -0.48860549 16.70395594 -0.43819745 19 0 C21.66679607 2.69676007 21.93807382 4.45598188 22.36328125 8.19140625 C22.34652344 9.30386719 22.32976562 10.41632813 22.3125 11.5625 C22.30863281 12.67753906 22.30476563 13.79257813 22.30078125 14.94140625 C22.01267209 17.87113967 21.61769043 19.57060625 20 22 C17.703463 23.1482685 16.41686833 23.11561175 13.8671875 23.09765625 C13.14128418 23.09515869 12.41538086 23.09266113 11.66748047 23.09008789 C10.74596191 23.08098389 9.82444336 23.07187988 8.875 23.0625 C5.94625 23.041875 3.0175 23.02125 0 23 C0 15.41 0 7.82 0 0 Z M5 3 C3.70366379 4.06645115 3.70366379 4.06645115 3.9375 6.5625 C3.958125 7.366875 3.97875 8.17125 4 9 C5.65 9 7.3 9 9 9 C9 10.32 9 11.64 9 13 C7.35 13 5.7 13 4 13 C4 15.31 4 17.62 4 20 C5.98 20 7.96 20 10 20 C10 14.39 10 8.78 10 3 C8.35 3 6.7 3 5 3 Z M14 3 C14 8.61 14 14.22 14 20 C14.99 19.67 15.98 19.34 17 19 C17 14.05 17 9.1 17 4 C16.01 3.67 15.02 3.34 14 3 Z " fill="#6AC9C5" transform="translate(226,136)"/>
<path d="M0 0 C2.31 0 4.62 0 7 0 C7.33 2.64 7.66 5.28 8 8 C8.33 8 8.66 8 9 8 C9.66 5.36 10.32 2.72 11 0 C12.98 0 14.96 0 17 0 C17 7.59 17 15.18 17 23 C15.68 23 14.36 23 13 23 C12.67 22.01 12.34 21.02 12 20 C11.67 20.99 11.34 21.98 11 23 C9.68 23 8.36 23 7 23 C6.34 20.36 5.68 17.72 5 15 C4.67 17.64 4.34 20.28 4 23 C2.68 23 1.36 23 0 23 C0 15.41 0 7.82 0 0 Z " fill="#6CCAC7" transform="translate(208,136)"/>
<path d="M0 0 C2.31 0 4.62 0 7 0 C7.33 3.63 7.66 7.26 8 11 C8.66 11 9.32 11 10 11 C10.33 7.37 10.66 3.74 11 0 C12.98 0 14.96 0 17 0 C17 7.59 17 15.18 17 23 C15.68 23 14.36 23 13 23 C12.67 21.02 12.34 19.04 12 17 C11.67 18.98 11.34 20.96 11 23 C9.35 22.67 7.7 22.34 6 22 C5.67 20.35 5.34 18.7 5 17 C4.67 18.98 4.34 20.96 4 23 C2.68 23 1.36 23 0 23 C0 15.41 0 7.82 0 0 Z " fill="#6EC8C4" transform="translate(86,136)"/>
<path d="M0 0 C4.66666667 0 9.33333333 0 14 0 C15.155 -0.04125 16.31 -0.0825 17.5 -0.125 C21 0 21 0 23 2 C23.4456098 5.14659932 23.32411997 8.32542493 23.3125 11.5 C23.32861328 12.38042969 23.34472656 13.26085937 23.36132812 14.16796875 C23.36229492 15.43060547 23.36229492 15.43060547 23.36328125 16.71875 C23.36626221 17.49154297 23.36924316 18.26433594 23.37231445 19.06054688 C23.24945068 19.70056641 23.12658691 20.34058594 23 21 C19.54754176 23.30163882 18.05261287 23.34490322 14 23 C12 21 12 21 11.77294922 19.12060547 C11.78865967 18.00516357 11.78865967 18.00516357 11.8046875 16.8671875 C11.81435547 15.65869141 11.81435547 15.65869141 11.82421875 14.42578125 C11.84097656 13.58402344 11.85773438 12.74226562 11.875 11.875 C11.88402344 11.02550781 11.89304687 10.17601562 11.90234375 9.30078125 C11.92594353 7.20040116 11.96181517 5.10016556 12 3 C10.68 3 9.36 3 8 3 C8 9.6 8 16.2 8 23 C6.68 23 5.36 23 4 23 C4 16.4 4 9.8 4 3 C2.68 3 1.36 3 0 3 C0 2.01 0 1.02 0 0 Z M16 3 C16 8.61 16 14.22 16 20 C16.99 19.67 17.98 19.34 19 19 C19 14.05 19 9.1 19 4 C18.01 3.67 17.02 3.34 16 3 Z " fill="#6DC5C3" transform="translate(264,136)"/>
<path d="M0 0 C2.57022105 3.4269614 3.79549058 5.64247348 5.1875 9.5625 C5.53167969 10.51253906 5.87585938 11.46257813 6.23046875 12.44140625 C7 15 7 15 7 18 C7.99 18 8.98 18 10 18 C9.95875 18.680625 9.9175 19.36125 9.875 20.0625 C10.10646314 25.50188377 12.02799891 30.11000806 14.125 35.0625 C15.69450701 38.87000774 16.43934203 41.82625076 16 46 C13.98846349 42.98269523 13.03927837 40.47588528 11.90625 37.046875 C11.51566406 35.86996094 11.12507813 34.69304687 10.72265625 33.48046875 C10.31917969 32.24941406 9.91570312 31.01835938 9.5 29.75 C9.09652344 28.53441406 8.69304687 27.31882812 8.27734375 26.06640625 C6.40689476 20.40567449 4.56591509 14.75303587 3 9 C2.34 9 1.68 9 1 9 C1 22.86 1 36.72 1 51 C0.34 51 -0.32 51 -1 51 C-4.1790693 43.1537864 -7.30994081 35.29066989 -10.3125 27.375 C-10.56660645 26.71306641 -10.82071289 26.05113281 -11.08251953 25.36914062 C-12.37411431 21.93776579 -13.41029028 18.62151143 -14 15 C-10.92893485 16.53553257 -10.32812424 18.92116654 -9 22 C-9 23.32 -9 24.64 -9 26 C-8.05125 25.979375 -7.1025 25.95875 -6.125 25.9375 C-3 26 -3 26 -1 27 C-0.67 18.09 -0.34 9.18 0 0 Z " fill="#0F7984" transform="translate(201,40)"/>
<path d="M0 0 C1.32 0 2.64 0 4 0 C4.33 5.61 4.66 11.22 5 17 C5.94656869 11.78019362 5.94656869 11.78019362 6.88452148 6.55883789 C7.88888889 1.11111111 7.88888889 1.11111111 9 0 C10.66617115 -0.04063832 12.33388095 -0.042721 14 0 C14.67332993 3.08191704 15.33748859 6.1657408 16 9.25 C16.19078125 10.12269531 16.3815625 10.99539062 16.578125 11.89453125 C16.84882813 13.16103516 16.84882813 13.16103516 17.125 14.453125 C17.29257812 15.22817383 17.46015625 16.00322266 17.6328125 16.80175781 C18 19 18 19 18 23 C16.68 23 15.36 23 14 23 C13.34 21.35 12.68 19.7 12 18 C11.34 18 10.68 18 10 18 C9.01 20.475 9.01 20.475 8 23 C5.36 23 2.72 23 0 23 C0 15.41 0 7.82 0 0 Z M11 8 C10.67 9.98 10.34 11.96 10 14 C10.66 14 11.32 14 12 14 C12 12.02 12 10.04 12 8 C11.67 8 11.34 8 11 8 Z " fill="#71C9C6" transform="translate(249,136)"/>
<path d="M0 0 C3 2 3 2 3.38818359 3.83178711 C3.39156738 4.5563208 3.39495117 5.28085449 3.3984375 6.02734375 C3.40230469 6.81947266 3.40617187 7.61160156 3.41015625 8.42773438 C3.39855469 9.25595703 3.38695313 10.08417969 3.375 10.9375 C3.38660156 11.76185547 3.39820312 12.58621094 3.41015625 13.43554688 C3.40628906 14.22896484 3.40242188 15.02238281 3.3984375 15.83984375 C3.39505371 16.56550537 3.39166992 17.29116699 3.38818359 18.03881836 C2.88786819 20.56651246 2.04046275 21.4626282 0 23 C-3.09501208 23.25265405 -5.20129973 23.39935013 -8 22 C-9.23156105 18.30531685 -9.22260483 14.84902154 -9.25 11 C-9.270625 10.27554688 -9.29125 9.55109375 -9.3125 8.8046875 C-9.35147109 3.52410541 -9.35147109 3.52410541 -7.671875 1.01953125 C-5.07034132 -0.56691803 -2.97242583 -0.30962769 0 0 Z M-4 3 C-4 8.61 -4 14.22 -4 20 C-3.34 20 -2.68 20 -2 20 C-2 14.39 -2 8.78 -2 3 C-2.66 3 -3.32 3 -4 3 Z " fill="#64D0CB" transform="translate(113,136)"/>
<path d="M0 0 C2.97 0 5.94 0 9 0 C11.09668987 4.19337975 10.93655305 5.42304204 10.2265625 9.83984375 C9.86030637 13.33190655 10.47177452 16.53718853 11 20 C11 20.99 11 21.98 11 23 C9.35 22.67 7.7 22.34 6 22 C6 19.36 6 16.72 6 14 C5.34 14 4.68 14 4 14 C4 16.97 4 19.94 4 23 C2.68 23 1.36 23 0 23 C0 15.41 0 7.82 0 0 Z M4 3 C4 5.31 4 7.62 4 10 C4.99 9.34 5.98 8.68 7 8 C6.67 6.35 6.34 4.7 6 3 C5.34 3 4.68 3 4 3 Z " fill="#66C8C5" transform="translate(18,136)"/>
<path d="M0 0 C2.97 0 5.94 0 9 0 C11 2 11 2 11.22705078 4.15478516 C11.21134033 5.45875244 11.21134033 5.45875244 11.1953125 6.7890625 C11.18564453 8.20058594 11.18564453 8.20058594 11.17578125 9.640625 C11.15902344 10.62546875 11.14226562 11.6103125 11.125 12.625 C11.11597656 13.61757812 11.10695313 14.61015625 11.09765625 15.6328125 C11.07404116 18.08878134 11.04110799 20.54427168 11 23 C9.68 23 8.36 23 7 23 C7 20.03 7 17.06 7 14 C6.01 14 5.02 14 4 14 C4 16.97 4 19.94 4 23 C2.68 23 1.36 23 0 23 C0 15.41 0 7.82 0 0 Z M5 3 C3.64381501 4.12534105 3.64381501 4.12534105 3.9375 7.0625 C3.958125 8.031875 3.97875 9.00125 4 10 C4.99 9.67 5.98 9.34 7 9 C7 7.35 7 5.7 7 4 C6.34 3.67 5.68 3.34 5 3 Z " fill="#6CC5C4" transform="translate(288,136)"/>
<path d="M0 0 C3.5 0.1875 3.5 0.1875 5.5 1.1875 C6.125 3.75 6.125 3.75 6.5 6.1875 C4.85 6.5175 3.2 6.8475 1.5 7.1875 C0.84 6.1975 0.18 5.2075 -0.5 4.1875 C-0.5 9.1375 -0.5 14.0875 -0.5 19.1875 C0.16 19.5175 0.82 19.8475 1.5 20.1875 C1.5 18.2075 1.5 16.2275 1.5 14.1875 C0.84 14.1875 0.18 14.1875 -0.5 14.1875 C-0.17 12.8675 0.16 11.5475 0.5 10.1875 C2.15 10.1875 3.8 10.1875 5.5 10.1875 C6.56671952 13.38765856 6.44845472 15.07294294 6.0625 18.375 C5.96066406 19.27605469 5.85882813 20.17710937 5.75390625 21.10546875 C5.67011719 21.79253906 5.58632813 22.47960937 5.5 23.1875 C4.241875 23.22875 2.98375 23.27 1.6875 23.3125 C0.97980469 23.33570313 0.27210937 23.35890625 -0.45703125 23.3828125 C-2.5 23.1875 -2.5 23.1875 -5.5 21.1875 C-5.87231445 19.24804688 -5.87231445 19.24804688 -5.86328125 16.90625 C-5.86263672 16.06449219 -5.86199219 15.22273437 -5.86132812 14.35546875 C-5.84521484 13.47503906 -5.82910156 12.59460938 -5.8125 11.6875 C-5.81572266 10.80707031 -5.81894531 9.92664063 -5.82226562 9.01953125 C-5.74889112 0.30797631 -5.74889112 0.30797631 0 0 Z " fill="#66CAC7" transform="translate(35.5,135.8125)"/>
<path d="M0 0 C3 0.4375 3 0.4375 4.6640625 1.46875 C6.7560372 4.55166009 6.43289707 7.78216495 6.375 11.375 C6.38660156 12.09107422 6.39820313 12.80714844 6.41015625 13.54492188 C6.39235656 16.74589979 6.19523617 19.07557096 4.6640625 21.9140625 C3 23.4375 3 23.4375 0 23.875 C-3 23.4375 -3 23.4375 -4.6640625 22.40625 C-6.7560372 19.32333991 -6.43289707 16.09283505 -6.375 12.5 C-6.38660156 11.78392578 -6.39820313 11.06785156 -6.41015625 10.33007812 C-6.39235656 7.12910021 -6.19523617 4.79942904 -4.6640625 1.9609375 C-3 0.4375 -3 0.4375 0 0 Z M-1 3.4375 C-2.39156484 4.60027032 -2.39156484 4.60027032 -2.09765625 7.81640625 C-2.09098369 9.21097077 -2.07902532 10.60551743 -2.0625 12 C-2.05798828 12.71091797 -2.05347656 13.42183594 -2.04882812 14.15429688 C-2.03700864 15.91540013 -2.01907263 17.67646036 -2 19.4375 C-0.68 19.4375 0.64 19.4375 2 19.4375 C2 14.4875 2 9.5375 2 4.4375 C1.01 4.1075 0.02 3.7775 -1 3.4375 Z " fill="#74CAC7" transform="translate(11,135.5625)"/>
<path d="M0 0 C0.66 0.33 1.32 0.66 2 1 C2 2.98 2 4.96 2 7 C0.68 6.67 -0.64 6.34 -2 6 C-2 5.01 -2 4.02 -2 3 C-2.99 3.495 -2.99 3.495 -4 4 C-4 8.95 -4 13.9 -4 19 C-3.34 19.33 -2.68 19.66 -2 20 C-2 18.02 -2 16.04 -2 14 C-2.66 14 -3.32 14 -4 14 C-3.67 12.68 -3.34 11.36 -3 10 C-1.35 10 0.3 10 2 10 C2 14.29 2 18.58 2 23 C-5.53392062 23.37052069 -5.53392062 23.37052069 -7.6027832 21.72583008 C-9.99673354 18.76884338 -9.42963351 15.13616329 -9.375 11.5 C-9.38660156 10.72785156 -9.39820313 9.95570313 -9.41015625 9.16015625 C-9.38069339 3.49346561 -9.38069339 3.49346561 -7.66650391 1.27148438 C-5.15315101 -0.64611625 -3.0644075 -0.26080064 0 0 Z " fill="#6FC2C0" transform="translate(144,136)"/>
<path d="M0 0 C1.98 0 3.96 0 6 0 C7.32 7.59 8.64 15.18 10 23 C8.68 23 7.36 23 6 23 C5.34 21.35 4.68 19.7 4 18 C3.01 18 2.02 18 1 18 C0.67 19.65 0.34 21.3 0 23 C-1.32 23 -2.64 23 -4 23 C-3.32545897 15.1753241 -1.73123042 7.65443386 0 0 Z M2 8 C1.67 9.98 1.34 11.96 1 14 C1.99 14 2.98 14 4 14 C3.67 12.02 3.34 10.04 3 8 C2.67 8 2.34 8 2 8 Z " fill="#75CBC6" transform="translate(125,136)"/>
<path d="M0 0 C3 0.25 3 0.25 5 2.25 C5.125 4.875 5.125 4.875 5 7.25 C3.68 7.25 2.36 7.25 1 7.25 C1 5.93 1 4.61 1 3.25 C0.34 3.25 -0.32 3.25 -1 3.25 C-0.04161684 6.68420632 0.76019902 8.97493417 3.125 11.6875 C5.58675162 15.05189389 5.46154468 17.17302203 5 21.25 C3 23.25 3 23.25 0 23.5 C-3 23.25 -3 23.25 -5 21.25 C-5.125 18.625 -5.125 18.625 -5 16.25 C-3.68 16.25 -2.36 16.25 -1 16.25 C-1 17.57 -1 18.89 -1 20.25 C-0.34 20.25 0.32 20.25 1 20.25 C0.67140879 16.52596629 -0.01185962 15.23669408 -2.5625 12.375 C-5 9.25 -5 9.25 -5.4375 5.5 C-4.86809682 1.27014779 -4.29626699 0.35802225 0 0 Z " fill="#74C7C3" transform="translate(80,135.75)"/>
<path d="M0 0 C2.97 0 5.94 0 9 0 C9 0.99 9 1.98 9 3 C7.35 3 5.7 3 4 3 C4 4.98 4 6.96 4 9 C5.65 9 7.3 9 9 9 C9 10.32 9 11.64 9 13 C7.35 13 5.7 13 4 13 C4.33 14.98 4.66 16.96 5 19 C6.32 19 7.64 19 9 19 C9 20.32 9 21.64 9 23 C6.03 23 3.06 23 0 23 C0 15.41 0 7.82 0 0 Z " fill="#6FC8C5" transform="translate(193,136)"/>
<path d="M0 0 C1.23556641 0.01740234 1.23556641 0.01740234 2.49609375 0.03515625 C3.32238281 0.04417969 4.14867187 0.05320313 5 0.0625 C5.63808594 0.07410156 6.27617187 0.08570313 6.93359375 0.09765625 C9.1935797 3.69227956 9.14227462 6.663613 9.05859375 10.84765625 C9.04054687 12.018125 9.0225 13.18859375 9.00390625 14.39453125 C8.96910156 15.73257813 8.96910156 15.73257813 8.93359375 17.09765625 C7.61359375 17.09765625 6.29359375 17.09765625 4.93359375 17.09765625 C4.93359375 12.47765625 4.93359375 7.85765625 4.93359375 3.09765625 C3.61359375 2.76765625 2.29359375 2.43765625 0.93359375 2.09765625 C1.26359375 8.36765625 1.59359375 14.63765625 1.93359375 21.09765625 C0.61359375 21.09765625 -0.70640625 21.09765625 -2.06640625 21.09765625 C-2.05480469 20.40800781 -2.04320312 19.71835938 -2.03125 19.0078125 C-1.98583096 14.27774439 -2.03883293 9.67054765 -2.62890625 4.97265625 C-2.77328125 3.69390625 -2.91765625 2.41515625 -3.06640625 1.09765625 C-2.06640625 0.09765625 -2.06640625 0.09765625 0 0 Z " fill="#65CECB" transform="translate(239.06640625,136.90234375)"/>
<path d="M0 0 C0.33 0 0.66 0 1 0 C1 27.72 1 55.44 1 84 C7.6 84 14.2 84 21 84 C21 84.66 21 85.32 21 86 C17.68751813 86.02888146 14.37506833 86.04675799 11.0625 86.0625 C10.11697266 86.07087891 9.17144531 86.07925781 8.19726562 86.08789062 C6.84858398 86.09272461 6.84858398 86.09272461 5.47265625 86.09765625 C4.22367554 86.10551147 4.22367554 86.10551147 2.94946289 86.11352539 C1 86 1 86 0 85 C-0.12484154 82.65847159 -0.18599291 80.34492415 -0.20532227 78.00170898 C-0.21522186 77.27004517 -0.22512146 76.53838135 -0.23532104 75.7845459 C-0.26702383 73.35509528 -0.29172793 70.92562507 -0.31640625 68.49609375 C-0.33696822 66.81599913 -0.35796448 65.13590977 -0.37937927 63.45582581 C-0.43467826 59.02532197 -0.48405287 54.59477085 -0.53222656 50.16418457 C-0.5823846 45.64652275 -0.63810033 41.12892992 -0.69335938 36.61132812 C-0.8010366 27.7409443 -0.90246018 18.87050068 -1 10 C-1.99 10.495 -1.99 10.495 -3 11 C-2.44894091 7.0507432 -1.61064629 3.65079826 0 0 Z " fill="#0E5D69" transform="translate(278,40)"/>
<path d="M0 0 C0.66 0 1.32 0 2 0 C1.67 1.98 1.34 3.96 1 6 C0.34 6 -0.32 6 -1 6 C-1 7.32 -1 8.64 -1 10 C0.06959961 9.97905273 1.13919922 9.95810547 2.24121094 9.93652344 C6.21438173 9.86405374 10.18749425 9.81817537 14.16113281 9.78027344 C15.87998279 9.76017372 17.59876452 9.73288911 19.31738281 9.69824219 C21.78988489 9.64964966 24.2614821 9.62701565 26.734375 9.609375 C27.88459137 9.57840729 27.88459137 9.57840729 29.05804443 9.54681396 C32.54443963 9.54535192 34.57913917 9.68890497 37.42163086 11.79003906 C38.86922052 13.81688849 39.78208069 15.38918267 40.51953125 17.75 C40.8453418 18.78640625 40.8453418 18.78640625 41.17773438 19.84375 C41.38720703 20.5553125 41.59667969 21.266875 41.8125 22 C42.04130859 22.7115625 42.27011719 23.423125 42.50585938 24.15625 C43.63634605 27.86231029 44.15682051 30.3096048 43 34 C41.99263372 31.06497405 40.99539496 28.12660539 40 25.1875 C39.57074219 23.93743164 39.57074219 23.93743164 39.1328125 22.66210938 C38.86210937 21.85966797 38.59140625 21.05722656 38.3125 20.23046875 C38.06113281 19.49207764 37.80976563 18.75368652 37.55078125 17.99291992 C37 16 37 16 37 13 C16.705 12.505 16.705 12.505 -4 12 C-2.66666667 8 -1.33333333 4 0 0 Z " fill="#146B75" transform="translate(129,87)"/>
<path d="M0 0 C1.65 0 3.3 0 5 0 C5 7.59 5 15.18 5 23 C3.35 23 1.7 23 0 23 C0 15.41 0 7.82 0 0 Z " fill="#5EC2C3" transform="translate(300,136)"/>
<path d="M0 0 C1.32 0 2.64 0 4 0 C4 7.59 4 15.18 4 23 C2.68 23 1.36 23 0 23 C0 15.41 0 7.82 0 0 Z " fill="#6BCDC8" transform="translate(70,136)"/>
<path d="M0 0 C0.33 0 0.66 0 1 0 C1 6.6 1 13.2 1 20 C-0.65 20 -2.3 20 -4 20 C-4 14.06 -4 8.12 -4 2 C-3.01 2 -2.02 2 -1 2 C-0.67 1.34 -0.34 0.68 0 0 Z " fill="#6BC9C3" transform="translate(177,139)"/>
<path d="M0 0 C2.57022105 3.4269614 3.79549058 5.64247348 5.1875 9.5625 C5.53167969 10.51253906 5.87585938 11.46257813 6.23046875 12.44140625 C7 15 7 15 7 18 C7.99 18 8.98 18 10 18 C9.95875 18.680625 9.9175 19.36125 9.875 20.0625 C10.10646314 25.50188377 12.02799891 30.11000806 14.125 35.0625 C15.69450701 38.87000774 16.43934203 41.82625076 16 46 C13.98846349 42.98269523 13.03927837 40.47588528 11.90625 37.046875 C11.51566406 35.86996094 11.12507812 34.69304687 10.72265625 33.48046875 C10.31917969 32.24941406 9.91570312 31.01835938 9.5 29.75 C9.09652344 28.53441406 8.69304687 27.31882812 8.27734375 26.06640625 C6.40689476 20.40567449 4.56591509 14.75303587 3 9 C2.01 9.33 1.02 9.66 0 10 C0 6.7 0 3.4 0 0 Z " fill="#12727E" transform="translate(201,40)"/>
<path d="M0 0 C0.66 0.33 1.32 0.66 2 1 C2.08086376 3.93804996 2.1404283 6.87388075 2.1875 9.8125 C2.21263672 10.64587891 2.23777344 11.47925781 2.26367188 12.33789062 C2.27817383 13.54155273 2.27817383 13.54155273 2.29296875 14.76953125 C2.31653442 15.87711792 2.31653442 15.87711792 2.34057617 17.00708008 C1.90036321 19.58303595 1.07039006 20.44682981 -1 22 C-4.0625 22.3125 -4.0625 22.3125 -7 22 C-7.66 21.34 -8.32 20.68 -9 20 C-8.01 20 -7.02 20 -6 20 C-6 14.06 -6 8.12 -6 2 C-5.67 2 -5.34 2 -5 2 C-5 7.61 -5 13.22 -5 19 C-4.34 19 -3.68 19 -3 19 C-3 14.05 -3 9.1 -3 4 C-2.67 4 -2.34 4 -2 4 C-1.83165067 5.77067416 -1.66538091 7.54154612 -1.5 9.3125 C-1.4071875 10.29863281 -1.314375 11.28476563 -1.21875 12.30078125 C-1 15 -1 15 -1 18 C-0.34 18 0.32 18 1 18 C0.67 12.06 0.34 6.12 0 0 Z " fill="#78C4C2" transform="translate(114,137)"/>
<path d="M0 0 C0.66 0.33 1.32 0.66 2 1 C2 2.98 2 4.96 2 7 C0.68 6.67 -0.64 6.34 -2 6 C-2 5.01 -2 4.02 -2 3 C-2.99 3.495 -2.99 3.495 -4 4 C-4.47001033 7.27555608 -4.47001033 7.27555608 -4.625 11.0625 C-4.69976562 12.35285156 -4.77453125 13.64320313 -4.8515625 14.97265625 C-4.90054688 15.97167969 -4.94953125 16.97070312 -5 18 C-5.66 18 -6.32 18 -7 18 C-7.33 16.02 -7.66 14.04 -8 12 C-8.33 12 -8.66 12 -9 12 C-9.08131463 10.56344146 -9.13933559 9.1255517 -9.1875 7.6875 C-9.22230469 6.88699219 -9.25710937 6.08648437 -9.29296875 5.26171875 C-9 3 -9 3 -7.6796875 1.22265625 C-5.14641965 -0.62132709 -3.04243481 -0.25893062 0 0 Z " fill="#75C9C5" transform="translate(144,136)"/>
<path d="M0 0 C0.33 0 0.66 0 1 0 C1.95494281 6.57849492 1.8931507 12.41816638 1 19 C3.59686484 18.04478968 3.59686484 18.04478968 6 16 C6.54462351 13.24679275 6.78933956 11.0685919 6.8125 8.3125 C6.83763672 7.61060547 6.86277344 6.90871094 6.88867188 6.18554688 C6.94744448 4.45763219 6.9766097 2.7287557 7 1 C7.33 1 7.66 1 8 1 C8 5.62 8 10.24 8 15 C8.99 15 9.98 15 11 15 C10.625 16.9375 10.625 16.9375 10 19 C7.703463 20.1482685 6.41686833 20.11561175 3.8671875 20.09765625 C3.06152344 20.09443359 2.25585938 20.09121094 1.42578125 20.08789062 C0.58402344 20.07951172 -0.25773438 20.07113281 -1.125 20.0625 C-1.97449219 20.05798828 -2.82398438 20.05347656 -3.69921875 20.04882812 C-5.79950909 20.03702874 -7.8997633 20.01909306 -10 20 C-9.67 19.34 -9.34 18.68 -9 18 C-7.02 18 -5.04 18 -3 18 C-3.66 17.34 -4.32 16.68 -5 16 C-3.68 16 -2.36 16 -1 16 C-0.67 10.72 -0.34 5.44 0 0 Z " fill="#71C2C0" transform="translate(236,139)"/>
<path d="M0 0 C1.98 0 3.96 0 6 0 C6.25028811 1.58013217 6.47440946 3.16442306 6.6875 4.75 C6.81511719 5.63171875 6.94273438 6.5134375 7.07421875 7.421875 C6.98274319 10.59944725 5.99574438 11.60510674 4 14 C3.27954633 17.15118325 3.27954633 17.15118325 3 20 C2.67 20 2.34 20 2 20 C1.66254646 17.60468244 1.3299171 15.20885732 1 12.8125 C0.90460937 12.13896484 0.80921875 11.46542969 0.7109375 10.77148438 C0.21675387 7.15335423 -0.11346131 3.65203599 0 0 Z " fill="#6AD1CE" transform="translate(56,136)"/>
<path d="M0 0 C1.65 0 3.3 0 5 0 C5 0.66 5 1.32 5 2 C5.66 2 6.32 2 7 2 C7.33 3.65 7.66 5.3 8 7 C9.32 7 10.64 7 12 7 C11.649375 7.721875 11.29875 8.44375 10.9375 9.1875 C9.86046276 12.41861171 10.13036768 13.75864318 11 17 C11.33944795 18.99897128 11.67421616 20.99875639 12 23 C9.85917754 20.85917754 9.40737135 19.69232024 8.4921875 16.8671875 C8.22792969 16.06152344 7.96367187 15.25585938 7.69140625 14.42578125 C7.42199219 13.58402344 7.15257812 12.74226563 6.875 11.875 C6.59785156 11.02550781 6.32070312 10.17601562 6.03515625 9.30078125 C5.3513532 7.20221327 4.67321723 5.10198304 4 3 C2.68 5.31 1.36 7.62 0 10 C-0.33 10 -0.66 10 -1 10 C-0.67 6.7 -0.34 3.4 0 0 Z " fill="#0E6D79" transform="translate(140,36)"/>
<path d="M0 0 C0.33 0 0.66 0 1 0 C1.33 2.97 1.66 5.94 2 9 C2.99 8.67 3.98 8.34 5 8 C5.02689216 9.47906892 5.04634621 10.95827483 5.0625 12.4375 C5.07410156 13.26121094 5.08570313 14.08492187 5.09765625 14.93359375 C5 17 5 17 4 18 C1.32941149 18.14115161 -1.32432238 18.04247107 -4 18 C-4.33 16.35 -4.66 14.7 -5 13 C-4.34 13 -3.68 13 -3 13 C-3 10.03 -3 7.06 -3 4 C-2.67 4 -2.34 4 -2 4 C-1.67 5.65 -1.34 7.3 -1 9 C-0.67 6.03 -0.34 3.06 0 0 Z " fill="#6FC4BE" transform="translate(56,141)"/>
<path d="M0 0 C2.51083114 1.25541557 2.87125446 2.50063488 4 5 C5.32 4.67 6.64 4.34 8 4 C6.97137215 9.44567686 5.75385216 14.11817117 3 19 C2.34 18.67 1.68 18.34 1 18 C0.67 12.06 0.34 6.12 0 0 Z " fill="#0A7A88" transform="translate(131,44)"/>
<path d="M0 0 C0.66 0 1.32 0 2 0 C2 6.93 2 13.86 2 21 C0.68 21 -0.64 21 -2 21 C-3.2164634 16.25579275 -2.70711576 12.82452981 -1.546875 8.19140625 C-0.87115721 5.48370854 -0.42415383 2.7569999 0 0 Z " fill="#61CECA" transform="translate(167,137)"/>
<path d="M0 0 C2.97 0 5.94 0 9 0 C9 0.99 9 1.98 9 3 C7.35 3 5.7 3 4 3 C4 2.34 4 1.68 4 1 C3.01 1 2.02 1 1 1 C1 7.6 1 14.2 1 21 C2.32 20.34 3.64 19.68 5 19 C6.32 19 7.64 19 9 19 C9 20.32 9 21.64 9 23 C6.03 23 3.06 23 0 23 C0 15.41 0 7.82 0 0 Z " fill="#70BFBB" transform="translate(148,136)"/>
<path d="M0 0 C4.95 0 9.9 0 15 0 C11.69628883 2.20247411 10.7849683 2.09462421 7 2 C6.01 2.33 5.02 2.66 4 3 C4 9.6 4 16.2 4 23 C2.02 23 0.04 23 -2 23 C-2.33 21.68 -2.66 20.36 -3 19 C-2.34 18.67 -1.68 18.34 -1 18 C-1 19.32 -1 20.64 -1 22 C0.32 22 1.64 22 3 22 C3 15.07 3 8.14 3 1 C2.34 1 1.68 1 1 1 C1 2.98 1 4.96 1 7 C0.67 7 0.34 7 0 7 C0 4.69 0 2.38 0 0 Z " fill="#6EC1BC" transform="translate(166,136)"/>
<path d="M0 0 C2.31 0 4.62 0 7 0 C7 2.64 7 5.28 7 8 C6.67 8 6.34 8 6 8 C5.67 5.69 5.34 3.38 5 1 C3.68 1 2.36 1 1 1 C1.33 6.94 1.66 12.88 2 19 C2.33 16.36 2.66 13.72 3 11 C3.33 11 3.66 11 4 11 C4 14.96 4 18.92 4 23 C2.68 23 1.36 23 0 23 C0 15.41 0 7.82 0 0 Z " fill="#74C5C0" transform="translate(208,136)"/>
<path d="M0 0 C2.97 0 5.94 0 9 0 C11.26609984 4.53219967 10.92735976 6.17772925 10 11 C8 7 8 7 6 3 C5.34 3 4.68 3 4 3 C4.33 4.98 4.66 6.96 5 9 C5.66 8.67 6.32 8.34 7 8 C6.67 8.99 6.34 9.98 6 11 C5.01 11 4.02 11 3 11 C3 7.7 3 4.4 3 1 C2.01 0.67 1.02 0.34 0 0 Z " fill="#77D0C9" transform="translate(18,136)"/>
<path d="M0 0 C3.36025535 4.18253378 4.92858846 8.56673543 6.75 13.5625 C7.07871094 14.42552734 7.40742188 15.28855469 7.74609375 16.17773438 C8.05160156 17.00724609 8.35710937 17.83675781 8.671875 18.69140625 C8.9512793 19.44623291 9.23068359 20.20105957 9.51855469 20.97875977 C10 23 10 23 9 26 C6.96564469 22.27034861 6 20.33094958 6 16 C4.68 15.34 3.36 14.68 2 14 C2 12.02 2 10.04 2 8 C1.34 7.67 0.68 7.34 0 7 C0 4.69 0 2.38 0 0 Z " fill="#0B6A75" transform="translate(169,38)"/>
<path d="M0 0 C-0.99 0.33 -1.98 0.66 -3 1 C-3 1.99 -3 2.98 -3 4 C-3.97850195 5.02104551 -4.97980427 6.0206121 -6 7 C-6.33 7.99 -6.66 8.98 -7 10 C-7.66 10 -8.32 10 -9 10 C-9 11.98 -9 13.96 -9 16 C-9.66 15.67 -10.32 15.34 -11 15 C-10.71617054 13.24871182 -10.42260471 11.49899997 -10.125 9.75 C-9.96257812 8.77546875 -9.80015625 7.8009375 -9.6328125 6.796875 C-9.04545262 4.20088938 -8.39631715 2.25479362 -7 0 C-4.3333581 -1.33332095 -2.83319697 -0.67102033 0 0 Z " fill="#0C7784" transform="translate(273,6)"/>
<path d="M0 0 C2.97 0 5.94 0 9 0 C9 0.99 9 1.98 9 3 C6.36 2.34 3.72 1.68 1 1 C1 7.93 1 14.86 1 22 C3.31 22 5.62 22 8 22 C8 21.34 8 20.68 8 20 C7.01 19.67 6.02 19.34 5 19 C6.32 19 7.64 19 9 19 C9 20.32 9 21.64 9 23 C6.03 23 3.06 23 0 23 C0 15.41 0 7.82 0 0 Z " fill="#7DC2C1" transform="translate(193,136)"/>
<path d="M0 0 C0 1.65 0 3.3 0 5 C-0.66 5 -1.32 5 -2 5 C-2 7.97 -2 10.94 -2 14 C-2.99 14 -3.98 14 -5 14 C-5.33 14.66 -5.66 15.32 -6 16 C-6.02715383 14.25008666 -6.04646551 12.50005055 -6.0625 10.75 C-6.07410156 9.77546875 -6.08570313 8.8009375 -6.09765625 7.796875 C-6.0111252 5.31862574 -5.84745178 3.32383005 -5 1 C-3 0 -3 0 0 0 Z " fill="#71D4CF" transform="translate(51,137)"/>
<path d="M0 0 C2.475 0.495 2.475 0.495 5 1 C5.33 1.99 5.66 2.98 6 4 C5.01 4.495 5.01 4.495 4 5 C3.30662208 8.0399648 3.30662208 8.0399648 2.875 11.5625 C2.70742187 12.76003906 2.53984375 13.95757812 2.3671875 15.19140625 C2.24601562 16.11824219 2.12484375 17.04507813 2 18 C1.34 17.67 0.68 17.34 0 17 C0 11.39 0 5.78 0 0 Z " fill="#61D1CD" transform="translate(87,140)"/>
<path d="M0 0 C2.83374881 3.20336822 3.5205537 5.78087253 4 10 C0.50007304 10.79706768 -2.7142231 11.11863027 -6.30078125 11.09765625 C-7.27724609 11.09443359 -8.25371094 11.09121094 -9.25976562 11.08789062 C-10.26716797 11.07951172 -11.27457031 11.07113281 -12.3125 11.0625 C-13.33923828 11.05798828 -14.36597656 11.05347656 -15.42382812 11.04882812 C-17.94927882 11.03708184 -20.47460905 11.02065565 -23 11 C-23 10.34 -23 9.68 -23 9 C-15.08 8.67 -7.16 8.34 1 8 C0.67 5.36 0.34 2.72 0 0 Z " fill="#0F6B73" transform="translate(155,69)"/>
<path d="M0 0 C-0.144375 0.60328125 -0.28875 1.2065625 -0.4375 1.828125 C-0.623125 2.62734375 -0.80875 3.4265625 -1 4.25 C-1.185625 5.03890625 -1.37125 5.8278125 -1.5625 6.640625 C-2.12154828 9.25556002 -2.12154828 9.25556002 -2 13 C-2.66 13 -3.32 13 -4 13 C-4 13.66 -4 14.32 -4 15 C-4.99 14.67 -5.98 14.34 -7 14 C-6.71926927 11.85270859 -6.42511501 9.70716807 -6.125 7.5625 C-5.96257812 6.36753906 -5.80015625 5.17257813 -5.6328125 3.94140625 C-5.42398438 2.97074219 -5.21515625 2.00007812 -5 1 C-3 0 -3 0 0 0 Z " fill="#5BCEC7" transform="translate(224,137)"/>
<path d="M0 0 C0.33 0 0.66 0 1 0 C1 10.23 1 20.46 1 31 C0.67 31 0.34 31 0 31 C-0.33 24.07 -0.66 17.14 -1 10 C-1.99 10.495 -1.99 10.495 -3 11 C-2.44894091 7.0507432 -1.61064629 3.65079826 0 0 Z " fill="#157282" transform="translate(278,40)"/>
<path d="M0 0 C0.33 0 0.66 0 1 0 C1.00410889 0.58378418 1.00821777 1.16756836 1.01245117 1.76904297 C0.78237415 16.16559679 0.78237415 16.16559679 6.13671875 29.16015625 C6.42160156 29.76730469 6.70648438 30.37445313 7 31 C6.14453125 33.24609375 6.14453125 33.24609375 5 35 C-1.04842821 23.55118947 -0.55251734 12.62629633 0 0 Z " fill="#106976" transform="translate(176,6)"/>
<path d="M0 0 C1.65 0 3.3 0 5 0 C6.06671952 3.20015856 5.94845472 4.88544294 5.5625 8.1875 C5.46066406 9.08855469 5.35882813 9.98960937 5.25390625 10.91796875 C5.12822266 11.94857422 5.12822266 11.94857422 5 13 C2.69 13 0.38 13 -2 13 C1.75 11 1.75 11 4 11 C3.34 8.69 2.68 6.38 2 4 C1.01 4 0.02 4 -1 4 C-0.67 2.68 -0.34 1.36 0 0 Z " fill="#7BC8C5" transform="translate(36,146)"/>
<path d="M0 0 C0.33 0 0.66 0 1 0 C1 5.61 1 11.22 1 17 C1.66 17 2.32 17 3 17 C3.33 16.34 3.66 15.68 4 15 C4 16.32 4 17.64 4 19 C2.35 18.67 0.7 18.34 -1 18 C-1.02684312 15.18743719 -1.04676188 12.37512759 -1.0625 9.5625 C-1.07087891 8.76005859 -1.07925781 7.95761719 -1.08789062 7.13085938 C-1.0965143 5.08704779 -1.0522815 3.04316098 -1 1 C-0.67 0.67 -0.34 0.34 0 0 Z " fill="#85CDCA" transform="translate(182,140)"/>
<path d="M0 0 C0.66 0.33 1.32 0.66 2 1 C0.6875 3.5 0.6875 3.5 -1 6 C-1.99 6 -2.98 6 -4 6 C-4.309375 6.78375 -4.61875 7.5675 -4.9375 8.375 C-6 11 -6 11 -7 13 C-7.66 13 -8.32 13 -9 13 C-9.33 14.65 -9.66 16.3 -10 18 C-10.66 18 -11.32 18 -12 18 C-10.71914054 13.43693818 -9.02983259 10.38134347 -6 6.75 C-5.29875 5.89921875 -4.5975 5.0484375 -3.875 4.171875 C-2 2 -2 2 0 0 Z " fill="#0D6C7B" transform="translate(19,14)"/>
<path d="M0 0 C0.33 0.66 0.66 1.32 1 2 C0.01 2.99 -0.98 3.98 -2 5 C-2 4.34 -2 3.68 -2 3 C-3.65 3 -5.3 3 -7 3 C-7.33 7.29 -7.66 11.58 -8 16 C-8.33 16 -8.66 16 -9 16 C-9.0810206 13.89646505 -9.13919907 11.79204048 -9.1875 9.6875 C-9.22230469 8.51574219 -9.25710937 7.34398437 -9.29296875 6.13671875 C-9 3 -9 3 -7.6875 1.09375 C-5.1606671 -0.54401207 -2.93079906 -0.1953866 0 0 Z " fill="#71CCC9" transform="translate(113,136)"/>
<path d="M0 0 C1.90389849 2.85584773 2.69462177 4.9311762 3.625 8.1875 C3.88539063 9.08855469 4.14578125 9.98960938 4.4140625 10.91796875 C4.60742188 11.60503906 4.80078125 12.29210937 5 13 C4.01 13 3.02 13 2 13 C1.67 11.68 1.34 10.36 1 9 C-0.98 9.33 -2.96 9.66 -5 10 C-4.67 8.68 -4.34 7.36 -4 6 C-2.68 5.67 -1.36 5.34 0 5 C0 3.35 0 1.7 0 0 Z " fill="#0B787E" transform="translate(197,112)"/>
<path d="M0 0 C0.33 0 0.66 0 1 0 C1 5.61 1 11.22 1 17 C1.66 17.33 2.32 17.66 3 18 C1.35 18 -0.3 18 -2 18 C-1.8590651 15.56212615 -1.71245458 13.12482147 -1.5625 10.6875 C-1.52318359 9.99720703 -1.48386719 9.30691406 -1.44335938 8.59570312 C-1.25072585 5.52838465 -0.97677283 2.93031848 0 0 Z " fill="#63C3C1" transform="translate(279,140)"/>
<path d="M0 0 C0 1.98 0 3.96 0 6 C-1.32 5.34 -2.64 4.68 -4 4 C-4 3.34 -4 2.68 -4 2 C-5.32 2 -6.64 2 -8 2 C-8.33 2.99 -8.66 3.98 -9 5 C-10.32 3.68 -11.64 2.36 -13 1 C-11.44616792 -0.55383208 -9.77276704 -0.38172542 -7.625 -0.625 C-6.83351562 -0.72039062 -6.04203125 -0.81578125 -5.2265625 -0.9140625 C-3 -1 -3 -1 0 0 Z " fill="#66D8D4" transform="translate(185,137)"/>
<path d="M0 0 C0.99 0 1.98 0 3 0 C3.33 3.63 3.66 7.26 4 11 C2.02 11.99 2.02 11.99 0 13 C0 8.71 0 4.42 0 0 Z " fill="#62D0CE" transform="translate(289,137)"/>
<path d="M0 0 C1.39456452 0.00667256 2.78911118 0.01863093 4.18359375 0.03515625 C4.89451172 0.03966797 5.60542969 0.04417969 6.33789062 0.04882812 C8.09899388 0.06064761 9.86005411 0.07858362 11.62109375 0.09765625 C11.62109375 0.42765625 11.62109375 0.75765625 11.62109375 1.09765625 C7.33109375 1.09765625 3.04109375 1.09765625 -1.37890625 1.09765625 C-1.37890625 1.75765625 -1.37890625 2.41765625 -1.37890625 3.09765625 C-2.36890625 3.59265625 -2.36890625 3.59265625 -3.37890625 4.09765625 C-4.50993151 6.43803811 -4.50993151 6.43803811 -5.50390625 9.16015625 C-5.85710937 10.07925781 -6.2103125 10.99835937 -6.57421875 11.9453125 C-6.83976562 12.65558594 -7.1053125 13.36585937 -7.37890625 14.09765625 C-8.60662455 10.41450134 -7.98157285 9.46810207 -6.50390625 5.97265625 C-6.13523437 5.08320313 -5.7665625 4.19375 -5.38671875 3.27734375 C-3.92382247 0.11340527 -3.92382247 0.11340527 0 0 Z " fill="#107782" transform="translate(133.37890625,5.90234375)"/>
<path d="M0 0 C0 3.3 0 6.6 0 10 C-1.32 10 -2.64 10 -4 10 C-4 7.03 -4 4.06 -4 1 C-2 0 -2 0 0 0 Z " fill="#73C0BE" transform="translate(299,149)"/>
<path d="M0 0 C2.32283781 3.7165405 2.9571626 7.67342261 3 12 C2.0625 15 2.0625 15 1 17 C-0.8466683 13.85409472 -1.24774283 11.56849948 -1.1875 7.9375 C-1.18105469 7.08027344 -1.17460937 6.22304687 -1.16796875 5.33984375 C-1 3 -1 3 0 0 Z " fill="#77CDC7" transform="translate(163,138)"/>
<path d="M0 0 C0.33 0 0.66 0 1 0 C1.33848652 1.89492006 1.67056911 3.79098466 2 5.6875 C2.185625 6.74324219 2.37125 7.79898438 2.5625 8.88671875 C2.95068074 11.64904062 3.08259976 14.21742043 3 17 C2.01 17.33 1.02 17.66 0 18 C0 12.06 0 6.12 0 0 Z " fill="#5FD1CA" transform="translate(71,140)"/>
<path d="M0 0 C0.33 0 0.66 0 1 0 C1.33 5.28 1.66 10.56 2 16 C0.68 16 -0.64 16 -2 16 C-2.09765625 9.84765625 -2.09765625 9.84765625 -2 8 C-1.67 7.67 -1.34 7.34 -1 7 C-0.63239269 4.67182036 -0.29758419 2.3381615 0 0 Z " fill="#6BCCC8" transform="translate(239,142)"/>
<path d="M0 0 C6.75 -0.125 6.75 -0.125 9 1 C9.625 3.5625 9.625 3.5625 10 6 C8.35 6.33 6.7 6.66 5 7 C5 5.35 5 3.7 5 2 C3.35 1.67 1.7 1.34 0 1 C0 0.67 0 0.34 0 0 Z " fill="#72C8C2" transform="translate(32,136)"/>
<path d="M0 0 C0.33 0 0.66 0 1 0 C1 5.28 1 10.56 1 16 C-1.38285549 12.42571676 -1.95891388 9.22365271 -2 5 C-1.0625 2 -1.0625 2 0 0 Z " fill="#048191" transform="translate(200,72)"/>
<path d="M0 0 C3.90156658 3.03455179 6.79575992 5.46906205 9 10 C9 10.66 9 11.32 9 12 C7.35 12.33 5.7 12.66 4 13 C3.67 11.68 3.34 10.36 3 9 C3.66 9 4.32 9 5 9 C4.54625 8.2575 4.0925 7.515 3.625 6.75 C2.31359204 4.53069422 1.11719197 2.32032178 0 0 Z " fill="#0D717A" transform="translate(104,18)"/>
<path d="M0 0 C3.63 0 7.26 0 11 0 C9.01476443 1.98523557 7.4983794 2.85464378 5 4.0625 C4.29875 4.40410156 3.5975 4.74570312 2.875 5.09765625 C2.25625 5.39542969 1.6375 5.69320312 1 6 C0.01 6.495 0.01 6.495 -1 7 C-1.125 2.25 -1.125 2.25 0 0 Z " fill="#0E747A" transform="translate(42,27)"/>
<path d="M0 0 C-6 3 -6 3 -9.1875 3.4375 C-12.97676234 3.99657149 -16.34780856 4.88198221 -20 6 C-20 5.34 -20 4.68 -20 4 C-6.3667426 -0.59225513 -6.3667426 -0.59225513 0 0 Z " fill="#085B65" transform="translate(54,0)"/>
<path d="M0 0 C2.6072902 2.6072902 3.48026787 5.5359257 4.6875 8.9375 C4.92533203 9.57107422 5.16316406 10.20464844 5.40820312 10.85742188 C7.12148952 15.63553144 7.12148952 15.63553144 6 19 C2.0941748 13.04826636 -0.54143311 7.21910808 0 0 Z " fill="#0C6A74" transform="translate(184,77)"/>
<path d="M0 0 C0.99 0.495 0.99 0.495 2 1 C2.4140625 3.94140625 2.4140625 3.94140625 2.625 7.5625 C2.69976562 8.76003906 2.77453125 9.95757812 2.8515625 11.19140625 C2.90054688 12.11824219 2.94953125 13.04507813 3 14 C3.66 13.67 4.32 13.34 5 13 C4.34 14.98 3.68 16.96 3 19 C2.34 18.67 1.68 18.34 1 18 C0.67 12.06 0.34 6.12 0 0 Z " fill="#196C76" transform="translate(131,44)"/>
<path d="M0 0 C3.82352106 1.5577308 6.29205593 3.91595258 9 7 C9 7.99 9 8.98 9 10 C8.46890625 9.59007812 7.9378125 9.18015625 7.390625 8.7578125 C6.68421875 8.21898437 5.9778125 7.68015625 5.25 7.125 C4.55390625 6.59132813 3.8578125 6.05765625 3.140625 5.5078125 C1.15277397 4.10761086 -0.79843386 3.02144735 -3 2 C-2.01 1.34 -1.02 0.68 0 0 Z " fill="#0E6E74" transform="translate(72,26)"/>
<path d="M0 0 C0.99 0 1.98 0 3 0 C3 3.3 3 6.6 3 10 C2.01 10 1.02 10 0 10 C0 6.7 0 3.4 0 0 Z " fill="#78C7C2" transform="translate(158,149)"/>
<path d="M0 0 C0.99 0.33 1.98 0.66 3 1 C2.649375 1.721875 2.29875 2.44375 1.9375 3.1875 C0.86046276 6.41861171 1.13036768 7.75864318 2 11 C2.33944795 12.99897128 2.67421616 14.99875639 3 17 C-0.51489071 13.48510929 -1.13356733 10.09623566 -1.1875 5.25 C-1.15358932 1.15358932 -1.15358932 1.15358932 0 0 Z " fill="#0C7586" transform="translate(149,42)"/>
<path d="M0 0 C1.37830469 3.82862413 0.64545242 7.05556855 0 11 C0 11.99 0 12.98 0 14 C-0.99 14 -1.98 14 -3 14 C-3.33 14.66 -3.66 15.32 -4 16 C-3.71515154 14.26969709 -3.42180062 12.54079286 -3.125 10.8125 C-2.96257812 9.84957031 -2.80015625 8.88664062 -2.6328125 7.89453125 C-2.01960483 5.08967396 -1.14333657 2.62775253 0 0 Z " fill="#127281" transform="translate(253,45)"/>
<path d="M0 0 C1.65 0 3.3 0 5 0 C5.33 2.64 5.66 5.28 6 8 C5.34 8 4.68 8 4 8 C3.67 9.32 3.34 10.64 3 12 C2 11 2 11 1.9375 8.4375 C1.958125 7.633125 1.97875 6.82875 2 6 C2.66 6 3.32 6 4 6 C4 4.35 4 2.7 4 1 C2.68 1.33 1.36 1.66 0 2 C0 1.34 0 0.68 0 0 Z " fill="#77CAC5" transform="translate(47,136)"/>
<path d="M0 0 C1.32 0 2.64 0 4 0 C4 2.64 4 5.28 4 8 C2.35 7.67 0.7 7.34 -1 7 C-1 6.34 -1 5.68 -1 5 C-0.34 5 0.32 5 1 5 C0.67 3.35 0.34 1.7 0 0 Z " fill="#61CFCB" transform="translate(126,137)"/>
<path d="M0 0 C-0.99 0 -1.98 0 -3 0 C-3.66 2.97 -4.32 5.94 -5 9 C-5.66 9 -6.32 9 -7 9 C-7 6.03 -7 3.06 -7 0 C-3.86650268 -1.04449911 -3.01031744 -0.93423645 0 0 Z " fill="#6BD0C7" transform="translate(13,138)"/>
<path d="M0 0 C2.66605569 3.55474092 3.41364439 4.70213988 4.1875 8.75 C4.34605469 9.54921875 4.50460938 10.3484375 4.66796875 11.171875 C4.83232422 12.07679687 4.83232422 12.07679687 5 13 C4.34 11.68 3.68 10.36 3 9 C2.01 9.33 1.02 9.66 0 10 C0 6.7 0 3.4 0 0 Z " fill="#036A76" transform="translate(201,40)"/>
<path d="M0 0 C1.76462683 3.08809695 2 4.23312136 2 8 C0.68 8 -0.64 8 -2 8 C-2.33 6.02 -2.66 4.04 -3 2 C-2.01 2 -1.02 2 0 2 C0 1.34 0 0.68 0 0 Z " fill="#73C6C2" transform="translate(265,151)"/>
<path d="M0 0 C0.66 0 1.32 0 2 0 C2 2.97 2 5.94 2 9 C1.01 9 0.02 9 -1 9 C-1.09765625 2.84765625 -1.09765625 2.84765625 -1 1 C-0.67 0.67 -0.34 0.34 0 0 Z " fill="#60C8C2" transform="translate(143,147)"/>
<path d="M0 0 C0.99 0.33 1.98 0.66 3 1 C3.33 2.98 3.66 4.96 4 7 C3.34 7 2.68 7 2 7 C2 7.66 2 8.32 2 9 C1.01 9.33 0.02 9.66 -1 10 C-0.67 6.7 -0.34 3.4 0 0 Z " fill="#60D2CB" transform="translate(258,137)"/>
<path d="M0 0 C0.66 0.33 1.32 0.66 2 1 C1.67 3.64 1.34 6.28 1 9 C0.01 8.67 -0.98 8.34 -2 8 C-2 5.69 -2 3.38 -2 1 C-1.34 0.67 -0.68 0.34 0 0 Z " fill="#63D4CC" transform="translate(229,137)"/>
<path d="M0 0 C1.73694677 2.60542016 2.69100448 4.58342775 3.6875 7.5 C3.95949219 8.2734375 4.23148438 9.046875 4.51171875 9.84375 C5 12 5 12 4 15 C3.13153169 13.25705322 2.28069373 11.50531337 1.4375 9.75 C0.72400391 8.28820312 0.72400391 8.28820312 -0.00390625 6.796875 C-1.03510273 3.90143703 -1.11346788 2.80033839 0 0 Z " fill="#0D6D78" transform="translate(222,32)"/>
<path d="M0 0 C0 1.32 0 2.64 0 4 C-2.31 4 -4.62 4 -7 4 C-7.33 3.34 -7.66 2.68 -8 2 C-4.91190305 0.23537317 -3.76687864 0 0 0 Z " fill="#7CC3C3" transform="translate(157,155)"/>
<path d="M0 0 C3.5 0.25 3.5 0.25 5.5 2.25 C4.18 2.25 2.86 2.25 1.5 2.25 C1.17 3.57 0.84 4.89 0.5 6.25 C0.5 5.26 0.5 4.27 0.5 3.25 C-2.47 2.755 -2.47 2.755 -5.5 2.25 C-3.5 0.25 -3.5 0.25 0 0 Z " fill="#6FD3CF" transform="translate(269.5,136.75)"/>
<path d="M0 0 C6.70212766 1.93617021 6.70212766 1.93617021 9 5 C9 5.66 9 6.32 9 7 C4.56909529 5.79157144 2.01887244 4.48331435 -1 1 C-0.67 0.67 -0.34 0.34 0 0 Z " fill="#0F6D78" transform="translate(26,117)"/>
<path d="M0 0 C1.98 0.495 1.98 0.495 4 1 C3.49396008 3.16874252 3.00016187 4.99967627 2 7 C1.01 7 0.02 7 -1 7 C-0.67 4.69 -0.34 2.38 0 0 Z " fill="#0A788E" transform="translate(131,80)"/>
<path d="M0 0 C0.66 0.66 1.32 1.32 2 2 C1.7578125 4.1640625 1.7578125 4.1640625 1.125 6.625 C0.92132813 7.44226563 0.71765625 8.25953125 0.5078125 9.1015625 C0.34023437 9.72804688 0.17265625 10.35453125 0 11 C-2 9 -2 9 -2.01171875 7.08984375 C-1.11111111 1.11111111 -1.11111111 1.11111111 0 0 Z " fill="#0B7887" transform="translate(155,58)"/>
<path d="M0 0 C0.33 0 0.66 0 1 0 C1.99 5.28 2.98 10.56 4 16 C3.01 15.67 2.02 15.34 1 15 C-0.32286246 10.03926578 -0.08893197 5.08888488 0 0 Z " fill="#146D7A" transform="translate(31,70)"/>
<path d="M0 0 C1.50560497 2.85410334 2.63216796 5.68124642 3.625 8.75 C3.88539063 9.54921875 4.14578125 10.3484375 4.4140625 11.171875 C4.60742188 11.77515625 4.80078125 12.3784375 5 13 C4.34 13 3.68 13 3 13 C2.67 11.35 2.34 9.7 2 8 C1.34 8 0.68 8 0 8 C0 5.36 0 2.72 0 0 Z " fill="#0F6F79" transform="translate(235,72)"/>
<path d="M0 0 C1.07257764 3.30200687 0.92468991 5.67371657 0.25 9.0625 C0.01023438 10.34833984 0.01023438 10.34833984 -0.234375 11.66015625 C-1.06374096 14.19480017 -1.97882865 15.3064361 -4 17 C-3.21450457 11.18733381 -1.59317541 5.63122376 0 0 Z " fill="#167179" transform="translate(245,69)"/>
<path d="M0 0 C3.07106515 1.53553257 3.67187576 3.92116654 5 7 C5 8.32 5 9.64 5 11 C5.66 11.33 6.32 11.66 7 12 C6.01 12.33 5.02 12.66 4 13 C3.32942113 11.2097939 2.6636531 9.41778511 2 7.625 C1.62875 6.62726562 1.2575 5.62953125 0.875 4.6015625 C0 2 0 2 0 0 Z " fill="#0F6570" transform="translate(187,55)"/>
<path d="M0 0 C0.33 0 0.66 0 1 0 C1.35233161 5.37305699 1.35233161 5.37305699 1 8 C-1 10 -1 10 -3 11 C-2.44894091 7.0507432 -1.61064629 3.65079826 0 0 Z " fill="#016571" transform="translate(278,40)"/>
<path d="M0 0 C0.99 0.495 0.99 0.495 2 1 C2 2.32 2 3.64 2 5 C2.66 5 3.32 5 4 5 C4.33 4.34 4.66 3.68 5 3 C5 4.32 5 5.64 5 7 C3.35 6.67 1.7 6.34 0 6 C0 4.02 0 2.04 0 0 Z " fill="#7AC3C1" transform="translate(181,152)"/>
<path d="M0 0 C0.33 0 0.66 0 1 0 C1 2.97 1 5.94 1 9 C0.01 9.33 -0.98 9.66 -2 10 C-1.85950482 8.52031676 -1.71245174 7.04125484 -1.5625 5.5625 C-1.48128906 4.73878906 -1.40007813 3.91507813 -1.31640625 3.06640625 C-1 1 -1 1 0 0 Z " fill="#73C2C6" transform="translate(60,149)"/>
<path d="M0 0 C0.99 0.33 1.98 0.66 3 1 C3 4.3 3 7.6 3 11 C2.34 11 1.68 11 1 11 C0.30710631 7.27569643 -0.11144596 3.78916254 0 0 Z " fill="#59C9BE" transform="translate(98,138)"/>
<path d="M0 0 C1.65 0 3.3 0 5 0 C4.67 2.97 4.34 5.94 4 9 C3.67 9 3.34 9 3 9 C2.690625 7.88625 2.38125 6.7725 2.0625 5.625 C1.17673517 2.2054845 1.17673517 2.2054845 0 0 Z " fill="#65C5C3" transform="translate(158,136)"/>
<path d="M0 0 C1.32 1.32 2.64 2.64 4 4 C3 6 3 6 1.0625 6.75 C0.381875 6.8325 -0.29875 6.915 -1 7 C-1.66 6.34 -2.32 5.68 -3 5 C-2.34 5 -1.68 5 -1 5 C-0.67 3.35 -0.34 1.7 0 0 Z " fill="#0B7781" transform="translate(36,88)"/>
<path d="M0 0 C3.90469752 2.60313168 4.06786357 4.49467394 5 9 C4.546875 11.2265625 4.546875 11.2265625 4 13 C3.32694982 11.39850114 2.66177773 9.79368971 2 8.1875 C1.62875 7.29417969 1.2575 6.40085937 0.875 5.48046875 C0 3 0 3 0 0 Z " fill="#0A636D" transform="translate(182,41)"/>
<path d="M0 0 C-0.33 1.32 -0.66 2.64 -1 4 C-2.65 4 -4.3 4 -6 4 C-5.67 3.01 -5.34 2.02 -5 1 C-3 0 -3 0 0 0 Z " fill="#61C3BB" transform="translate(298,146)"/>
<path d="M0 0 C0.99 0 1.98 0 3 0 C3 1.65 3 3.3 3 5 C1.68 5 0.36 5 -1 5 C-0.67 3.35 -0.34 1.7 0 0 Z " fill="#5FD3CF" transform="translate(48,137)"/>
<path d="M0 0 C2.97 0.495 2.97 0.495 6 1 C4.68 1.33 3.36 1.66 2 2 C2 3.65 2 5.3 2 7 C1.34 6.67 0.68 6.34 0 6 C0 4.02 0 2.04 0 0 Z " fill="#6DD5CE" transform="translate(194,137)"/>
<path d="M0 0 C1.98 0.495 1.98 0.495 4 1 C2.69593116 3.01920337 1.36176581 5.01924973 0 7 C-0.33 7 -0.66 7 -1 7 C-0.67 4.69 -0.34 2.38 0 0 Z " fill="#157A84" transform="translate(108,101)"/>
<path d="M0 0 C0.95465783 2.16967689 1.14401212 3.56328793 0.3984375 5.82421875 C-0.35870385 7.5684743 -1.17609198 9.28627131 -2 11 C-3.00206597 8.29442187 -3.05573121 7.16719364 -2.125 4.375 C-1.43096229 2.90980927 -0.72504789 1.45009578 0 0 Z " fill="#156F79" transform="translate(262,86)"/>
</svg>
