<svg height="146.897745" viewBox="0 0 50.220872 10.742193" width="680.745646" xmlns="http://www.w3.org/2000/svg" xmlns:xlink="http://www.w3.org/1999/xlink"><symbol id="a" overflow="visible"/><symbol id="b" overflow="visible"/><symbol id="c" overflow="visible"/><g transform="translate(-581.80503 -606.47065)"><use fill="#211e1e" height="100%" transform="matrix(.35277778 0 0 .35277778 -176.42029 75.314642)" width="100%" x="497.20969" xlink:href="#a" y="867.85352"/><path d="m582.84545 612.72143c0-.37482-.23289-.63527-.90813-.63527v-.24254h3.45888c1.45796 0 2.42397.46578 2.42397 1.28434 0 .72071-.69453 1.05144-1.54478 1.11758v.0152c.95636.0978 1.90307.42719 1.90307 1.29122 0 .64492-.58016 1.45521-2.45429 1.45521h-3.78685v-.24253c.67524 0 .90813-.20258.90813-.57878zm1.54616 1.40422h.31832c.9853 0 1.4497-.31557 1.4497-.93017 0-.6463-.43546-1.00597-1.12172-1.00597-.38585 0-.6463.15021-.6463.51125zm0 1.98162c0 .35967.19292.55535.69453.55535.95636 0 1.4304-.36793 1.4304-.99081 0-.60771-.29903-1.20165-1.44005-1.20165h-.68488zm0 0"/><path d="m588.63321 617.00713v-.24253c.57051 0 .75516-.1695.75516-.46716v-2.68993c0-.29904-.18465-.46715-.75516-.46715v-.24392h2.80155v.24392c-.56913 0-.75379.16811-.75379.46715v2.6169c0 .28663.13781.43132.52228.43132.34175 0 .71245.0207.99081-.17226.35554-.24391.58705-.67248.69866-1.05419h.33073l-.25493 1.57785zm0 0"/><path d="m599.73744 612.89644h1.90307l2.50941 2.43224h-.007.0152v-1.72117c0-.31557-.15434-.46715-.76619-.46715v-.24392h1.94579v.24392c-.5774 0-.66559.15158-.66559.46715v3.39962h-.42306l-3.23977-3.16673h-.0303v2.45704c0 .29766.14332.46716.85852.46716v.24253h-2.10013v-.24253c.56913 0 .7276-.1695.7276-.46716v-2.68993c0-.29904-.12678-.46715-.7276-.46715zm0 0"/><path d="m611.16689 617.00713v-.24253c.56913 0 .75379-.1695.75379-.46716v-2.68993c0-.29904-.18466-.46715-.75379-.46715v-.24392h2.78639c1.07625 0 1.87551.3831 1.87551 1.09417.0317.73449-.76894 1.17822-1.80661 1.16719h-.87092v1.13964c0 .32246.19982.46027.81718.46716v.24253zm1.98437-2.17592h.28526c.7469 0 1.06936-.26734 1.06936-.80478 0-.46026-.29215-.8282-.84612-.8282-.27699 0-.5085.11024-.5085.40928zm0 0"/><path d="m621.4691 617.00713v-.24253c.56913 0 .75379-.1695.75379-.46716v-2.68993c0-.29904-.18466-.46715-.75379-.46715v-.24392h2.80018v.24392c-.56913 0-.75379.16811-.75379.46715v2.68993c0 .29766.18466.46716.75379.46716v.24253zm0 0"/><path d="m624.84254 611.84362h2.39641l3.15984 3.05098h-.01.0193v-2.17317c0-.39549-.20947-.65043-.96463-.65043v-.22738h2.45015v.22738c-.69591 0-.83784.25494-.83784.65043v4.2857h-.53331l-4.07761-3.98666h-.04v3.16535c0 .3762.18052.58291 1.08176.58291v.2384h-2.64446v-.2384c.71658 0 .9164-.20671.9164-.58291v-3.46439c0-.3762-.16124-.65043-.9164-.65043zm0 0"/><path d="m620.31569 616.36772-1.96922-3.54294h-.44373l-1.70877 3.18465c-.26871.49609-.40238.67111-.9784.75517v.24253h2.1456v-.24253h-.36105c-.30041 0-.38585-.15572-.38585-.32246 0-.14332.0482-.24667.0868-.32522l.21635-.41479h1.69085l.34589.62976c.0455.0854.0634.11851.0634.18742 0 .12677-.0923.24529-.49334.24529h-.25493v.24253h2.77812v-.24253c-.39963-.0248-.5705-.10887-.73173-.39688m-2.56729-2.22277.66559 1.20165h-1.305zm0 0"/><path d="m610.5826 615.74761-.0909-.001c-.34589.51539-1.12172.92329-1.88929.92329-1.04593 0-1.56959-.63665-1.56959-1.71704 0-1.03215.41617-1.82176 1.36978-1.82176.89296 0 1.32291.41065 1.72254 1.25952h.3073v-1.45658h-.3073l-.29903.24391c-.4396-.18466-.93155-.35278-1.50895-.35278-1.59164 0-2.69958.98117-2.69958 2.12769 0 1.14653.86127 2.12769 2.81533 2.12769.92329 0 1.69637-.28387 2.14974-.77445zm0 0"/><path d="m598.57576 616.36772-1.96922-3.54294h-.44373l-1.70877 3.18465c-.26871.49609-.40238.67111-.9784.75517v.24253h2.1456v-.24253h-.36242c-.29904 0-.38586-.15572-.38586-.32246 0-.14332.0496-.24667.0868-.32522l.21773-.41479h1.69085l.34589.62976c.0455.0854.0634.11851.0634.18742.001.12677-.0923.24529-.49334.24529h-.25493v.24253h2.77674v-.24253c-.39963-.0248-.56912-.10887-.73035-.39688m-2.56729-2.22277.66559 1.20165h-1.30638zm0 0"/><path d="m606.40301 606.60294h1.26504c.80202 0 1.33256.21084 1.33256.70418 0 .47818-.46026.61874-.6146.63114v.008c.21221.0221.81166.14607.81166.6959 0 .39826-.3197.79513-1.3491.79513h-1.44556zm.84749 1.23748h.17502c.54156 0 .66283-.20257.66283-.49609 0-.31006-.23978-.51952-.61598-.51952h-.22187zm0 1.37253h.24943c.52503 0 .78548-.21773.78548-.51539 0-.28939-.16536-.63665-.79099-.63665h-.24392zm0 0"/><path d="m605.97444 606.60294h-1.06522v.22187h.38309v2.36333h-.47542l-.0813.24943h1.23885zm0 0"/><path d="m603.94459 609.86614.14056.20119v1.04593h-.4892v-.966h-.30731l-.0827-.28112zm0 0"/><path d="m604.34009 609.86614.0841.28112h1.10932l-.7841.966h.57602l.81028-.966v-.28112zm0 0"/><path d="m607.97122 610.4642c.0951.01.35691.0579.35691.30042 0 .1695-.11162.34864-.56499.34864h-1.42903l.0841-.28112 1.2237-.001c.10748 0 .12127-.0896.12127-.13918v.01c0-.0496-.0179-.12816-.12127-.12816h-.51263v-.18328h.51263c.0951 0 .12127-.0689.12127-.12126v-.01c0-.0524-.0221-.11024-.12127-.11024h-1.10932l-.0841-.2825h1.31465c.43959 0 .51125.12816.51125.31006 0 .22875-.2136.28112-.30317.28525zm0 0"/><path d="m608.78151 609.86614v.70555h1.18373c.0868 0 .113.0689.113.13229 0 .0482-.0289.12954-.113.12954h-1.29122l-.0827.27974h1.42764c.30317 0 .56362-.10335.56362-.36793 0-.26459-.24391-.34176-.50298-.34176h-.80753v-.25631h1.0418l.0827-.28112zm0 0"/><g transform="matrix(.35277777 0 0 .35277777 434.89376 423.4975)"><use height="100%" width="100%" x="405.94971" xlink:href="#b" y="284.17639"/><use height="100%" width="100%" x="127.5591" xlink:href="#c" y="327.74969"/></g></g></svg>