<?xml version="1.0" encoding="UTF-8" standalone="no"?>
<!-- Created with Inkscape (http://www.inkscape.org/) -->

<svg
   xmlns:dc="http://purl.org/dc/elements/1.1/"
   xmlns:cc="http://creativecommons.org/ns#"
   xmlns:rdf="http://www.w3.org/1999/02/22-rdf-syntax-ns#"
   xmlns:svg="http://www.w3.org/2000/svg"
   xmlns="http://www.w3.org/2000/svg"
   xmlns:sodipodi="http://sodipodi.sourceforge.net/DTD/sodipodi-0.dtd"
   xmlns:inkscape="http://www.inkscape.org/namespaces/inkscape"
   width="48pt"
   height="48pt"
   viewBox="0 0 16.933334 16.933333"
   version="1.1"
   id="svg979"
   inkscape:version="0.92.4 (5da689c313, 2019-01-14)"
   sodipodi:docname="30 - Necklace.svg"
   inkscape:export-filename="E:\TR Design Studio Creative\Project Design\TR Creative Design\Icon Design\Project Hiring\Icon Icons\Project - 001\002 - Beauty And Fashion\Send\Line\30 - Necklace.png"
   inkscape:export-xdpi="768"
   inkscape:export-ydpi="768">
  <defs
     id="defs973">
    <pattern
       y="0"
       x="0"
       height="6"
       width="6"
       patternUnits="userSpaceOnUse"
       id="EMFhbasepattern" />
    <pattern
       y="0"
       x="0"
       height="6"
       width="6"
       patternUnits="userSpaceOnUse"
       id="EMFhbasepattern-8" />
    <pattern
       y="0"
       x="0"
       height="6"
       width="6"
       patternUnits="userSpaceOnUse"
       id="EMFhbasepattern-4" />
  </defs>
  <sodipodi:namedview
     id="base"
     pagecolor="#ffffff"
     bordercolor="#666666"
     borderopacity="1.0"
     inkscape:pageopacity="0.0"
     inkscape:pageshadow="2"
     inkscape:zoom="8.546875"
     inkscape:cx="32"
     inkscape:cy="32"
     inkscape:document-units="pt"
     inkscape:current-layer="layer1"
     showgrid="false"
     units="pt"
     inkscape:window-width="1366"
     inkscape:window-height="716"
     inkscape:window-x="-8"
     inkscape:window-y="-8"
     inkscape:window-maximized="1"
     inkscape:snap-bbox="true"
     inkscape:bbox-nodes="true"
     inkscape:snap-nodes="false"
     showguides="false">
    <inkscape:grid
       type="xygrid"
       id="grid1526" />
    <sodipodi:guide
       position="0.97013909,15.963209"
       orientation="56.666615,0"
       id="guide1528"
       inkscape:locked="false" />
    <sodipodi:guide
       position="0.97013909,0.97016731"
       orientation="0,56.666667"
       id="guide1530"
       inkscape:locked="false" />
    <sodipodi:guide
       position="15.963195,0.97016731"
       orientation="-56.666615,0"
       id="guide1532"
       inkscape:locked="false" />
    <sodipodi:guide
       position="15.963195,15.963209"
       orientation="0,-56.666667"
       id="guide1534"
       inkscape:locked="false" />
  </sodipodi:namedview>
  <metadata
     id="metadata976">
    <rdf:RDF>
      <cc:Work
         rdf:about="">
        <dc:format>image/svg+xml</dc:format>
        <dc:type
           rdf:resource="http://purl.org/dc/dcmitype/StillImage" />
        <dc:title></dc:title>
      </cc:Work>
    </rdf:RDF>
  </metadata>
  <g
     inkscape:label="Layer 1"
     inkscape:groupmode="layer"
     id="layer1"
     transform="translate(0,-280.06668)">
    <path
       id="path883"
       d="m 4.7427351,281.76351 c -0.8823256,0.46712 -1.3753899,1.1678 -1.6089468,1.89441 -0.4152121,1.50515 0.2335569,3.19195 0.960178,4.38568 0.077853,0.10385 0.1816552,0.31141 0.3633105,0.57091 0,0 0,0 0,0 -0.051901,0.10385 -0.077853,0.20761 -0.1038029,0.31142 -0.051901,0.49305 0.2854583,0.93422 0.7525719,0.98613 0.1557046,0.026 0.311409,0 0.4411629,-0.0519 0,0.026 -0.02595,0.026 -0.02595,0.0519 -0.051901,0.4671 0.2854583,0.90826 0.7525718,0.98612 0.1297537,0 0.2595076,0 0.3633107,-0.026 0.025951,0.41521 0.3373597,0.80448 0.7525719,0.85637 0.1816554,0.026 0.3373597,0 0.4671135,-0.0779 l 0.2854585,0.49307 v 0.12975 c -0.1816553,-0.10384 -0.4152123,-0.18166 -0.6487692,-0.18166 -0.5449656,0 -1.0120791,0.36331 -1.1937344,0.80449 -0.1557047,0.44116 -0.103803,1.01207 0.311409,1.40134 0.5190151,0.51901 1.0899317,1.08992 1.6089468,1.63489 0.1297537,0.12975 0.3373597,0.12975 0.4671134,0 l 1.6348973,-1.63489 c 0.285459,-0.28546 0.441163,-0.64878 0.415212,-0.98614 -0.02595,-0.31141 -0.155704,-0.62282 -0.38926,-0.85638 -0.233558,-0.2076 -0.5190154,-0.36331 -0.8563757,-0.38925 -0.2335573,0 -0.4671133,0.0519 -0.7006706,0.2076 v -0.12975 c 0,0 0,0 0,-0.026 l 0.2854588,-0.46712 c 0.1297531,0.0779 0.3114089,0.10385 0.4671133,0.0779 0.4152119,-0.0519 0.7525722,-0.44116 0.7525722,-0.85637 0.103808,0.026 0.233556,0.026 0.36331,0.026 0.467114,-0.0779 0.804474,-0.51901 0.752573,-0.98612 0,-0.026 -0.02595,-0.026 -0.02595,-0.0519 0.129753,0.0519 0.285457,0.0778 0.441162,0.0519 0.467114,-0.0519 0.804473,-0.49307 0.752572,-0.98613 -0.02595,-0.10385 -0.0519,-0.20761 -0.103808,-0.31141 0,0 0,0 0,0 0.181656,-0.2595 0.311409,-0.46712 0.36331,-0.57092 0.726621,-1.19373 1.37539,-2.88054 0.960179,-4.38567 -0.233557,-0.72662 -0.726621,-1.4273 -1.608948,-1.89441 -0.856374,-0.46711 -2.076059,-0.72662 -3.7109574,-0.72662 -1.6608483,0 -2.8805338,0.25951 -3.7369087,0.72662 z m 7.1364579,0.57093 c 0.752572,0.4152 1.115882,0.90826 1.297538,1.50513 0.337359,1.19374 -0.207606,2.75078 -0.882326,3.86666 -0.07785,0.12977 -0.181655,0.28546 -0.337359,0.51902 -0.103808,-0.0519 -0.233558,-0.0519 -0.363311,-0.0519 v 0 c -0.467113,0.0519 -0.804473,0.49306 -0.752572,0.98613 0,0.026 0,0.026 0,0.0519 -0.129754,-0.0519 -0.259507,-0.0778 -0.415212,-0.0519 -0.4411634,0.0519 -0.7525723,0.41521 -0.7525723,0.85637 -0.1297543,-0.026 -0.2335573,-0.0519 -0.3633104,-0.026 -0.4671133,0.0519 -0.8044739,0.49306 -0.7525723,0.96017 0,0.0779 0.025951,0.15571 0.051902,0.23356 l -0.1297538,0.23355 -0.1557043,-0.23355 c 0.051902,-0.0779 0.051902,-0.1557 0.077852,-0.23356 0.051901,-0.46711 -0.3114092,-0.90827 -0.7785227,-0.96017 -0.1297541,-0.026 -0.2335569,0 -0.33736,0.026 -0.025951,-0.44116 -0.3373597,-0.80447 -0.7785225,-0.85637 -0.1557045,-0.026 -0.3114092,0 -0.4152122,0.0519 0,-0.026 0,-0.026 0.02595,-0.0519 0.051901,-0.49307 -0.3114091,-0.93423 -0.7785227,-0.98613 -0.1297538,0 -0.2595075,0 -0.3633105,0.0519 -0.1557045,-0.23356 -0.2595074,-0.38925 -0.3373598,-0.51902 -0.6747195,-1.11588 -1.2196854,-2.67292 -0.8823256,-3.86666 0.1816553,-0.59687 0.5449658,-1.08993 1.2975377,-1.50513 0.7266212,-0.38927 1.816553,-0.64878 3.4254997,-0.64878 1.5829967,0 2.6729287,0.25951 3.3995497,0.64878 z m -6.6174428,6.48768 c 0.1297538,0.026 0.2076061,0.12976 0.1816552,0.25951 -0.02595,0.12975 -0.1038029,0.2076 -0.2335568,0.18165 -0.1297537,0 -0.2076059,-0.10385 -0.2076059,-0.23356 0.02595,-0.12975 0.1297537,-0.23355 0.2595075,-0.2076 z m 6.4098368,0 c 0.129754,-0.026 0.233557,0.0779 0.259507,0.2076 0.02595,0.12976 -0.07785,0.23356 -0.207606,0.23356 -0.103808,0.026 -0.207606,-0.0519 -0.233556,-0.18165 -0.02595,-0.12975 0.0519,-0.23356 0.181655,-0.25951 z m -5.2420527,0.98613 c 0.1297537,0 0.2076059,0.10384 0.2076059,0.23356 -0.025951,0.1557 -0.1297537,0.23356 -0.2595075,0.2076 -0.1297537,-0.026 -0.2076061,-0.12975 -0.2076061,-0.2595 0.025951,-0.12976 0.1297538,-0.20762 0.2595077,-0.18166 z m 4.0742687,0 c 0.129754,-0.026 0.233557,0.0519 0.259507,0.18166 0.02595,0.12975 -0.07785,0.23355 -0.207606,0.2595 -0.103808,0.026 -0.207606,-0.0519 -0.233556,-0.18165 -0.02595,-0.1557 0.0519,-0.25951 0.181655,-0.25951 z m -2.9583864,0.83043 c 0.1297537,0 0.2076063,0.10384 0.2076063,0.23355 -0.025951,0.0519 -0.025951,0.10385 -0.051902,0.12975 -0.051901,0.0519 -0.1297537,0.10385 -0.2076063,0.0779 -0.1297537,-0.026 -0.2076059,-0.12975 -0.2076059,-0.25952 0.025951,-0.12975 0.1297537,-0.2076 0.2595074,-0.18164 z m 1.8425033,0 c 0.1297544,-0.026 0.2335573,0.0519 0.2595075,0.18164 0.025955,0.12977 -0.077853,0.23356 -0.207606,0.25952 -0.1297531,0.026 -0.233556,-0.0519 -0.233556,-0.18166 -0.025955,-0.15571 0.051898,-0.2595 0.1816545,-0.2595 z m 0.077853,2.07605 c 0.1297543,0 0.3114089,0.0779 0.4152131,0.20761 0.129753,0.12975 0.207606,0.28545 0.207606,0.44116 0,0.15571 -0.02595,0.28546 -0.207606,0.46712 -0.4671146,0.46711 -0.9601781,0.93422 -1.4272921,1.40134 L 7.052352,293.83062 c -0.1816554,-0.23356 -0.259508,-0.49306 -0.1297538,-0.67472 0.077852,-0.23356 0.2854581,-0.41521 0.5709163,-0.41521 0.1816553,0 0.33736,0.0779 0.4671138,0.2076 0,0 0,0 0,0 l 0.2854582,0.28546 c 0.1297537,0.10384 0.311409,0.10384 0.4411629,0 l 0.2854588,-0.28546 c 0.1297531,-0.18166 0.337359,-0.23356 0.4930647,-0.23356 z"
       style="fill:#000000;fill-opacity:1;fill-rule:nonzero;stroke:none;stroke-width:0.26458335"
       inkscape:connector-curvature="0" />
  </g>
</svg>
