<?xml version="1.0" encoding="UTF-8" standalone="no"?>
<!-- Created with Inkscape (http://www.inkscape.org/) -->
<svg
   xmlns:dc="http://purl.org/dc/elements/1.1/"
   xmlns:cc="http://creativecommons.org/ns#"
   xmlns:rdf="http://www.w3.org/1999/02/22-rdf-syntax-ns#"
   xmlns:svg="http://www.w3.org/2000/svg"
   xmlns="http://www.w3.org/2000/svg"
   xmlns:sodipodi="http://sodipodi.sourceforge.net/DTD/sodipodi-0.dtd"
   xmlns:inkscape="http://www.inkscape.org/namespaces/inkscape"
   version="1.0"
   width="600"
   height="137.15245"
   id="svg2629"
   sodipodi:version="0.32"
   inkscape:version="0.46"
   sodipodi:docname="Vacheron Constantin.svg"
   inkscape:output_extension="org.inkscape.output.svg.inkscape">
  <metadata
     id="metadata25">
    <rdf:RDF>
      <cc:Work
         rdf:about="">
        <dc:format>image/svg+xml</dc:format>
        <dc:type
           rdf:resource="http://purl.org/dc/dcmitype/StillImage" />
      </cc:Work>
    </rdf:RDF>
  </metadata>
  <sodipodi:namedview
     inkscape:window-height="1030"
     inkscape:window-width="1920"
     inkscape:pageshadow="2"
     inkscape:pageopacity="0.0"
     guidetolerance="10.0"
     gridtolerance="10.0"
     objecttolerance="10.0"
     borderopacity="1.0"
     bordercolor="#666666"
     pagecolor="#ffffff"
     id="base"
     showgrid="false"
     inkscape:zoom="2.4394776"
     inkscape:cx="111.49928"
     inkscape:cy="25.487335"
     inkscape:window-x="-8"
     inkscape:window-y="-8"
     inkscape:current-layer="svg2629" />
  <defs
     id="defs2631">
    <inkscape:perspective
       sodipodi:type="inkscape:persp3d"
       inkscape:vp_x="0 : 25.487335 : 1"
       inkscape:vp_y="0 : 1000 : 0"
       inkscape:vp_z="222.99857 : 25.487335 : 1"
       inkscape:persp3d-origin="111.49928 : 16.991557 : 1"
       id="perspective27" />
  </defs>
  <g
     transform="matrix(2.6906002,0,0,2.6906002,-1083.7372,-1540.6084)"
     id="layer1">
    <polygon
       points="219.5,381.26 215.82,395.57 217.02,395.57 220.19,383 223.48,395.57 224.63,395.57 220.83,381.26 219.5,381.26 "
       transform="matrix(1.249992,0,0,-1.249992,133.01315,1099.7482)"
       id="polygon12"
       style="font-style:normal;font-variant:normal;font-weight:normal;font-stretch:normal;letter-spacing:normal;word-spacing:normal;text-anchor:start;fill:#978555;fill-opacity:1;fill-rule:nonzero;stroke:#000000;stroke-width:0;stroke-linecap:butt;stroke-linejoin:miter;stroke-miterlimit:10.43299961;stroke-dasharray:none;stroke-dashoffset:0;stroke-opacity:1" />
    <path
       d="M 419.49686,605.29349 L 414.77811,623.16849 L 416.12186,623.16849 L 417.62186,617.54349 L 422.90311,617.54349 L 424.37186,623.16849 L 425.87186,623.16849 L 421.18436,605.29349 L 419.49686,605.29349 z M 420.24686,607.26225 L 422.62186,616.19974 L 417.87186,616.19974 L 420.24686,607.26225 z"
       id="polygon14"
       style="font-style:normal;font-variant:normal;font-weight:normal;font-stretch:normal;letter-spacing:normal;word-spacing:normal;text-anchor:start;fill:#978555;fill-opacity:1;fill-rule:nonzero;stroke:#000000;stroke-width:0;stroke-linecap:butt;stroke-linejoin:miter;stroke-miterlimit:10.43299961;stroke-dasharray:none;stroke-dashoffset:0;stroke-opacity:1" />
    <path
       d="M 438.09867,617.16384 L 438.07367,617.55134 L 438.03617,617.92634 L 437.98617,618.28884 L 437.93617,618.63884 L 437.87367,618.97634 L 437.79867,619.30133 L 437.72368,619.61383 L 437.63617,619.92633 L 437.53617,620.21383 L 437.43617,620.48883 L 437.32367,620.76382 L 437.19867,621.01382 L 437.07367,621.25132 L 436.93618,621.48882 L 436.79868,621.70132 L 436.64868,621.91381 C 435.79868,622.98881 434.63619,623.5263 433.1487,623.5263 C 431.37371,623.5263 430.07372,622.77631 429.23623,621.27632 C 428.41123,619.77633 427.98624,617.41384 427.98624,614.21387 C 427.98624,611.02638 428.41123,608.6764 429.23623,607.17641 C 430.07372,605.68892 431.37371,604.93892 433.1487,604.93892 C 434.62369,604.93892 435.78618,605.42642 436.64868,606.40141 C 437.49868,607.38891 437.94867,608.7514 437.98617,610.48889 L 436.49868,610.48889 C 436.44868,609.1639 436.12368,608.1264 435.53619,607.40141 C 434.94869,606.67641 434.16119,606.30141 433.1612,606.30141 C 431.92371,606.30141 430.99872,606.93891 430.39872,608.22641 C 429.81122,609.5139 429.51123,611.50138 429.51123,614.21387 C 429.51123,616.91385 429.81122,618.91383 430.39872,620.20133 C 430.99872,621.47632 431.91121,622.12632 433.1612,622.12632 C 434.17369,622.12632 434.97369,621.68881 435.58618,620.82633 C 436.18618,619.96383 436.53618,618.75134 436.63618,617.16384 L 438.09867,617.16384 z"
       id="path18"
       style="font-style:normal;font-variant:normal;font-weight:normal;font-stretch:normal;letter-spacing:normal;word-spacing:normal;text-anchor:start;fill:#978555;fill-opacity:1;fill-rule:nonzero;stroke:#000000;stroke-width:0;stroke-linecap:butt;stroke-linejoin:miter;stroke-miterlimit:10.43299961;stroke-dasharray:none;stroke-dashoffset:0;stroke-opacity:1" />
    <polygon
       points="246.82,381.26 246.82,395.57 247.97,395.57 247.97,389.51 253.54,389.51 253.54,395.57 254.69,395.57 254.69,381.26 253.54,381.26 253.54,388.38 247.97,388.38 247.97,381.26 246.82,381.26 "
       transform="matrix(1.249992,0,0,-1.249992,133.01315,1099.7482)"
       id="polygon20"
       style="font-style:normal;font-variant:normal;font-weight:normal;font-stretch:normal;letter-spacing:normal;word-spacing:normal;text-anchor:start;fill:#978555;fill-opacity:1;fill-rule:nonzero;stroke:#000000;stroke-width:0;stroke-linecap:butt;stroke-linejoin:miter;stroke-miterlimit:10.43299961;stroke-dasharray:none;stroke-dashoffset:0;stroke-opacity:1" />
    <polygon
       points="257.69,381.26 257.69,395.57 264.09,395.57 264.09,394.45 258.94,394.45 258.94,389.29 263.56,389.29 263.56,388.2 258.94,388.2 258.94,382.38 264.09,382.38 264.09,381.26 257.69,381.26 "
       transform="matrix(1.249992,0,0,-1.249992,133.01315,1099.7482)"
       id="polygon22"
       style="font-style:normal;font-variant:normal;font-weight:normal;font-stretch:normal;letter-spacing:normal;word-spacing:normal;text-anchor:start;fill:#978555;fill-opacity:1;fill-rule:nonzero;stroke:#000000;stroke-width:0;stroke-linecap:butt;stroke-linejoin:miter;stroke-miterlimit:10.43299961;stroke-dasharray:none;stroke-dashoffset:0;stroke-opacity:1" />
    <path
       d="M 466.18436,605.29349 L 466.18436,623.16849 L 467.68436,623.16849 L 467.68436,614.85599 L 470.43436,614.85599 C 471.53435,614.85599 472.29062,615.08726 472.71561,615.57475 C 473.12811,616.06224 473.35938,617.09974 473.43436,618.69975 C 473.45937,618.98724 473.47188,619.37476 473.49686,619.88724 C 473.57186,621.72474 473.75935,622.81849 474.05936,623.16849 L 475.74686,623.16849 C 475.25936,622.681 474.99688,621.51223 474.93436,619.63725 C 474.90936,618.96225 474.89686,618.43724 474.87186,618.07475 C 474.79686,616.79975 474.5781,615.88723 474.21561,615.32475 C 473.86562,614.76225 473.28434,614.37474 472.49686,614.13725 C 473.38435,613.78725 474.07186,613.25597 474.49686,612.5435 C 474.93435,611.83101 475.12186,610.91224 475.12186,609.76224 C 475.12186,608.23726 474.69686,607.09975 473.80936,606.38724 C 472.92187,605.66225 471.52184,605.29349 469.62186,605.29349 L 466.18436,605.29349 z M 467.68436,606.606 L 469.55936,606.606 C 470.99685,606.606 472.05312,606.86226 472.71561,607.38725 C 473.36561,607.92473 473.68435,608.76849 473.68436,609.9185 C 473.68436,611.206 473.3406,612.14974 472.65311,612.69974 C 471.96562,613.26224 470.82185,613.51224 469.18436,613.51225 L 467.68436,613.51225 L 467.68436,606.606 z"
       id="path24"
       style="font-style:normal;font-variant:normal;font-weight:normal;font-stretch:normal;letter-spacing:normal;word-spacing:normal;text-anchor:start;fill:#978555;fill-opacity:1;fill-rule:nonzero;stroke:#000000;stroke-width:0;stroke-linecap:butt;stroke-linejoin:miter;stroke-miterlimit:10.43299961;stroke-dasharray:none;stroke-dashoffset:0;stroke-opacity:1" />
    <path
       d="M 483.43436,604.94974 C 481.65937,604.94974 480.35312,605.68102 479.52811,607.1685 L 479.46561,607.32475 L 479.37186,607.44975 L 479.30936,607.63724 L 479.24686,607.76224 L 479.18436,607.94975 L 479.12186,608.10599 L 479.05936,608.2935 L 478.99686,608.44975 L 478.93436,608.63724 L 478.87186,608.82475 L 478.80936,609.01225 L 478.77811,609.23099 L 478.71561,609.4185 L 478.68436,609.63725 L 478.62186,609.82475 L 478.59061,610.07475 L 478.55936,610.2935 L 478.52811,610.51225 L 478.49686,610.731 L 478.46561,610.981 L 478.43436,611.23099 L 478.40311,611.44974 L 478.37186,611.731 L 478.37186,611.981 L 478.34061,612.231 L 478.30936,612.51225 L 478.30936,612.76225 L 478.30936,613.04349 L 478.30936,613.32475 L 478.27811,613.63725 L 478.27811,613.9185 L 478.27811,614.19975 C 478.27811,617.39972 478.69062,619.76225 479.52811,621.26224 C 480.36561,622.76223 481.67186,623.51224 483.43436,623.51224 C 485.20935,623.51224 486.50311,622.76223 487.34061,621.26224 C 488.1781,619.76225 488.5906,617.39972 488.59061,614.19975 C 488.59061,610.99977 488.17809,608.65599 487.34061,607.1685 C 486.50311,605.6685 485.20934,604.94976 483.43436,604.94974 z M 483.43436,606.29349 C 484.67185,606.29349 485.59687,606.94349 486.18436,608.231 C 486.78436,609.51849 487.05935,611.48726 487.05936,614.19975 C 487.05936,616.89973 486.78436,618.91225 486.18436,620.19975 C 485.59687,621.47474 484.67184,622.13724 483.43436,622.13724 C 482.18437,622.13724 481.25311,621.48724 480.65311,620.19975 L 480.55936,619.94975 L 480.43436,619.66849 L 480.37186,619.38725 L 480.27811,619.07475 L 480.18436,618.76224 L 480.12186,618.44974 L 480.05936,618.07475 L 479.99686,617.731 L 479.93436,617.32474 L 479.90311,616.94975 L 479.87186,616.51224 L 479.80936,616.106 L 479.80936,615.63724 L 479.77811,615.19975 L 479.77811,614.69975 L 479.77811,614.19975 C 479.77811,611.49976 480.05312,609.51849 480.65311,608.231 C 481.25311,606.94351 482.18436,606.29351 483.43436,606.29349 z"
       id="path28"
       style="font-style:normal;font-variant:normal;font-weight:normal;font-stretch:normal;letter-spacing:normal;word-spacing:normal;text-anchor:start;fill:#978555;fill-opacity:1;fill-rule:nonzero;stroke:#000000;stroke-width:0;stroke-linecap:butt;stroke-linejoin:miter;stroke-miterlimit:10.43299961;stroke-dasharray:none;stroke-dashoffset:0;stroke-opacity:1" />
    <polygon
       points="287.2,381.26 287.2,395.57 288.55,395.57 293.86,383.09 293.86,395.57 294.98,395.57 294.98,381.26 293.6,381.26 288.32,393.5 288.32,381.26 287.2,381.26 "
       transform="matrix(1.249992,0,0,-1.249992,133.01315,1099.7482)"
       id="polygon32"
       style="font-style:normal;font-variant:normal;font-weight:normal;font-stretch:normal;letter-spacing:normal;word-spacing:normal;text-anchor:start;fill:#978555;fill-opacity:1;fill-rule:nonzero;stroke:#000000;stroke-width:0;stroke-linecap:butt;stroke-linejoin:miter;stroke-miterlimit:10.43299961;stroke-dasharray:none;stroke-dashoffset:0;stroke-opacity:1" />
    <path
       d="M 521.21064,617.16384 L 521.18564,617.55134 L 521.13564,617.92634 L 521.09814,618.28884 L 521.03564,618.63884 L 520.97314,618.97634 L 520.91064,619.30133 L 520.82314,619.61383 L 520.73564,619.92633 L 520.64814,620.21383 L 520.54814,620.48883 L 520.43564,620.76382 L 520.31064,621.01382 L 520.18564,621.25132 L 520.04814,621.48882 L 519.89815,621.70132 L 519.74815,621.91381 C 518.91065,622.98881 517.74816,623.5263 516.26067,623.5263 C 514.48568,623.5263 513.17319,622.77631 512.3482,621.27632 C 511.5107,619.77633 511.09821,617.41384 511.09821,614.21387 C 511.09821,611.02638 511.5107,608.6764 512.3482,607.17641 C 513.17319,605.68892 514.48568,604.93892 516.26067,604.93892 C 517.73566,604.93892 518.89815,605.42642 519.74815,606.40141 C 520.61064,607.38891 521.06064,608.7514 521.09814,610.48889 L 519.61065,610.48889 C 519.54815,609.1639 519.22315,608.1264 518.64815,607.40141 C 518.06066,606.67641 517.27316,606.30141 516.26067,606.30141 C 515.02318,606.30141 514.11069,606.93891 513.51069,608.22641 C 512.91069,609.5139 512.62319,611.50138 512.62319,614.21387 C 512.62319,616.91385 512.91069,618.91383 513.51069,620.20133 C 514.11069,621.47632 515.02318,622.12632 516.26067,622.12632 C 517.27316,622.12632 518.08566,621.68881 518.68565,620.82633 C 519.29815,619.96383 519.64815,618.75134 519.74815,617.16384 L 521.21064,617.16384 z"
       id="path34"
       style="font-style:normal;font-variant:normal;font-weight:normal;font-stretch:normal;letter-spacing:normal;word-spacing:normal;text-anchor:start;fill:#978555;fill-opacity:1;fill-rule:nonzero;stroke:#000000;stroke-width:0;stroke-linecap:butt;stroke-linejoin:miter;stroke-miterlimit:10.43299961;stroke-dasharray:none;stroke-dashoffset:0;stroke-opacity:1" />
    <path
       d="M 529.43436,604.94974 C 527.65937,604.94974 526.3531,605.68102 525.52811,607.1685 L 525.46561,607.32475 L 525.37186,607.44975 L 525.30936,607.63724 L 525.24686,607.76224 L 525.18436,607.94975 L 525.12186,608.10599 L 525.05936,608.2935 L 524.99686,608.44975 L 524.93436,608.63724 L 524.87186,608.82475 L 524.80936,609.01225 L 524.77811,609.23099 L 524.71561,609.4185 L 524.68436,609.63725 L 524.62186,609.82475 L 524.59061,610.07475 L 524.55936,610.2935 L 524.52811,610.51225 L 524.49686,610.731 L 524.46561,610.981 L 524.43436,611.23099 L 524.40311,611.44974 L 524.37186,611.731 L 524.37186,611.981 L 524.34061,612.231 L 524.34061,612.51225 L 524.30936,612.76225 L 524.30936,613.04349 L 524.30936,613.32475 L 524.27811,613.63725 L 524.27811,613.9185 L 524.27811,614.19975 C 524.27811,617.39972 524.6906,619.76225 525.52811,621.26224 C 526.36561,622.76223 527.67187,623.51224 529.43436,623.51224 C 531.19685,623.51224 532.50312,622.76223 533.34061,621.26224 C 534.1656,619.76225 534.59061,617.39972 534.59061,614.19975 C 534.59061,610.99977 534.17811,608.65599 533.34061,607.1685 C 532.51561,605.6685 531.20935,604.94976 529.43436,604.94974 z M 529.43436,606.29349 C 530.68435,606.29349 531.59688,606.94349 532.18436,608.231 C 532.77186,609.51849 533.05936,611.48726 533.05936,614.19975 C 533.05936,616.89973 532.77187,618.91225 532.18436,620.19975 C 531.59687,621.47474 530.68437,622.13724 529.43436,622.13724 C 528.19687,622.13724 527.25312,621.48724 526.65311,620.19975 L 526.55936,619.94975 L 526.43436,619.66849 L 526.37186,619.38725 L 526.27811,619.07475 L 526.18436,618.76224 L 526.12186,618.44974 L 526.05936,618.07475 L 525.99686,617.731 L 525.93436,617.32474 L 525.90311,616.94975 L 525.87186,616.51224 L 525.80936,616.106 L 525.80936,615.63724 L 525.77811,615.19975 L 525.77811,614.69975 L 525.77811,614.19975 C 525.77811,611.49976 526.06563,609.51849 526.65311,608.231 C 527.25311,606.94351 528.19688,606.29351 529.43436,606.29349 z"
       id="path36"
       style="font-style:normal;font-variant:normal;font-weight:normal;font-stretch:normal;letter-spacing:normal;word-spacing:normal;text-anchor:start;fill:#978555;fill-opacity:1;fill-rule:nonzero;stroke:#000000;stroke-width:0;stroke-linecap:butt;stroke-linejoin:miter;stroke-miterlimit:10.43299961;stroke-dasharray:none;stroke-dashoffset:0;stroke-opacity:1" />
    <polygon
       points="324,381.26 324,395.57 325.35,395.57 330.66,383.09 330.66,395.57 331.78,395.57 331.78,381.26 330.4,381.26 325.13,393.5 325.13,381.26 324,381.26 "
       transform="matrix(1.249992,0,0,-1.249992,133.01315,1099.7482)"
       id="polygon40"
       style="font-style:normal;font-variant:normal;font-weight:normal;font-stretch:normal;letter-spacing:normal;word-spacing:normal;text-anchor:start;fill:#978555;fill-opacity:1;fill-rule:nonzero;stroke:#000000;stroke-width:0;stroke-linecap:butt;stroke-linejoin:miter;stroke-miterlimit:10.43299961;stroke-dasharray:none;stroke-dashoffset:0;stroke-opacity:1" />
    <path
       d="M 550.89795,618.10134 L 552.38544,618.10134 C 552.43544,619.38883 552.74794,620.37633 553.32293,621.08882 C 553.89793,621.80131 554.67292,622.16381 555.67292,622.16381 C 556.77291,622.16381 557.63541,621.83882 558.2729,621.20132 C 558.8979,620.55132 559.2229,619.67633 559.2229,618.56383 C 559.2229,618.01384 559.1354,617.53884 558.96039,617.13885 C 558.7854,616.75135 558.4979,616.38885 558.09791,616.06385 C 557.74791,615.75136 557.04791,615.40136 556.02292,615.00136 C 555.57292,614.83886 555.24792,614.70137 555.01042,614.58887 C 553.64793,614.01387 552.68543,613.33887 552.11044,612.56387 C 551.53544,611.78888 551.24795,610.78889 551.24795,609.5764 C 551.24795,608.22641 551.68544,607.11391 552.56044,606.25142 C 553.42293,605.37642 554.52293,604.93892 555.87292,604.93892 C 557.24791,604.93892 558.3354,605.33892 559.1229,606.13892 C 559.92289,606.93891 560.31039,608.0514 560.31039,609.4639 L 560.31039,609.5889 L 558.9104,609.5889 C 558.8479,608.5389 558.5604,607.72641 558.0604,607.15141 C 557.5479,606.58892 556.84791,606.30141 555.96041,606.30141 C 555.03542,606.30141 554.26043,606.61392 553.64793,607.25141 C 553.04793,607.87641 552.73544,608.6764 552.73544,609.63889 C 552.73544,610.0764 552.79793,610.48889 552.92293,610.86389 C 553.06043,611.22639 553.23544,611.57639 553.48543,611.87638 C 553.88543,612.36388 554.79792,612.87637 556.19791,613.42637 C 556.46041,613.52637 556.64791,613.60137 556.78541,613.65137 C 558.21041,614.22637 559.21039,614.88886 559.81039,615.63886 C 560.41039,616.38885 560.71039,617.36385 560.71039,618.55134 C 560.71039,620.11383 560.26039,621.33882 559.38539,622.22632 C 558.5104,623.12631 557.31041,623.5638 555.77292,623.5638 C 554.24793,623.5638 553.07293,623.10131 552.23544,622.15131 C 551.38545,621.20132 550.94795,619.85133 550.89795,618.10134 z"
       id="path42"
       style="font-style:normal;font-variant:normal;font-weight:normal;font-stretch:normal;letter-spacing:normal;word-spacing:normal;text-anchor:start;fill:#978555;fill-opacity:1;fill-rule:nonzero;stroke:#000000;stroke-width:0;stroke-linecap:butt;stroke-linejoin:miter;stroke-miterlimit:10.43299961;stroke-dasharray:none;stroke-dashoffset:0;stroke-opacity:1" />
    <polygon
       points="346.8,381.26 346.8,394.41 343.62,394.41 343.62,395.57 351.21,395.57 351.21,394.41 348.02,394.41 348.02,381.26 346.8,381.26 "
       transform="matrix(1.249992,0,0,-1.249992,133.01315,1099.7482)"
       id="polygon44"
       style="font-style:normal;font-variant:normal;font-weight:normal;font-stretch:normal;letter-spacing:normal;word-spacing:normal;text-anchor:start;fill:#978555;fill-opacity:1;fill-rule:nonzero;stroke:#000000;stroke-width:0;stroke-linecap:butt;stroke-linejoin:miter;stroke-miterlimit:10.43299961;stroke-dasharray:none;stroke-dashoffset:0;stroke-opacity:1" />
    <path
       d="M 577.87186,605.29349 L 573.18436,623.16849 L 574.52811,623.16849 L 576.02811,617.54349 L 581.30936,617.54349 L 582.77811,623.16849 L 584.24686,623.16849 L 579.59061,605.29349 L 577.87186,605.29349 z M 578.65311,607.26225 L 580.99686,616.19974 L 576.27811,616.19974 L 578.65311,607.26225 z"
       id="polygon46"
       style="font-style:normal;font-variant:normal;font-weight:normal;font-stretch:normal;letter-spacing:normal;word-spacing:normal;text-anchor:start;fill:#978555;fill-opacity:1;fill-rule:nonzero;stroke:#000000;stroke-width:0;stroke-linecap:butt;stroke-linejoin:miter;stroke-miterlimit:10.43299961;stroke-dasharray:none;stroke-dashoffset:0;stroke-opacity:1" />
    <polygon
       points="362.98,381.26 362.98,395.57 364.34,395.57 369.64,383.09 369.64,395.57 370.77,395.57 370.77,381.26 369.38,381.26 364.11,393.5 364.11,381.26 362.98,381.26 "
       transform="matrix(1.249992,0,0,-1.249992,133.01315,1099.7482)"
       id="polygon50"
       style="font-style:normal;font-variant:normal;font-weight:normal;font-stretch:normal;letter-spacing:normal;word-spacing:normal;text-anchor:start;fill:#978555;fill-opacity:1;fill-rule:nonzero;stroke:#000000;stroke-width:0;stroke-linecap:butt;stroke-linejoin:miter;stroke-miterlimit:10.43299961;stroke-dasharray:none;stroke-dashoffset:0;stroke-opacity:1" />
    <polygon
       points="375.86,381.26 375.86,394.41 372.67,394.41 372.67,395.57 380.27,395.57 380.27,394.41 377.08,394.41 377.08,381.26 375.86,381.26 "
       transform="matrix(1.249992,0,0,-1.249992,133.01315,1099.7482)"
       id="polygon52"
       style="font-style:normal;font-variant:normal;font-weight:normal;font-stretch:normal;letter-spacing:normal;word-spacing:normal;text-anchor:start;fill:#978555;fill-opacity:1;fill-rule:nonzero;stroke:#000000;stroke-width:0;stroke-linecap:butt;stroke-linejoin:miter;stroke-miterlimit:10.43299961;stroke-dasharray:none;stroke-dashoffset:0;stroke-opacity:1" />
    <polygon
       points="382.21,381.26 383.4,381.26 383.4,395.57 382.21,395.57 382.21,381.26 "
       transform="matrix(1.249992,0,0,-1.249992,133.01315,1099.7482)"
       id="polygon54"
       style="font-style:normal;font-variant:normal;font-weight:normal;font-stretch:normal;letter-spacing:normal;word-spacing:normal;text-anchor:start;fill:#978555;fill-opacity:1;fill-rule:nonzero;stroke:#000000;stroke-width:0;stroke-linecap:butt;stroke-linejoin:miter;stroke-miterlimit:10.43299961;stroke-dasharray:none;stroke-dashoffset:0;stroke-opacity:1" />
    <polygon
       points="386.44,381.26 386.44,395.57 387.8,395.57 393.1,383.09 393.1,395.57 394.22,395.57 394.22,381.26 392.84,381.26 387.57,393.5 387.57,381.26 386.44,381.26 "
       transform="matrix(1.249992,0,0,-1.249992,133.01315,1099.7482)"
       id="polygon56"
       style="font-style:normal;font-variant:normal;font-weight:normal;font-stretch:normal;letter-spacing:normal;word-spacing:normal;text-anchor:start;fill:#978555;fill-opacity:1;fill-rule:nonzero;stroke:#000000;stroke-width:0;stroke-linecap:butt;stroke-linejoin:miter;stroke-miterlimit:10.43299961;stroke-dasharray:none;stroke-dashoffset:0;stroke-opacity:1" />
    <path
       d="M 517.87316,586.51404 L 518.14816,586.57655 L 528.81059,591.16401 L 526.7731,585.51405 L 526.6606,585.53905 L 526.7731,585.48905 L 526.73561,585.40155 L 526.7731,585.40155 L 528.81059,579.63909 L 518.18566,584.22656 L 517.89816,584.27656 C 517.71066,584.27656 517.51066,584.22656 517.37316,584.06406 C 517.19816,583.91406 517.12317,583.72656 517.12317,583.50156 L 517.17316,583.25156 L 521.78563,572.58913 L 516.02317,574.66412 L 510.26071,572.58913 L 514.84818,583.25156 L 514.91068,583.50156 C 514.91068,583.72656 514.84818,583.91406 514.68568,584.06406 C 514.54818,584.22656 514.34819,584.27656 514.14818,584.27656 L 513.87319,584.22656 L 503.21076,579.63909 L 505.26074,585.28905 L 505.37324,585.26405 L 505.26074,585.31405 L 505.28574,585.40155 L 505.26074,585.40155 L 503.21076,591.16401 L 513.84819,586.57655 L 514.12319,586.51404 C 514.32318,586.51404 514.52318,586.57655 514.66068,586.73904 C 514.82318,586.88904 514.91068,587.07654 514.91068,587.30154 L 514.84818,587.55153 L 510.23571,598.21397 L 515.99817,596.13898 L 521.76064,598.21397 L 517.17316,587.55153 L 517.12317,587.30154 C 517.12317,587.07654 517.17316,586.88904 517.33566,586.73904 C 517.48566,586.57655 517.67316,586.51404 517.87316,586.51404 z"
       id="path166"
       style="font-style:normal;font-variant:normal;font-weight:normal;font-stretch:normal;letter-spacing:normal;word-spacing:normal;text-anchor:start;fill:#978555;fill-opacity:1;fill-rule:nonzero;stroke:#000000;stroke-width:0;stroke-linecap:butt;stroke-linejoin:miter;stroke-miterlimit:10.43299961;stroke-dasharray:none;stroke-dashoffset:0;stroke-opacity:1" />
  </g>
</svg>
