<?xml version="1.0" encoding="UTF-8"?>
<svg version="1.1" xmlns="http://www.w3.org/2000/svg" width="354" height="393">
<path d="M0 0 C1.34191406 -0.01836914 1.34191406 -0.01836914 2.7109375 -0.03710938 C20.2803079 -0.07541469 35.56181296 8.35756564 47.984375 20.4921875 C53.31169179 26.25400176 58.07120964 32.49660107 62.87890625 38.69140625 C65.34693746 41.85743159 67.90639533 44.93559513 70.5 48 C75.04570527 53.40745034 79.32513413 58.98945484 83.59057617 64.61938477 C87.93034205 70.32799757 92.41547633 75.90217818 96.96020508 81.44824219 C101.08140765 86.48769183 105.05153527 91.62151748 108.99609375 96.80078125 C112.6979143 101.61416376 116.56506399 106.29656255 120.42382812 110.984375 C120.95556641 111.63277344 121.48730469 112.28117187 122.03515625 112.94921875 C122.51090088 113.52631592 122.98664551 114.10341309 123.47680664 114.69799805 C127.680282 120.15098617 126.62967281 129.31127658 126.10595703 135.84375 C125.11711124 140.66249089 121.87911129 142.97634967 118.0078125 145.62890625 C117.22148437 146.14324219 116.43515625 146.65757812 115.625 147.1875 C114.965 148.1775 114.305 149.1675 113.625 150.1875 C114.23988281 150.77917969 114.85476562 151.37085938 115.48828125 151.98046875 C116.29652344 152.77066406 117.10476562 153.56085938 117.9375 154.375 C118.73800781 155.15230469 119.53851563 155.92960938 120.36328125 156.73046875 C124.17472802 160.871056 126.04048856 163.80028601 125.8125 169.5 C125.77189453 170.82451172 125.77189453 170.82451172 125.73046875 172.17578125 C125.69566406 172.83964844 125.66085938 173.50351562 125.625 174.1875 C112.79308332 182.05430319 96.38516505 185.19725104 81.6875 182.0625 C71.39383019 179.20241505 64.5010575 174.42498861 57.234375 166.70703125 C54.47746142 164.04504134 51.66114301 162.06489571 48.4375 160 C38.25621566 153.47822736 33.11369014 146.73477604 29.625 135.1875 C27.79899554 124.86302368 28.40445493 113.51153028 33.625 104.1875 C38.01923977 104.68969883 40.64878904 105.87115065 43.625 109.1875 C44.0138847 112.88190463 43.79185607 116.00075962 43.27734375 119.66015625 C41.98176748 129.77160783 43.78267062 139.19654573 48.625 148.1875 C48.65078125 147.23230469 48.6765625 146.27710938 48.703125 145.29296875 C49.44374537 128.41019071 49.44374537 128.41019071 53.625 122.1875 C56.0546875 121.2734375 56.0546875 121.2734375 58.625 121.1875 C61.94714943 123.15618114 63.03964322 123.81148843 64.625 127.1875 C64.72327614 130.90412511 64.34695172 134.44554415 63.9453125 138.140625 C63.35664184 144.14332582 63.67953851 150.46183284 65.625 156.1875 C68.22714943 158.39865288 69.74664072 159.17670603 73.16796875 159.21875 C79.20067891 158.0068614 84.23710441 156.195839 89.62890625 153.2109375 C91.625 152.1875 91.625 152.1875 93.625 152.1875 C93.02354629 149.0848167 92.0703546 147.13143336 90.140625 144.640625 C89.6242749 143.96894287 89.1079248 143.29726074 88.57592773 142.60522461 C88.01462158 141.88987549 87.45331543 141.17452637 86.875 140.4375 C86.29371338 139.68670166 85.71242676 138.93590332 85.11352539 138.16235352 C80.64248769 132.4147367 76.05283814 126.76751494 71.43261719 121.13964844 C67.70434095 116.57738618 64.13126173 111.92199275 60.625 107.1875 C56.04623248 101.00661749 51.29263947 95.00039891 46.41455078 89.0534668 C42.88314708 84.74688982 39.41929653 80.39597531 36 76 C31.49146515 70.21401948 26.80631441 64.59790072 22.03515625 59.02734375 C20.50155942 57.2203342 19.01105473 55.37516707 17.58203125 53.484375 C15.58714607 51.14307263 13.95132338 49.92648831 11.25 48.5 C10.52039062 48.10425781 9.79078125 47.70851563 9.0390625 47.30078125 C0.22104603 43.23422026 -8.87446183 42.68995547 -18.125 45.8125 C-25.06229657 48.67856559 -32.45708226 52.54407426 -36.375 59.1875 C-37.12521244 61.73117668 -37.12521244 61.73117668 -36.375 64.1875 C-30.11127778 71.07759444 -20.35302406 72.76952282 -11.48828125 73.23828125 C-7.91995937 73.18007776 -4.8017421 72.58792939 -1.36328125 71.6953125 C1.89389208 70.86342147 4.29627375 70.6222446 7.625 71.1875 C10.10634743 73.20056711 12.12185929 75.35698907 13.625 78.1875 C12.625 81.1875 12.625 81.1875 10.734375 82.3203125 C9.56648438 82.81144531 9.56648438 82.81144531 8.375 83.3125 C7.22257812 83.81136719 7.22257812 83.81136719 6.046875 84.3203125 C-3.71444213 87.81549379 -17.4511817 87.75757459 -27.18359375 84.25390625 C-31.19085267 82.30384977 -34.80968659 79.84856726 -38.375 77.1875 C-35.42932813 84.29176746 -30.1515358 89.8821368 -23.30078125 93.40625 C-14.33672336 97.04278464 -4.1081793 97.37959797 4.9453125 93.91796875 C9.98732556 91.47129165 14.31814892 88.78434483 18.625 85.1875 C21.595 88.1575 24.565 91.1275 27.625 94.1875 C25.68388013 100.01085962 18.92363475 102.98768 13.69140625 105.71875 C2.93829519 110.73784119 -8.1353825 112.1318081 -19.6875 108.5625 C-29.87969757 104.70305452 -37.24127203 99.09072393 -41.9375 89.1875 C-45.33720222 80.68288215 -46.53893912 71.58825984 -47.97363281 62.58422852 C-48.25020479 60.93270352 -48.56468079 59.28723045 -48.90991211 57.64868164 C-51.49383568 43.97491077 -49.5171873 30.58529993 -41.70703125 19.0234375 C-41.26746094 18.41757813 -40.82789063 17.81171875 -40.375 17.1875 C-39.94574219 16.58164063 -39.51648437 15.97578125 -39.07421875 15.3515625 C-33.29231582 7.89209337 -23.59169803 2.33080079 -14.31640625 0.625 C-9.52542599 0.09319644 -4.81637421 0.00344027 0 0 Z M-37.375 27.1875 C-43.73944747 35.54387377 -44.67590587 42.85639858 -44.375 53.1875 C-43.715 53.5175 -43.055 53.8475 -42.375 54.1875 C-41.64796875 53.11822266 -41.64796875 53.11822266 -40.90625 52.02734375 C-33.30951854 41.17278323 -25.74459186 33.80275837 -12.375 31.1875 C-0.30982686 30.29324051 11.94203493 31.20774716 21.60546875 39.3046875 C29.62946882 46.78547674 36.82292906 54.57303516 43.625 63.1875 C44.58214061 64.37856363 45.54054134 65.56861538 46.5 66.7578125 C52.06525833 73.66446375 57.5400497 80.63112605 62.9296875 87.67578125 C66.13753482 91.8649526 69.38246421 96.02516055 72.625 100.1875 C76.63976809 105.34298566 80.64601091 110.50434316 84.625 115.6875 C85.39972656 116.69167969 86.17445313 117.69585937 86.97265625 118.73046875 C89.08205558 121.46946553 91.16466923 124.22797883 93.24609375 126.98828125 C94.51799521 128.6590323 95.7901296 130.32960604 97.0625 132 C97.66642578 132.80824219 98.27035156 133.61648438 98.89257812 134.44921875 C99.74819336 135.56683594 99.74819336 135.56683594 100.62109375 136.70703125 C101.38184204 137.71407104 101.38184204 137.71407104 102.15795898 138.74145508 C103.63777299 140.53849603 103.63777299 140.53849603 106.625 140.1875 C108.99586793 137.73693886 108.99586793 137.73693886 111.3125 134.6875 C112.12074219 133.6665625 112.92898437 132.645625 113.76171875 131.59375 C114.37660156 130.7996875 114.99148437 130.005625 115.625 129.1875 C112.87283436 124.09209899 109.81153262 119.70363053 106.125 115.25 C101.85171539 110.00446924 97.71135172 104.68908219 93.6875 99.25 C89.06620969 93.02044599 84.25951942 86.97288387 79.34008789 80.97680664 C76.0268138 76.93265596 72.79382576 72.84594287 69.625 68.6875 C64.27816294 61.68010054 58.71855157 54.85386401 53.13525391 48.03417969 C51.76745516 46.36168863 50.4040794 44.68574726 49.04296875 43.0078125 C47.56455223 41.18938537 46.07935939 39.37643645 44.5859375 37.5703125 C43.36147024 36.08241404 42.15495426 34.57933656 40.9765625 33.0546875 C31.80844476 21.65044348 18.04978895 14.1029228 3.625 12.1875 C-11.42542638 10.91204014 -27.04571031 16.05303183 -37.375 27.1875 Z M96.8125 159 C88.58351484 162.74286099 79.57906109 164.30965087 70.625 165.1875 C72.58190357 170.47113964 77.00852734 173.2108811 81.625 176 C90.23135731 179.31306675 100.01692562 177.64906142 108.3203125 174.35546875 C110.64852186 173.1755796 112.59428033 171.82049807 114.625 170.1875 C113.07712498 166.35299144 110.68777254 164.16194301 107.625 161.4375 C106.738125 160.63828125 105.85125 159.8390625 104.9375 159.015625 C101.54888868 156.33679038 100.40839311 157.21873198 96.8125 159 Z " fill="#06619F" transform="translate(49.375,209.8125)"/>
<path d="M0 0 C2.84158515 2.33128158 5.3001617 4.96263072 7.83203125 7.62109375 C10.4211588 10.02463698 13.15863915 11.84782731 16.12890625 13.7578125 C26.957041 20.79473635 32.64571654 28.30226305 35.44140625 41.1328125 C36.95951164 51.39462108 35.0713901 60.23237392 31.06640625 69.6953125 C26.89983678 69.6953125 25.32094287 69.11890762 22.24365234 66.36279297 C19.93674532 63.09523284 20.86937046 59.5316089 21.37890625 55.7578125 C22.42049749 44.79053142 21.33879819 35.60326252 16.06640625 25.6953125 C16.040625 26.65050781 16.01484375 27.60570312 15.98828125 28.58984375 C15.24766088 45.47262179 15.24766088 45.47262179 11.06640625 51.6953125 C8.63671875 52.61328125 8.63671875 52.61328125 6.06640625 52.6953125 C1.66395226 50.00492395 1.66395226 50.00492395 0.06640625 46.6953125 C-0.07050496 43.15328699 0.27500101 39.82784187 0.6875 36.30859375 C1.46489956 28.89524747 1.04603559 22.09732491 -2.93359375 15.6953125 C-12.54797954 14.84364447 -19.42805378 17.44254251 -27.93359375 21.6953125 C-27.68764653 27.98172356 -24.44271765 31.24101825 -20.49609375 35.7578125 C-19.20411035 37.27987737 -17.91375487 38.80332552 -16.625 40.328125 C-15.99094238 41.07352539 -15.35688477 41.81892578 -14.70361328 42.58691406 C-11.07973171 46.90358182 -7.71504893 51.41669681 -4.30419922 55.90234375 C-1.5569096 59.49623313 1.22541513 63.06302863 4.00390625 66.6328125 C4.60243408 67.40197998 5.20096191 68.17114746 5.81762695 68.96362305 C10.3389116 74.76967791 14.87687799 80.56239134 19.4296875 86.34375 C21.202678 88.5952707 22.9705338 90.85068014 24.734375 93.109375 C27.49928736 96.64790273 30.28013093 100.17359222 33.06640625 103.6953125 C33.60620117 104.38012695 34.14599609 105.06494141 34.70214844 105.77050781 C36.39942092 107.91817656 38.10668572 110.05754542 39.81640625 112.1953125 C40.33509277 112.8538623 40.8537793 113.51241211 41.38818359 114.19091797 C48.48368487 123.00790637 55.72333728 128.70064004 67.27734375 130.078125 C79.82182375 130.52507797 89.80153162 126.0994302 99.06640625 117.6953125 C101.07393784 115.31933057 101.07393784 115.31933057 102.06640625 112.6953125 C100.91064334 108.53305522 98.02608828 106.95438596 94.4765625 104.8671875 C83.2840183 99.42510766 73.95225551 100.18461056 62.3359375 103.52734375 C59.06640625 103.6953125 59.06640625 103.6953125 56.25390625 101.375 C55.53203125 100.49070312 54.81015625 99.60640625 54.06640625 98.6953125 C53.46828125 98.1384375 52.87015625 97.5815625 52.25390625 97.0078125 C51.06640625 95.6953125 51.06640625 95.6953125 51.06640625 93.6953125 C52.81442771 92.87856454 54.56490814 92.06707799 56.31640625 91.2578125 C57.2909375 90.80535156 58.26546875 90.35289063 59.26953125 89.88671875 C68.63024746 85.89926282 82.32390193 86.19051094 91.875 89.62890625 C95.88225892 91.57896273 99.50109284 94.03424524 103.06640625 96.6953125 C99.95711281 89.19642831 94.62381956 83.77861998 87.22265625 80.4765625 C76.61151477 76.63194602 66.56602491 77.0650142 56.234375 81.58203125 C52.77345528 83.3592603 49.83207731 85.16397038 48.06640625 88.6953125 C45.07420357 87.33160951 42.77614096 85.74623167 40.31640625 83.5703125 C39.7028125 83.03148438 39.08921875 82.49265625 38.45703125 81.9375 C37.998125 81.52757813 37.53921875 81.11765625 37.06640625 80.6953125 C39.94103785 73.79619667 47.53477167 69.48170144 54.12109375 66.47265625 C66.00662332 61.72321773 78.40606733 62.69379657 90.06640625 67.6953125 C99.73541314 72.85033551 105.01970102 79.7837238 108.3190918 90.08544922 C113.52705508 108.27333799 119.18731181 131.89027714 110.06640625 149.6953125 C103.86335497 160.18308994 94.97598073 168.67442019 83.12670898 172.28662109 C76.7734185 173.80900625 70.6440099 174.02831314 64.12890625 174.0078125 C63.10861328 174.02392578 62.08832031 174.04003906 61.03710938 174.05664062 C44.85290088 174.06696877 30.82176019 166.56458449 19.06640625 155.6953125 C12.59971133 149.10784739 6.86158348 141.86943548 1.06640625 134.6953125 C0.03197181 133.42909747 -1.00322997 132.16350907 -2.0390625 130.8984375 C-7.96649715 123.65009185 -13.79564616 116.34535369 -19.4765625 108.90234375 C-22.07761955 105.49677127 -24.72051368 102.12491685 -27.37109375 98.7578125 C-28.05776123 97.88552002 -28.05776123 97.88552002 -28.75830078 96.99560547 C-29.68618996 95.8174111 -30.61425029 94.63935151 -31.54248047 93.46142578 C-34.29776393 89.96340533 -37.04715481 86.46075113 -39.79736328 82.95874023 C-42.63224836 79.34955374 -45.47018359 75.74282155 -48.31518555 72.14160156 C-49.26138748 70.9372565 -50.20177542 69.72831853 -51.13598633 68.51464844 C-52.98414472 66.11794988 -54.81500606 63.81390019 -56.95703125 61.671875 C-61.79784212 56.64924964 -61.78820113 50.95073571 -61.72216797 44.27734375 C-61.46101161 39.64398673 -60.91934634 36.53609832 -57.74609375 32.9453125 C-56.49630058 31.83777221 -55.22603952 30.75276813 -53.93359375 29.6953125 C-52.92850382 28.55090317 -51.94624352 27.38573003 -50.99609375 26.1953125 C-50.31546875 25.3703125 -49.63484375 24.5453125 -48.93359375 23.6953125 C-49.54847656 23.10363281 -50.16335937 22.51195313 -50.796875 21.90234375 C-51.60511719 21.11214844 -52.41335937 20.32195313 -53.24609375 19.5078125 C-54.04660156 18.73050781 -54.84710938 17.95320313 -55.671875 17.15234375 C-59.48332177 13.0117565 -61.34908231 10.08252649 -61.12109375 4.3828125 C-61.09402344 3.49980469 -61.06695312 2.61679688 -61.0390625 1.70703125 C-61.00425781 1.04316406 -60.96945313 0.37929687 -60.93359375 -0.3046875 C-41.98492096 -10.70385066 -18.38001163 -13.08630524 0 0 Z M-44.93359375 0.6953125 C-45.89652344 1.15744141 -45.89652344 1.15744141 -46.87890625 1.62890625 C-48.24324651 2.29203908 -49.59120766 2.98879351 -50.93359375 3.6953125 C-51.16842035 5.83116836 -51.16842035 5.83116836 -49.359375 7.28125 C-47.9154363 8.50366021 -46.46594169 9.71952995 -45.01171875 10.9296875 C-42.93359375 12.6953125 -42.93359375 12.6953125 -40.49609375 15.3203125 C-37.82357375 17.12888188 -37.82357375 17.12888188 -34.12109375 15.6953125 C-33.35410156 15.38851563 -32.58710938 15.08171875 -31.796875 14.765625 C-28.19137483 13.41786641 -24.54221583 12.49115522 -20.80859375 11.5703125 C-20.13981201 11.40015625 -19.47103027 11.23 -18.78198242 11.0546875 C-14.50734017 9.9927431 -10.29493054 9.25039173 -5.93359375 8.6953125 C-7.32934858 5.38844721 -8.85830305 3.67955924 -11.74609375 1.5703125 C-12.41253906 1.07273437 -13.07898438 0.57515625 -13.765625 0.0625 C-23.47418742 -6.06001684 -35.13584199 -4.31123098 -44.93359375 0.6953125 Z M-40.93359375 32.6953125 C-44.23359375 36.6553125 -47.53359375 40.6153125 -50.93359375 44.6953125 C-49.51881383 47.52487233 -48.35194167 49.63650856 -46.5 52.09375 C-46.02167725 52.73070801 -45.54335449 53.36766602 -45.05053711 54.02392578 C-44.5375708 54.6992334 -44.02460449 55.37454102 -43.49609375 56.0703125 C-42.96185791 56.77784668 -42.42762207 57.48538086 -41.87719727 58.21435547 C-37.09285238 64.52994487 -32.21179918 70.76683276 -27.29248047 76.97753906 C-24.99847225 79.87740285 -22.7168212 82.78695898 -20.43359375 85.6953125 C-19.51433747 86.86459478 -18.59506665 88.03386562 -17.67578125 89.203125 C-15.864852 91.50759352 -14.05784812 93.81505837 -12.25390625 96.125 C-6.23304629 103.82627793 -0.10814608 111.43636718 6.0703125 119.01171875 C8.46636678 121.95134658 10.83580535 124.91061259 13.19140625 127.8828125 C14.48063871 129.48893613 15.77248856 131.09296095 17.06640625 132.6953125 C17.47568359 133.20690918 17.88496094 133.71850586 18.30664062 134.24560547 C29.85231837 148.61028264 42.83660028 159.83918406 61.8671875 162.015625 C74.02056475 162.5089962 87.4829178 159.38336054 97.06640625 151.6953125 C102.86199212 146.2920777 106.57187416 140.17890878 109.06640625 132.6953125 C109.13539725 130.63386143 109.15108352 128.57029849 109.12890625 126.5078125 C109.11988281 125.42113281 109.11085938 124.33445312 109.1015625 123.21484375 C109.08996094 122.38339844 109.07835937 121.55195313 109.06640625 120.6953125 C108.40640625 120.3653125 107.74640625 120.0353125 107.06640625 119.6953125 C106.339375 120.76458984 106.339375 120.76458984 105.59765625 121.85546875 C98.4762943 132.03079938 90.77948641 140.34760083 78.06640625 142.6953125 C63.5541473 143.47975893 51.85674031 142.43011103 40.58544922 132.37402344 C32.70600399 125.07940922 25.99568907 117.08748707 19.50830078 108.56054688 C16.90786113 105.19661885 14.19913801 101.92087746 11.50390625 98.6328125 C6.81088333 92.88442406 2.22831231 87.07172923 -2.2734375 81.171875 C-5.46425425 76.99029676 -8.70062385 72.84432658 -11.93359375 68.6953125 C-16.03000421 63.43446809 -20.12016488 58.16918344 -24.18359375 52.8828125 C-24.9621875 51.87089844 -25.74078125 50.85898437 -26.54296875 49.81640625 C-28.26860295 47.56349494 -29.98693546 45.30596902 -31.69921875 43.04296875 C-32.15651367 42.44137939 -32.61380859 41.83979004 -33.08496094 41.2199707 C-33.96386848 40.0634213 -34.83967998 38.9045105 -35.71191406 37.74291992 C-37.91781355 34.76009664 -37.91781355 34.76009664 -40.93359375 32.6953125 Z " fill="#06619F" transform="translate(239.93359375,8.3046875)"/>
<path d="M0 0 C1.3293457 -0.01836914 1.3293457 -0.01836914 2.68554688 -0.03710938 C15.90324766 -0.06603213 27.22973663 3.40243748 37.1328125 12.5 C47.93975694 24.23015075 50.43815862 37.07923937 49.88427734 52.48388672 C49.38285406 59.37316892 47.78540292 66.10531799 46.21728516 72.81762695 C45.65506635 75.33258453 45.18689717 77.85660648 44.71875 80.390625 C42.98358231 89.12328469 39.12046373 97.13905171 32.03515625 102.72265625 C21.03243653 109.58791398 9.09078551 111.90814781 -3.6640625 109.57421875 C-13.31729706 106.95932108 -21.27652522 102.23546638 -27.3125 94.1875 C-24.3425 91.2175 -21.3725 88.2475 -18.3125 85.1875 C-17.178125 86.095 -16.04375 87.0025 -14.875 87.9375 C-5.68954178 94.73024271 3.42414425 97.23044781 14.90625 95.78125 C24.71870981 93.69981913 32.0327192 88.4983142 37.6875 80.1875 C37.6875 79.5275 37.6875 78.8675 37.6875 78.1875 C37.0584375 78.59742188 36.429375 79.00734375 35.78125 79.4296875 C34.9253125 79.96851563 34.069375 80.50734375 33.1875 81.0625 C32.3521875 81.59617187 31.516875 82.12984375 30.65625 82.6796875 C24.19813239 85.95973144 17.86618404 86.55082989 10.75 86.5 C9.56422363 86.49480347 9.56422363 86.49480347 8.35449219 86.48950195 C2.68493927 86.38362194 -2.17004116 85.70764539 -7.3125 83.1875 C-8.488125 82.630625 -9.66375 82.07375 -10.875 81.5 C-11.679375 81.066875 -12.48375 80.63375 -13.3125 80.1875 C-11.76630182 76.7085541 -10.05204281 73.85300111 -7.3125 71.1875 C-3.30512457 70.63746808 -0.03306988 71.23392282 3.8125 72.25 C13.37261373 74.51380887 23.07826999 72.70014473 31.6875 68.1875 C34.7951106 66.45864902 34.7951106 66.45864902 36.6875 64.1875 C37.43889949 60.93143553 36.93999027 59.61563568 35.25 56.75 C27.30128755 48.80128755 17.39773182 44.0848936 6.125 43.6875 C-3.42836641 44.02707464 -11.37695611 47.64944776 -18.3125 54.1875 C-21.01378667 57.19410451 -23.51566966 60.33406899 -25.99951172 63.52148438 C-27.41656129 65.31954058 -28.86250034 67.09099938 -30.31640625 68.859375 C-36.53328685 76.4233412 -42.5823025 84.09217697 -48.50024414 91.89208984 C-52.58451799 97.26584227 -56.77034114 102.54857603 -61.00415039 107.80493164 C-64.15884148 111.72755811 -67.25823989 115.68625376 -70.3125 119.6875 C-73.47846747 123.8338961 -76.69850129 127.92387097 -79.97949219 131.97973633 C-88.74993802 141.24600669 -88.74993802 141.24600669 -93.3125 152.1875 C-92.58675781 152.47496094 -91.86101562 152.76242187 -91.11328125 153.05859375 C-89.37330454 153.75992327 -87.639953 154.47824218 -85.91796875 155.22265625 C-80.64909597 157.46128879 -76.06851836 159.08994037 -70.3125 159.1875 C-67.56535518 158.22812027 -67.56535518 158.22812027 -65.3125 156.1875 C-64.22471799 153.04303648 -64.22471799 153.04303648 -63.9375 149.375 C-63.85918945 148.7157251 -63.78087891 148.0564502 -63.70019531 147.37719727 C-63.22394994 142.68573313 -63.51311353 138.31975711 -64.0625 133.625 C-64.6268969 127.83665043 -64.6268969 127.83665043 -63.2265625 124.9453125 C-61.6875 123.25 -61.6875 123.25 -58.3125 121.1875 C-55.7421875 121.26953125 -55.7421875 121.26953125 -53.3125 122.1875 C-48.3458559 129.57903504 -48.54392913 139.61305077 -48.3125 148.1875 C-44.20761948 140.1172252 -41.89958259 132.55494172 -42.62890625 123.4375 C-42.72909058 122.17268799 -42.72909058 122.17268799 -42.83129883 120.88232422 C-42.9832543 119.19332386 -43.16584796 117.50674962 -43.3815918 115.82470703 C-43.93255518 110.0694132 -43.93255518 110.0694132 -42.13085938 107.50683594 C-39.05691125 104.75574904 -37.47231656 104.1875 -33.3125 104.1875 C-27.80646198 117.19711542 -26.71669881 129.57565563 -32 142.875 C-36.00699869 151.09373455 -42.2307436 156.09084812 -49.60546875 161.24609375 C-54.02137145 164.41305427 -58.05462889 168.01994374 -61.97265625 171.78125 C-73.47005345 182.43604835 -86.74635547 182.86887537 -101.57666016 182.37988281 C-109.34515026 181.83360669 -116.8433378 179.58099518 -123.3125 175.1875 C-125.19874578 171.41500845 -124.94951264 167.28601528 -124.3125 163.1875 C-122.71386541 160.129709 -120.62943445 157.72690356 -118.3125 155.1875 C-117.3503545 154.02397521 -116.39162947 152.8576072 -115.4375 151.6875 C-114.73625 150.8625 -114.035 150.0375 -113.3125 149.1875 C-113.93898437 148.58421875 -114.56546875 147.9809375 -115.2109375 147.359375 C-116.43683594 146.16054688 -116.43683594 146.16054688 -117.6875 144.9375 C-118.49960938 144.14859375 -119.31171875 143.3596875 -120.1484375 142.546875 C-125.55847966 136.64856189 -125.33831211 129.84201751 -125.05859375 122.13671875 C-124.31548893 114.64433948 -120.00610143 110.31761335 -115.01123047 105.05078125 C-111.86061428 101.59497459 -109.08734736 97.83829656 -106.25 94.125 C-105.05580168 92.58637417 -103.86050748 91.04859821 -102.6640625 89.51171875 C-99.80651036 85.82884876 -96.9623698 82.13592795 -94.125 78.4375 C-85.19039701 66.81087493 -76.06544679 55.35166762 -66.7890625 43.99609375 C-65.48202459 42.3951452 -64.17826644 40.79152024 -62.875 39.1875 C-61.43702818 37.42084891 -59.9931735 35.65896699 -58.54296875 33.90234375 C-56.92133319 31.92854915 -55.32435602 29.94323109 -53.73828125 27.94140625 C-45.61405947 17.82312391 -36.5800243 10.62676342 -25 4.6875 C-24.34233643 4.34871826 -23.68467285 4.00993652 -23.00708008 3.66088867 C-15.5658943 0.0338158 -8.13644098 0.00584095 0 0 Z M-41.4375 33.609375 C-43.31304083 35.88484733 -45.14865197 38.18690295 -46.97119141 40.50488281 C-49.08379154 43.15505393 -51.25727596 45.75416432 -53.42285156 48.36108398 C-59.42858237 55.59701058 -65.26311286 62.92642026 -70.95507812 70.41210938 C-73.63498459 73.91719568 -76.35121928 77.39416613 -79.0625 80.875 C-80.26172219 82.4153619 -81.46094091 83.95572651 -82.66015625 85.49609375 C-83.26230957 86.26937012 -83.86446289 87.04264648 -84.48486328 87.83935547 C-86.30236598 90.17447983 -88.11825788 92.5108471 -89.93359375 94.84765625 C-95.4204183 101.90983167 -100.91264717 108.96751304 -106.4375 116 C-107.09335083 116.8348291 -107.09335083 116.8348291 -107.76245117 117.68652344 C-110.26373499 120.8659636 -112.78109691 124.03199523 -115.3125 127.1875 C-113.94065653 131.25248881 -112.09181541 133.86146561 -109.1875 137 C-108.10082031 138.18529297 -108.10082031 138.18529297 -106.9921875 139.39453125 C-106.16074219 140.28205078 -106.16074219 140.28205078 -105.3125 141.1875 C-101.40100736 137.4256273 -97.98431931 133.44524191 -94.625 129.1875 C-94.0995459 128.52596924 -93.5740918 127.86443848 -93.03271484 127.18286133 C-88.96913762 122.05331699 -84.96879646 116.87686301 -80.9921875 111.6796875 C-77.27865623 106.83045098 -73.52151645 102.01507964 -69.76831055 97.1965332 C-66.7603232 93.33468127 -63.75577548 89.47032261 -60.76171875 85.59765625 C-20.96713943 34.16342475 -20.96713943 34.16342475 -2.3125 31.1875 C9.92941811 30.31613827 21.15938352 31.49058663 30.9453125 39.55078125 C35.59925427 43.92298215 39.27747763 48.81015703 42.6875 54.1875 C43.3475 53.8575 44.0075 53.5275 44.6875 53.1875 C45.17437226 45.19468042 44.84689101 39.12848375 40.6875 32.1875 C40.275 31.49914062 39.8625 30.81078125 39.4375 30.1015625 C31.92906957 18.96690146 20.57780817 14.93641308 7.875 12.4375 C-11.94677644 10.88285087 -28.39827102 18.74848903 -41.4375 33.609375 Z M-103.93359375 158.28515625 C-106.28467508 160.10348024 -108.27553677 162.0277261 -110.3125 164.1875 C-111.323125 164.950625 -112.33375 165.71375 -113.375 166.5 C-114.014375 167.056875 -114.65375 167.61375 -115.3125 168.1875 C-115.3125 168.8475 -115.3125 169.5075 -115.3125 170.1875 C-105.28173004 175.50380808 -96.84460812 179.88354338 -85.3125 177.1875 C-79.3563315 174.9420158 -74.34419688 172.15992615 -70.3125 167.1875 C-70.3125 166.5275 -70.3125 165.8675 -70.3125 165.1875 C-71.46105469 165.02894531 -72.60960937 164.87039063 -73.79296875 164.70703125 C-75.36248533 164.4747489 -76.93146329 164.23880944 -78.5 164 C-79.31847412 163.87705566 -80.13694824 163.75411133 -80.98022461 163.62744141 C-86.27562013 162.75221222 -90.53693364 161.36661474 -95.375 159.0625 C-99.62911881 157.16925813 -99.62911881 157.16925813 -103.93359375 158.28515625 Z " fill="#06619F" transform="translate(304.3125,209.8125)"/>
<path d="M0 0 C1.38094849 0.01305176 1.38094849 0.01305176 2.78979492 0.02636719 C12.98627625 0.24543397 21.83880263 2.19934682 30.6875 7.375 C32.57374578 11.14749155 32.32451264 15.27648472 31.6875 19.375 C30.08886541 22.432791 28.00443445 24.83559644 25.6875 27.375 C24.7253545 28.53852479 23.76662947 29.7048928 22.8125 30.875 C22.11125 31.7 21.41 32.525 20.6875 33.375 C21.39777344 34.06207031 22.10804688 34.74914063 22.83984375 35.45703125 C23.75894531 36.35808594 24.67804688 37.25914063 25.625 38.1875 C26.54152344 39.08082031 27.45804688 39.97414062 28.40234375 40.89453125 C33.09824595 45.99179261 32.83103865 53.48594993 32.59765625 60.125 C31.63171779 68.91036345 25.35945351 74.83924804 19.66308594 81.14111328 C16.48101465 84.73922899 13.60070464 88.55873917 10.6875 92.375 C9.52622901 93.87094906 8.36346417 95.36573966 7.19921875 96.859375 C4.82587477 99.91072258 2.45359881 102.96289658 0.08203125 106.015625 C-2.84446213 109.78229237 -5.77344998 113.54700594 -8.70458984 117.31005859 C-9.72643389 118.62235087 -10.74766371 119.93512182 -11.76806641 121.24853516 C-18.88351423 130.40345863 -26.17595966 139.40208852 -33.60009766 148.30859375 C-35.23154434 150.27730842 -36.84198775 152.26150461 -38.44921875 154.25 C-49.283687 167.50188811 -63.85505141 179.57728442 -81.3125 182.375 C-97.11285634 183.71646035 -112.07006311 183.64868346 -125.3125 174 C-126.67336678 172.8227622 -128.00948483 171.61596683 -129.3125 170.375 C-129.86292969 169.86453125 -130.41335937 169.3540625 -130.98046875 168.828125 C-140.59996316 158.83769893 -142.94879145 145.83611288 -142.72265625 132.56640625 C-142.39321621 125.37894568 -141.10804894 118.41737252 -139.6875 111.375 C-139.33449829 109.57011108 -139.33449829 109.57011108 -138.97436523 107.72875977 C-136.84908738 97.87037943 -133.72188042 86.92100985 -125.29296875 80.61328125 C-113.99320752 73.54814455 -102.94746138 70.43586174 -89.5703125 72.875 C-80.32811554 75.40868639 -72.74864203 80.47876749 -65.3125 86.375 C-66.72094718 89.59024305 -68.41594786 91.69683868 -70.9375 94.125 C-71.56914063 94.73859375 -72.20078125 95.3521875 -72.8515625 95.984375 C-73.33367187 96.44328125 -73.81578125 96.9021875 -74.3125 97.375 C-74.78558594 96.98828125 -75.25867188 96.6015625 -75.74609375 96.203125 C-84.70524452 89.14757546 -92.75534839 86.05096771 -104.3125 86.375 C-115.40134511 87.77456298 -122.20189084 92.4997062 -129.28125 100.859375 C-130.50001438 102.34505719 -130.50001438 102.34505719 -130.3125 104.375 C-129.6834375 103.96507813 -129.054375 103.55515625 -128.40625 103.1328125 C-127.5503125 102.59398438 -126.694375 102.05515625 -125.8125 101.5 C-124.9771875 100.96632813 -124.141875 100.43265625 -123.28125 99.8828125 C-116.89515959 96.63935079 -110.54537447 95.98633735 -103.5 96 C-102.71608887 96.00016113 -101.93217773 96.00032227 -101.12451172 96.00048828 C-92.94262578 96.16058698 -86.52850637 98.71757211 -79.3125 102.375 C-80.99728928 106.16577588 -83.09497568 110.45673002 -87.0859375 112.109375 C-90.04197465 112.46202505 -92.21064277 111.76867601 -95.0625 110.9375 C-105.75504125 108.15150614 -114.39199596 109.54011909 -124.41015625 114.390625 C-127.38051327 116.22976497 -129.13390851 118.07494383 -130.3125 121.375 C-125.35485847 129.75170465 -117.10805374 135.26377036 -107.75 137.9375 C-98.50366594 139.59709842 -89.61337471 138.9286936 -81.3125 134.375 C-73.29778066 128.72120574 -67.55227624 120.94710662 -61.70361328 113.20556641 C-59.44421187 110.23241937 -57.1262194 107.30593069 -54.8125 104.375 C-53.8955385 103.20856505 -52.97887207 102.04189808 -52.0625 100.875 C-46.5625 93.875 -46.5625 93.875 -45.18823242 92.12597656 C-44.26906687 90.95609984 -43.34995905 89.78617777 -42.4309082 88.61621094 C-40.17793906 85.74828843 -37.92406277 82.8810901 -35.66796875 80.015625 C-29.94946987 72.74948311 -24.26555164 65.45746298 -18.60131836 58.14892578 C-15.70492979 54.42003033 -12.78964341 50.70946739 -9.82421875 47.03515625 C-8.99942017 46.0131311 -8.99942017 46.0131311 -8.15795898 44.97045898 C-7.12315586 43.69243357 -6.08509644 42.41703525 -5.04321289 41.14477539 C-2.77595162 38.34710522 -0.72348687 35.7055853 0.6875 32.375 C-5.33832871 26.75089321 -12.25001232 24.125 -20.4375 24.125 C-22.06341314 24.1880548 -23.68916221 24.26389703 -25.3125 24.375 C-27.89369768 28.89903465 -28.78036505 32.43805738 -29.0625 37.625 C-29.13597656 38.93855469 -29.20945312 40.25210938 -29.28515625 41.60546875 C-29.30878108 44.86232036 -29.03857825 47.73999487 -28.5 50.9375 C-28.13622518 53.69113721 -28.05202993 54.90260626 -29.40234375 57.3515625 C-31.0045093 59.13718212 -32.13565356 60.35141901 -34.3125 61.375 C-36.8828125 61.30859375 -36.8828125 61.30859375 -39.3125 60.375 C-44.2791441 52.98346496 -44.08107087 42.94944923 -44.3125 34.375 C-48.40630663 42.42350333 -50.7644452 49.99363219 -49.9609375 59.08984375 C-49.8539856 60.34788818 -49.8539856 60.34788818 -49.74487305 61.63134766 C-49.5842521 63.30801894 -49.38888 64.98179933 -49.15551758 66.64990234 C-48.80150567 70.1812894 -48.58099007 72.39066519 -50.75634766 75.31787109 C-52.56076423 76.96381406 -54.11470274 78.30438347 -56.3125 79.375 C-59.3125 78.375 -59.3125 78.375 -60.4453125 76.29296875 C-65.24189957 63.0929122 -65.60375882 50.97773287 -59.625 38.125 C-54.99349923 29.49660313 -49.32726386 25.27209402 -41.07421875 20.26171875 C-38.25616646 18.33651471 -36.09185838 16.28699461 -33.75 13.8125 C-24.42348938 4.05374468 -13.3441095 -0.21043246 0 0 Z M-20.4375 13.0625 C-22.52243399 15.13773086 -22.52243399 15.13773086 -22.3125 17.375 C-21.21292969 17.54515625 -20.11335938 17.7153125 -18.98046875 17.890625 C-11.1963157 19.14786843 -3.86022881 20.53149288 3.48828125 23.5078125 C4.57689453 23.93707031 4.57689453 23.93707031 5.6875 24.375 C6.33976562 24.66761719 6.99203125 24.96023437 7.6640625 25.26171875 C9.92348457 25.60234206 9.92348457 25.60234206 12.16015625 23.57421875 C13.01480469 22.74535156 13.86945313 21.91648437 14.75 21.0625 C17.35281602 18.56927623 19.68382164 16.37745224 22.6875 14.375 C22.6875 13.715 22.6875 13.055 22.6875 12.375 C20.77338443 11.39085567 18.8561033 10.41286651 16.9375 9.4375 C15.87015625 8.89222656 14.8028125 8.34695312 13.703125 7.78515625 C2.14981257 2.3826358 -11.14470579 4.36506586 -20.4375 13.0625 Z M11.6875 41.375 C5.96509921 47.87950569 0.7471235 54.8432463 -4.51171875 61.72265625 C-7.75338419 65.95976596 -11.03362137 70.16666505 -14.3125 74.375 C-18.39166625 79.61237373 -22.46029301 84.85713063 -26.5 90.125 C-51.80467092 123.05404246 -51.80467092 123.05404246 -64.3125 136.375 C-65.30830078 137.46748047 -65.30830078 137.46748047 -66.32421875 138.58203125 C-73.83994365 146.54072619 -82.3677186 151.09324206 -93.42578125 151.7109375 C-105.8230743 151.97622937 -115.89662004 150.04588726 -125.3125 141.375 C-129.18423073 137.39547167 -132.34473064 133.05494398 -135.3125 128.375 C-136.3025 128.87 -136.3025 128.87 -137.3125 129.375 C-137.98797128 140.46398686 -135.91911387 147.82655806 -129 156.52734375 C-120.91018296 165.38494435 -109.28941754 169.66333894 -97.50390625 170.59765625 C-81.29978492 171.08230487 -67.43568918 164.94039527 -55.68701172 153.90283203 C-51.07103757 149.35672785 -47.13416 144.34117263 -43.23046875 139.18359375 C-40.02683214 134.9567424 -36.64189226 130.88870139 -33.25 126.8125 C-28.27682048 120.8112661 -23.44286343 114.73275797 -18.72265625 108.53125 C-16.19870899 105.22598357 -13.63731154 101.95313729 -11.0625 98.6875 C-4.99591467 90.98517707 1.02598221 83.24852669 7.03466797 75.50097656 C8.57096897 73.52488955 10.11429093 71.55454539 11.66015625 69.5859375 C12.54436466 68.45319824 13.42848548 67.32039059 14.3125 66.1875 C15.06789062 65.22457031 15.82328125 64.26164062 16.6015625 63.26953125 C18.90418407 60.07432042 20.7894244 56.82331381 22.6875 53.375 C21.04517739 51.37202215 19.39888756 49.37256092 17.75 47.375 C17.28142578 46.80265625 16.81285156 46.2303125 16.33007812 45.640625 C15.13815672 44.20002935 13.91517412 42.78525129 12.6875 41.375 C12.3575 41.375 12.0275 41.375 11.6875 41.375 Z " fill="#06619F" transform="translate(142.3125,-0.375)"/>
<path d="M0 0 C9.9 0 19.8 0 30 0 C24 8 24 8 23 9 C21.30954221 21.48600761 21.88613791 34.30970019 21.9375 46.875 C21.94252657 49.02734271 21.94708742 51.17968655 21.95117188 53.33203125 C21.9620823 58.55471278 21.97872815 63.77735092 22 69 C23.6172889 68.05670685 25.23123953 67.10768856 26.84375 66.15625 C27.74287109 65.62837891 28.64199219 65.10050781 29.56835938 64.55664062 C34.61447129 61.32631838 36.43149687 57.62815829 38 52 C39.06000194 40.42486046 39.06000194 40.42486046 35.55078125 29.671875 C32.82119379 26.72914595 29.54584905 24.63953507 26.14453125 22.54296875 C24 21 24 21 23 18 C25 16 25 16 27.9375 15.625 C36.5591914 15.91238971 44.8393415 20.1299386 51 26 C56.94840037 33.62615432 56.80800518 41.66516368 56 51 C53.8432007 58.97489691 48.92223896 63.78597466 42 68 C39.06090372 69.522032 36.08731615 70.81165201 33 72 C31.989375 72.4125 30.97875 72.825 29.9375 73.25 C28.9784375 73.62125 28.9784375 73.62125 28 74 C29.98 74.66 31.96 75.32 34 76 C34 76.33 34 76.66 34 77 C29.46102295 77.02465392 24.92208457 77.04283789 20.38305664 77.05493164 C18.83780234 77.0599714 17.29255284 77.0668032 15.74731445 77.07543945 C13.53074971 77.08752076 11.31424782 77.09323173 9.09765625 77.09765625 C8.05545677 77.10539818 8.05545677 77.10539818 6.99220276 77.11329651 C5.3277067 77.11349277 3.66334501 77.06189129 2 77 C1.67 76.67 1.34 76.34 1 76 C1.23720704 74.38286328 1.47790059 72.76618252 1.7333374 71.15182495 C2.24100212 67.05524141 2.14188376 62.93866331 2.1328125 58.81640625 C2.13424759 57.35665627 2.13424759 57.35665627 2.13571167 55.86741638 C2.13639009 53.81078018 2.13455943 51.75414181 2.13037109 49.69750977 C2.12507046 46.60362723 2.13030043 43.50989337 2.13671875 40.41601562 C2.14190532 26.84289536 1.92263234 13.45842641 0 0 Z " fill="#06619F" transform="translate(178,116)"/>
<path d="M0 0 C5.94 0 11.88 0 18 0 C18.06731323 2.83742798 18.06731323 2.83742798 18.13598633 5.73217773 C18.2881988 12.01091066 18.45324215 18.28920592 18.62686634 24.56738186 C18.73158069 28.37054716 18.83128244 32.17370107 18.91918945 35.97729492 C19.00435589 39.65407695 19.10313226 43.33027294 19.21100426 47.00645638 C19.24965122 48.40280877 19.28355003 49.79930164 19.31241798 51.19589043 C19.39512913 64.59103439 19.39512913 64.59103439 25.6875 75.875 C26.450625 76.57625 27.21375 77.2775 28 78 C28 78.99 28 79.98 28 81 C18.30316071 81.19222809 8.67297906 80.58503199 -1 80 C-1.09358904 63.80259689 -0.81829463 47.6122944 -0.53643799 31.41809082 C-0.47493378 27.86403364 -0.41529069 24.3099452 -0.35546875 20.75585938 C-0.23875166 13.8372086 -0.11987431 6.91859679 0 0 Z " fill="#06629F" transform="translate(181,198)"/>
<path d="M0 0 C5.94479629 -0.07401579 11.88932593 -0.12853813 17.83447266 -0.16479492 C19.85795766 -0.17990526 21.8814098 -0.20039437 23.90478516 -0.22631836 C26.80900165 -0.26260328 29.71278615 -0.27970355 32.6171875 -0.29296875 C33.52556366 -0.30845261 34.43393982 -0.32393646 35.36984253 -0.33988953 C36.21056305 -0.34011612 37.05128357 -0.34034271 37.91748047 -0.34057617 C39.03000687 -0.35056892 39.03000687 -0.35056892 40.16500854 -0.36076355 C40.77055573 -0.24171158 41.37610291 -0.12265961 42 0 C42.66 0.99 43.32 1.98 44 3 C40 5 40 5 23 5 C23 22.16 23 39.32 23 57 C29.27 57 35.54 57 42 57 C42.99 57.33 43.98 57.66 45 58 C44.67 59.32 44.34 60.64 44 62 C39.52122488 62.33873468 35.04192703 62.67000737 30.5625 63 C29.30244141 63.09539062 28.04238281 63.19078125 26.74414062 63.2890625 C25.50986328 63.37929687 24.27558594 63.46953125 23.00390625 63.5625 C21.87799072 63.64628906 20.7520752 63.73007813 19.59204102 63.81640625 C15.38968826 64.0311938 11.20655503 64.03756152 7 64 C6.99413376 63.36408432 6.98826752 62.72816864 6.98222351 62.07298279 C6.91815098 55.43760751 6.83369533 48.80271101 6.73754883 42.16772461 C6.70435196 39.69350508 6.67630382 37.21921078 6.65356445 34.74487305 C6.61992299 31.18245666 6.56760013 27.62072228 6.51171875 24.05859375 C6.50532883 22.95728622 6.4989389 21.8559787 6.49235535 20.72129822 C6.36554345 14.05497975 6.07117007 8.29866415 1.3125 3.1875 C0.6628125 2.5996875 0.6628125 2.5996875 0 2 C0 1.34 0 0.68 0 0 Z " fill="#065FA1" transform="translate(129,130)"/>
<path d="M0 0 C4.62 0 9.24 0 14 0 C14.75818804 6.15068533 15.17700347 12.18934677 15.28125 18.3828125 C15.30886414 19.67057083 15.30886414 19.67057083 15.33703613 20.98434448 C15.41481955 24.61493931 15.48330331 28.245693 15.55224609 31.87646484 C15.6042959 34.54533057 15.66139451 37.21405634 15.71875 39.8828125 C15.73232544 40.69340118 15.74590088 41.50398987 15.7598877 42.33914185 C15.63996929 50.42890633 15.63996929 50.42890633 18.1484375 57.84375 C21.75043759 60.09310027 26.04562702 60.3925666 30.1640625 61.15625 C31.09992188 61.4346875 32.03578125 61.713125 33 62 C33.33 62.99 33.66 63.98 34 65 C29.04657734 65.99550706 24.34489309 66.13097403 19.3203125 66.09765625 C18.50754852 66.0962413 17.69478455 66.09482635 16.85739136 66.09336853 C14.27988899 66.08780335 11.7024758 66.0752574 9.125 66.0625 C7.36979293 66.0574805 5.61458448 66.05291838 3.859375 66.04882812 C-0.42711732 66.03784534 -4.71354357 66.02060492 -9 66 C-7.92209298 63.76127004 -6.79386963 61.67967321 -5.44702148 59.58666992 C-0.72654155 51.14842378 -1.63700571 39.57439266 -1.4375 30.1875 C-1.36644042 27.5429182 -1.29354433 24.89838506 -1.21875 22.25390625 C-1.16654297 20.37662842 -1.16654297 20.37662842 -1.11328125 18.46142578 C-0.91132823 12.29054224 -0.47872523 6.15503865 0 0 Z " fill="#06619F" transform="translate(137,198)"/>
<path d="M0 0 C11.71344398 -0.52318112 20.91353516 -0.44023928 30.375 7.375 C36.14909375 12.83477816 39.57163375 18.51709739 40.3359375 26.515625 C40.44493193 36.93549253 39.23324799 45.52769749 31.8828125 53.33984375 C23.69445211 60.55987106 14.39722975 64.88042736 3.4375 65.375 C1.7359375 65.189375 1.7359375 65.189375 0 65 C-0.66 64.01 -1.32 63.02 -2 62 C1.24712236 59.72701435 4.30468297 57.83625929 7.9375 56.25 C14.0870463 53.22234981 18.4330091 48.1790563 20.9375 41.8125 C23.52366358 32.3461654 22.70474221 23.43709239 18.5390625 14.59375 C14.27694642 7.41089447 7.39242782 4.36154665 0 1 C0 0.67 0 0.34 0 0 Z " fill="#06619F" transform="translate(204,199)"/>
<path d="M0 0 C0.66 0 1.32 0 2 0 C2 4.62 2 9.24 2 14 C-4 16 -4 16 -8 16 C-7.37109247 12.54886992 -6.00848374 10.29089877 -4 7.4375 C-2.19972845 4.87124752 -0.99823137 2.99469411 0 0 Z " fill="#0660A0" transform="translate(173,263)"/>
<path d="M0 0 C1.66611905 -0.042721 3.33382885 -0.04063832 5 0 C6 1 6 1 6.0625 3.5625 C6.041875 4.366875 6.02125 5.17125 6 6 C3.37812506 4.95125002 2.20628639 4.35068687 0.75 1.875 C0.5025 1.25625 0.255 0.6375 0 0 Z " fill="#07619F" transform="translate(168,116)"/>
</svg>
