<?xml version="1.0" standalone="no"?>
<!DOCTYPE svg PUBLIC "-//W3C//DTD SVG 20010904//EN"
 "http://www.w3.org/TR/2001/REC-SVG-20010904/DTD/svg10.dtd">
<svg version="1.0" xmlns="http://www.w3.org/2000/svg"
 width="1024.000000pt" height="1024.000000pt" viewBox="0 0 1024.000000 1024.000000"
 preserveAspectRatio="xMidYMid meet">

<g transform="translate(0.000000,1024.000000) scale(0.100000,-0.100000)"
fill="#000000" stroke="none">
<path d="M5043 8888 c-150 -128 -330 -310 -386 -390 -79 -111 -157 -288 -157
-357 0 -22 -6 -16 -40 36 -85 129 -185 190 -273 163 -43 -13 -107 -70 -107
-96 0 -22 -10 -17 -63 28 -122 102 -292 181 -464 214 -113 22 -333 25 -356 5
-21 -17 -22 -53 -2 -92 13 -25 15 -67 13 -254 l-3 -224 -65 -27 c-169 -71
-369 -187 -480 -278 -219 -181 -397 -418 -465 -619 l-29 -86 -99 -35 c-131
-46 -197 -86 -283 -172 -128 -127 -180 -280 -155 -452 l12 -79 -36 -69 c-100
-198 -101 -431 -2 -677 37 -92 115 -213 171 -267 20 -19 48 -53 61 -76 47 -80
147 -146 242 -159 42 -5 52 -11 57 -29 17 -69 112 -158 205 -192 25 -10 47
-19 49 -20 2 -1 -4 -25 -14 -53 -20 -64 -15 -140 14 -200 l21 -43 -85 -110
c-154 -198 -193 -271 -215 -409 -41 -243 132 -476 385 -520 255 -44 483 106
542 358 37 157 -10 311 -163 535 l-74 109 20 25 c11 14 27 49 37 77 9 29 17
53 18 54 1 1 28 -11 60 -27 61 -31 113 -38 147 -19 16 8 37 2 113 -36 l94 -46
-16 -32 c-26 -52 -22 -134 11 -189 15 -26 37 -52 47 -58 19 -10 19 -13 5 -40
-18 -34 -20 -119 -4 -154 10 -21 7 -30 -21 -71 -43 -62 -51 -141 -23 -206 l20
-44 -45 -29 c-89 -58 -141 -160 -141 -278 -1 -98 25 -170 84 -236 l45 -50 -28
-7 c-79 -20 -201 -115 -261 -204 -96 -143 -123 -294 -81 -457 25 -96 68 -171
140 -245 104 -105 239 -161 389 -161 155 1 282 53 391 162 136 135 184 302
144 498 -32 155 -121 283 -251 361 -54 32 -62 40 -45 45 30 10 107 97 139 157
24 48 28 65 28 144 0 78 -4 97 -28 147 -17 34 -50 77 -82 106 l-54 50 19 38
c29 55 25 110 -10 180 -27 55 -28 59 -12 77 11 13 18 41 20 91 3 60 0 80 -18
115 -31 62 -14 162 25 147 11 -4 15 -12 11 -23 -33 -85 -5 -187 77 -278 63
-72 129 -105 208 -105 44 0 60 -4 75 -21 66 -73 200 -71 282 4 l22 20 23 -20
c39 -36 170 -101 247 -123 41 -12 119 -24 173 -27 54 -3 94 -9 90 -13 -4 -4
-38 -12 -75 -19 -198 -34 -398 -137 -527 -270 -149 -154 -218 -300 -241 -511
-32 -291 74 -585 310 -857 164 -190 383 -356 732 -556 81 -46 91 -43 337 115
494 318 732 595 832 968 30 111 34 360 7 455 -29 107 -58 173 -109 251 -133
203 -362 350 -628 401 -50 10 -91 21 -91 24 0 3 40 9 88 12 49 3 117 13 153
22 75 19 218 84 266 121 l33 25 37 -30 c82 -64 189 -61 268 9 13 12 43 19 88
23 114 8 206 78 260 196 17 38 19 58 14 128 -6 81 -6 83 16 83 20 0 25 -8 34
-55 11 -50 10 -59 -9 -91 -30 -51 -35 -148 -10 -197 l20 -38 -26 -47 c-33 -58
-36 -137 -8 -195 l19 -38 -24 -17 c-103 -72 -160 -207 -140 -332 13 -77 42
-132 109 -202 30 -32 53 -60 51 -61 -2 -2 -34 -24 -71 -50 -83 -59 -130 -113
-174 -202 -97 -198 -80 -418 44 -575 117 -147 266 -220 446 -220 157 0 278 50
388 160 119 119 172 278 151 448 -26 209 -148 372 -335 448 l-47 19 33 27 c18
14 48 57 67 94 32 63 34 74 34 163 0 82 -4 104 -25 146 -26 53 -121 155 -145
155 -19 0 -19 9 1 50 35 68 13 182 -45 234 -15 14 -18 22 -10 32 20 24 23 119
5 155 -16 32 -16 33 13 63 58 60 77 149 46 223 -8 19 -15 38 -15 42 0 3 21 15
48 25 26 11 64 30 85 43 34 21 42 23 73 13 46 -15 96 -6 160 30 l52 29 6 -37
c3 -21 19 -59 36 -86 l31 -48 -39 -52 c-62 -83 -132 -200 -163 -275 -127 -304
31 -616 341 -672 203 -36 418 68 505 244 95 193 60 389 -110 612 -38 50 -86
112 -106 138 l-36 49 20 41 c28 57 33 143 13 203 -9 26 -16 48 -16 50 0 1 27
12 61 24 75 29 160 103 185 164 18 42 20 43 82 56 76 15 167 72 211 132 17 23
31 46 31 51 0 5 27 39 61 75 71 78 144 219 186 357 24 79 27 108 27 230 1 153
-12 213 -75 337 -29 57 -29 60 -18 125 34 193 -48 401 -202 518 -67 50 -196
115 -269 136 -56 15 -62 21 -85 89 -124 370 -486 718 -945 909 l-75 31 0 227
c0 198 2 232 18 260 22 42 22 56 -4 79 -18 17 -36 19 -138 18 -250 -3 -463
-71 -641 -205 -44 -33 -80 -65 -80 -70 0 -5 -4 -9 -10 -9 -5 0 -10 8 -10 18 0
27 -47 90 -80 107 -36 19 -100 19 -143 1 -39 -16 -115 -98 -160 -172 -17 -29
-34 -54 -37 -54 -3 0 -11 30 -18 66 -30 158 -117 302 -283 471 -88 89 -316
292 -356 316 -7 5 -54 -28 -120 -85z m129 -156 c2 -4 50 -48 107 -97 129 -112
219 -218 270 -315 61 -116 75 -177 76 -315 0 -130 -11 -181 -67 -310 -27 -61
-178 -335 -214 -389 -13 -19 -14 -19 -21 2 -4 11 -12 21 -17 21 -5 -1 -17 12
-26 27 l-18 27 63 93 c104 152 165 292 186 427 33 211 -44 418 -226 604 -73
75 -75 76 -59 38 34 -81 94 -277 109 -356 41 -217 -8 -434 -147 -652 l-31 -49
-35 54 c-49 77 -99 189 -128 287 -30 103 -34 264 -10 376 14 69 77 262 110
339 9 22 15 41 13 43 -8 8 -145 -147 -191 -216 -182 -273 -155 -572 80 -912
l56 -81 -33 -48 -33 -48 -33 50 c-18 27 -33 52 -33 55 0 2 -14 24 -30 48 -45
66 -135 250 -164 335 -88 266 -33 509 167 730 54 60 255 240 267 240 5 0 10
-3 12 -8z m-1577 -451 c257 -72 439 -231 490 -426 15 -60 20 -249 7 -291 -8
-24 -58 -28 -84 -7 -8 7 -18 10 -21 6 -4 -3 -7 1 -7 10 0 24 -74 163 -120 223
-38 51 -215 214 -232 214 -4 0 14 -30 41 -67 66 -91 124 -202 155 -295 35
-103 32 -116 -9 -38 -19 36 -34 61 -35 57 0 -4 7 -22 17 -40 14 -28 14 -30 0
-19 -11 9 -17 10 -22 2 -5 -8 -11 -8 -19 -1 -7 6 -16 8 -20 4 -9 -9 -34 -15
-72 -16 -22 0 -30 -5 -27 -14 19 -49 -60 34 -122 127 -76 117 -117 249 -130
420 -3 47 -8 107 -11 134 l-4 49 77 -6 c43 -4 110 -15 148 -26z m3338 -73
c-10 -230 -48 -382 -126 -499 -38 -58 -134 -156 -124 -127 3 10 1 20 -5 24 -6
4 -8 3 -5 -3 4 -6 0 -16 -8 -23 -13 -11 -14 -10 -9 5 5 12 4 16 -4 11 -6 -3
-13 -2 -16 3 -4 5 -22 8 -41 7 -21 -2 -35 1 -35 8 0 6 -5 4 -10 -4 -7 -11 -10
-11 -10 -2 0 24 -31 -3 -50 -44 -31 -66 -23 -8 13 96 38 110 84 196 156 293
l52 69 -48 -34 c-125 -88 -253 -241 -304 -363 -15 -37 -28 -55 -40 -55 -10 0
-21 -4 -24 -10 -3 -5 -17 -10 -30 -10 -13 0 -25 -6 -28 -12 -8 -24 -22 87 -21
172 2 222 124 401 349 511 101 49 243 87 331 88 l41 1 -4 -102z m-831 40 c21
-18 27 -39 17 -65 -7 -18 -15 -22 -46 -20 -36 2 -38 4 -41 37 -5 49 34 76 70
48z m-1828 -14 c32 -31 5 -94 -32 -75 -9 4 -23 6 -29 4 -21 -8 -16 64 5 76 24
15 38 13 56 -5z m39 -270 c237 -120 428 -337 482 -549 32 -125 10 -341 -48
-475 l-15 -35 -10 25 c-5 14 -15 52 -22 85 -15 78 -83 316 -117 408 -28 79
-82 191 -108 222 -9 11 -5 -2 9 -30 52 -109 116 -365 116 -470 0 -42 -3 -56
-10 -45 -5 8 -10 10 -10 4 0 -6 -7 -11 -15 -11 -9 0 -14 6 -11 12 2 6 -2 12
-10 12 -8 0 -14 -4 -14 -9 0 -5 -5 -6 -11 -2 -7 4 -10 1 -7 -7 3 -8 11 -13 17
-12 13 4 15 -4 2 -11 -5 -4 -34 27 -64 66 -129 173 -167 289 -182 561 -3 60
-12 145 -20 190 -17 93 -17 97 -10 97 3 0 29 -12 58 -26z m1747 14 c0 -7 -5
-40 -10 -73 -5 -33 -14 -132 -20 -221 -15 -240 -54 -363 -167 -521 -46 -65
-56 -75 -47 -45 5 14 3 14 -11 -3 -14 -17 -17 -18 -25 -5 -8 13 -10 12 -10 -2
0 -21 -26 -24 -33 -5 -3 6 -6 0 -6 -15 -1 -16 -6 -28 -12 -28 -7 0 -9 20 -4
63 16 155 39 261 84 394 27 79 47 143 45 143 -8 0 -62 -118 -107 -231 -42
-105 -84 -247 -132 -448 l-18 -73 -22 48 c-63 140 -77 329 -36 481 53 193 236
402 455 519 68 37 76 40 76 22z m-2808 -288 c9 -30 19 -62 22 -70 5 -12 -11
-20 -73 -36 l-80 -20 -6 24 c-7 29 -34 72 -45 72 -4 0 -4 -19 1 -42 6 -23 8
-47 5 -54 -3 -7 -33 -27 -67 -45 l-62 -31 -24 31 c-33 41 -42 39 -36 -9 4 -30
2 -40 -8 -41 -10 0 -9 -2 2 -7 13 -5 1 -19 -52 -59 -38 -29 -69 -49 -69 -43 0
16 -35 29 -51 19 -10 -7 -11 -11 -2 -17 18 -12 8 -60 -19 -90 -14 -15 -46 -57
-71 -93 -46 -65 -73 -83 -73 -48 0 14 4 15 18 8 10 -5 18 -8 18 -5 0 2 3 12 7
22 5 12 3 15 -6 9 -10 -6 -11 -3 -1 14 6 12 15 19 20 16 5 -3 11 4 15 15 4 11
10 18 15 15 4 -3 10 2 14 10 3 8 1 17 -4 20 -6 4 -10 1 -10 -6 0 -7 -3 -10 -6
-6 -3 3 -3 11 1 17 5 8 11 7 23 -2 13 -11 15 -10 9 4 -3 10 1 24 10 33 25 26
8 27 -19 2 -43 -40 -156 -195 -182 -251 -56 -119 -79 -206 -84 -324 -4 -111
-5 -112 -31 -118 -34 -8 -62 -14 -83 -20 -15 -5 -18 1 -18 35 0 197 91 440
237 635 113 151 298 301 494 400 118 60 241 108 250 98 3 -4 13 -32 21 -62z
m3955 19 c138 -59 175 -79 303 -167 336 -232 522 -531 547 -876 6 -85 5 -89
-13 -81 -10 4 -40 13 -67 19 l-47 11 -4 115 c-3 126 -21 192 -89 325 -48 95
-137 215 -161 215 -11 0 -16 5 -13 14 3 7 -8 26 -24 42 -16 15 -29 34 -29 41
0 7 -5 13 -12 13 -6 0 -21 8 -32 18 -13 10 -16 11 -9 2 9 -11 8 -19 -2 -33
-12 -16 -13 -16 -29 5 -9 13 -14 16 -10 8 7 -13 5 -13 -9 -1 -9 7 -14 18 -10
24 4 6 1 7 -6 2 -8 -4 -21 1 -32 14 -11 12 -24 21 -30 21 -6 0 -7 4 -4 10 3 5
1 19 -6 31 -8 17 -8 20 1 14 9 -5 10 -1 5 14 -4 13 -1 29 7 39 12 16 11 16
-12 1 -14 -9 -30 -26 -36 -38 -17 -34 -18 -34 -89 5 -49 27 -63 39 -53 46 11
8 11 10 0 15 -10 4 -10 7 1 17 9 7 12 20 7 36 -6 25 -7 24 -36 -17 -16 -23
-33 -42 -37 -43 -5 0 -5 5 -1 11 5 9 -1 10 -19 5 -14 -3 -47 -1 -72 6 -39 11
-45 15 -40 33 3 11 11 46 17 78 6 31 15 57 19 57 5 0 61 -23 126 -51z m-3208
-249 c92 -26 211 -84 262 -128 43 -37 74 -93 65 -117 -3 -9 -2 -14 2 -11 4 3
8 -11 8 -30 0 -20 6 -39 13 -43 6 -4 11 -12 9 -17 -2 -5 17 -27 41 -49 53 -47
101 -96 101 -102 0 -3 -21 11 -47 31 -78 59 -251 153 -360 196 -156 61 -373
107 -373 78 0 -10 -3 -9 -10 2 -8 12 -10 10 -10 -9 0 -13 3 -22 6 -18 4 3 13
0 21 -8 22 -22 31 -18 27 13 -4 27 -3 27 4 2 5 -15 4 -32 -2 -42 -10 -17 -11
-17 -17 0 -6 15 -7 15 -11 -3 -5 -18 -6 -18 -7 3 -1 12 -7 22 -16 22 -10 0
-15 -9 -14 -27 l1 -28 8 25 c7 23 8 22 9 -10 1 -26 4 -31 11 -20 8 13 10 12
10 -3 0 -10 8 -20 18 -23 9 -4 31 -12 47 -19 17 -7 70 -29 119 -49 162 -67
294 -143 341 -196 l20 -23 -33 17 c-18 9 -38 14 -44 10 -6 -4 -8 -3 -5 2 3 6
-14 22 -38 36 -37 23 -44 24 -49 11 -4 -9 -4 -18 -1 -21 3 -3 5 0 5 6 0 7 5
12 11 12 5 0 7 -4 4 -10 -3 -6 1 -7 10 -4 11 5 14 2 9 -9 -3 -9 -11 -13 -19
-11 -8 3 -17 -7 -24 -27 -14 -40 -14 -59 0 -39 9 12 10 11 6 -8 -3 -12 -1 -20
3 -17 5 3 11 -3 13 -12 2 -10 3 -6 1 8 -2 15 -6 38 -10 53 -4 17 -2 26 6 26 6
0 9 -4 6 -8 -3 -5 1 -33 9 -62 8 -30 12 -56 10 -59 -3 -2 -5 2 -5 10 0 12 -2
12 -9 0 -7 -11 -10 -9 -16 7 -5 18 -9 19 -20 9 -7 -6 -11 -16 -8 -21 3 -4 10
-2 15 5 8 11 9 10 5 -2 -3 -9 0 -22 6 -28 8 -8 8 -11 -1 -11 -7 0 -12 5 -12
10 0 6 -7 10 -15 10 -8 0 -15 -7 -15 -16 0 -8 -4 -12 -10 -9 -6 3 -7 -1 -4
-10 5 -11 2 -14 -12 -9 -18 5 -18 5 -1 -6 10 -7 17 -24 17 -43 0 -24 3 -28 10
-17 5 8 10 11 10 5 0 -5 12 -11 27 -12 71 -4 133 -16 133 -25 0 -7 -46 -9
-142 -5 -111 4 -157 10 -208 27 -228 77 -378 193 -557 431 -39 52 -96 119
-126 149 -30 30 -53 59 -50 66 16 44 260 171 378 198 110 25 113 25 255 21 99
-3 155 -9 209 -25z m2714 15 c140 -24 289 -91 398 -177 l51 -40 -50 -52 c-27
-28 -88 -100 -134 -161 -125 -161 -262 -289 -375 -348 -154 -80 -218 -98 -370
-104 -131 -6 -181 0 -155 16 7 4 43 9 80 10 37 1 69 7 71 13 2 6 7 5 12 -3 7
-11 9 -10 9 4 0 9 -4 17 -9 17 -4 0 -14 20 -21 45 -7 25 -19 45 -26 45 -7 0
-11 6 -8 14 7 18 54 -3 54 -24 0 -13 -1 -13 -10 0 -11 17 -13 6 -4 -27 3 -11
14 -23 23 -26 16 -4 17 0 2 60 -9 35 -17 55 -19 44 -2 -12 -7 -21 -12 -21 -5
0 -3 20 4 45 8 25 10 42 5 39 -5 -3 -9 -12 -9 -20 0 -8 -9 -14 -22 -13 -20 0
-21 1 -5 8 17 6 16 8 -7 20 -14 8 -23 18 -20 23 3 5 12 1 20 -9 13 -17 15 -17
27 -1 8 10 17 15 21 11 4 -4 4 1 0 11 -5 13 -9 15 -15 5 -5 -8 -7 2 -6 24 1
25 7 37 17 38 8 0 10 3 4 5 -6 3 -34 -6 -63 -18 -36 -17 -50 -27 -45 -38 4
-12 3 -12 -7 -3 -9 9 -22 5 -58 -18 l-46 -30 55 51 c58 54 219 142 365 200 44
17 83 36 86 42 3 5 9 9 13 9 32 -4 35 0 33 53 -2 30 1 50 5 43 5 -7 8 -2 9 13
0 23 1 23 9 5 8 -19 9 -19 9 3 1 25 -3 26 -85 12 -227 -40 -485 -151 -654
-283 l-65 -51 40 45 c22 25 57 60 77 78 21 18 36 37 33 41 -3 4 3 7 13 6 14
-1 17 8 17 54 1 102 67 183 200 245 170 80 349 103 538 70z m937 -190 c-7 -9
-6 -16 5 -25 8 -7 15 -9 15 -6 0 4 9 2 20 -4 11 -6 20 -15 20 -21 0 -9 8 -21
38 -54 6 -7 12 -18 12 -23 0 -6 7 -12 15 -16 8 -3 15 -14 15 -24 0 -10 5 -23
11 -29 6 -6 12 -28 14 -50 1 -22 8 -50 14 -61 6 -11 11 -26 11 -33 0 -7 -20
26 -44 73 -49 97 -74 134 -158 230 -62 70 -70 85 -39 68 26 -14 38 -13 23 2
-24 24 -12 31 13 8 17 -16 22 -27 15 -35z m-5049 -68 c-10 -9 -11 -8 -5 6 3
10 9 15 12 12 3 -3 0 -11 -7 -18z m3901 -19 c-8 -8 -9 -4 -5 13 4 13 8 18 11
10 2 -7 -1 -18 -6 -23z m58 -5 c0 -22 -2 -25 -10 -13 -8 12 -10 12 -10 1 0 -8
-3 -12 -6 -9 -5 5 16 48 23 48 2 0 3 -12 3 -27z m-1278 -158 c98 -144 189
-329 220 -445 30 -111 32 -322 4 -450 -36 -171 -106 -336 -199 -475 l-44 -66
-2 56 c0 30 8 88 19 128 43 158 44 285 2 365 -19 36 -19 37 0 63 29 39 40 103
27 151 -15 58 -36 86 -80 109 -70 35 -141 21 -193 -41 -53 -64 -58 -145 -11
-214 l24 -36 -25 -55 c-43 -94 -33 -234 31 -416 29 -83 28 -79 16 -79 -5 0
-16 15 -25 33 -8 17 -16 25 -16 17 0 -8 7 -28 15 -43 10 -21 11 -27 2 -24 -19
6 -124 189 -164 285 -179 434 -114 800 221 1245 l51 68 23 -28 c13 -15 60 -82
104 -148z m-1485 143 c-3 -8 -6 -5 -6 6 -1 11 2 17 5 13 3 -3 4 -12 1 -19z
m-864 -57 c54 -38 127 -114 212 -221 l68 -85 -149 -6 c-139 -6 -265 -27 -288
-49 -5 -5 4 -25 21 -47 72 -92 125 -183 230 -396 62 -125 113 -232 113 -237 0
-16 -15 -12 -133 35 -61 25 -163 58 -224 73 -62 15 -113 30 -113 34 0 4 -19
38 -41 75 -106 173 -130 347 -68 502 30 76 97 177 150 228 47 44 157 123 171
123 5 0 28 -13 51 -29z m4520 13 c52 -27 140 -99 185 -150 118 -137 170 -341
127 -504 -13 -50 -89 -211 -119 -252 -8 -10 -45 -24 -92 -33 -43 -9 -119 -32
-169 -51 -140 -54 -206 -77 -211 -72 -2 3 20 56 50 119 29 63 74 157 98 209
52 110 112 211 175 293 l44 57 -38 16 c-61 26 -179 43 -296 44 l-108 0 75 98
c73 96 138 164 206 215 19 15 36 27 38 27 2 0 17 -7 35 -16z m-4906 -56 c-3
-8 -6 -5 -6 6 -1 11 2 17 5 13 3 -3 4 -12 1 -19z m3663 -165 c0 -15 -2 -16
-10 -3 -13 20 -13 -1 0 -35 7 -17 7 -24 0 -20 -6 3 -10 13 -10 21 0 12 -4 13
-22 4 -20 -9 -21 -9 -7 2 8 7 18 21 22 31 3 9 11 17 17 17 5 0 10 -8 10 -17z
m1650 -28 c0 -5 -5 -3 -10 5 -5 8 -10 20 -10 25 0 6 5 3 10 -5 5 -8 10 -19 10
-25z m-3684 1 c2 -13 1 -13 -3 -1 -2 8 -9 13 -14 9 -5 -3 -7 -10 -4 -15 4 -5
1 -9 -4 -9 -13 0 -13 3 -5 25 8 20 28 14 30 -9z m0 -75 c-4 -6 -13 -11 -19
-11 -8 0 -7 3 2 9 8 5 10 14 6 22 -6 11 -5 11 5 2 7 -6 9 -16 6 -22z m1977 6
c7 3 8 2 4 -2 -14 -16 -36 -14 -29 3 4 10 7 12 10 4 2 -7 9 -9 15 -5z m-309
-48 c63 -50 74 -128 25 -183 -59 -68 -153 -54 -189 27 -21 47 -17 85 15 134
30 46 105 57 149 22z m-1256 -5 c49 -34 68 -126 36 -172 -39 -56 -124 -69
-166 -24 -30 32 -48 64 -48 86 0 30 41 103 63 114 33 16 90 14 115 -4z m-410
-39 c-3 -3 -9 2 -12 12 -6 14 -5 15 5 6 7 -7 10 -15 7 -18z m-2045 -27 c-2
-24 -7 -54 -10 -68 -3 -14 -5 -34 -4 -46 1 -14 -12 -29 -48 -52 -27 -18 -59
-48 -71 -67 -26 -43 -31 -44 -28 -5 1 18 7 29 14 26 7 -3 12 6 12 22 0 25 -1
25 -15 6 -14 -17 -15 -15 -8 31 10 77 34 116 95 157 30 21 58 38 62 38 3 0 4
-19 1 -42z m6157 -35 c26 -30 50 -104 50 -156 0 -19 -3 -17 -21 12 -11 18 -23
31 -26 28 -3 -3 2 -16 11 -29 9 -12 16 -31 16 -42 0 -16 -14 -6 -60 40 -33 34
-63 59 -67 55 -4 -3 -2 1 5 10 6 9 9 19 5 23 -4 4 0 4 10 0 9 -3 15 -10 12
-14 -3 -5 -1 -11 4 -14 19 -12 4 20 -22 46 -22 22 -27 36 -27 73 l0 46 41 -23
c23 -13 54 -37 69 -55z m-4153 5 c-2 -13 -4 -3 -4 22 0 25 2 35 4 23 2 -13 2
-33 0 -45z m-60 10 c1 -26 -1 -29 -7 -13 -6 17 -3 45 5 45 1 0 2 -15 2 -32z
m43 21 c0 -5 -4 -8 -9 -4 -5 3 -12 -7 -14 -22 -4 -26 -4 -26 -6 5 -1 22 3 32
14 32 8 0 15 -5 15 -11z m-3 -41 c-3 -8 -6 -5 -6 6 -1 11 2 17 5 13 3 -3 4
-12 1 -19z m2030 0 c-3 -8 -6 -5 -6 6 -1 11 2 17 5 13 3 -3 4 -12 1 -19z
m-4276 -51 c-20 -52 -24 -198 -7 -275 48 -227 234 -474 521 -689 458 -344
1137 -595 2087 -773 408 -77 481 -107 625 -258 l62 -66 22 30 c67 88 179 168
292 209 64 24 96 30 512 110 641 123 1285 343 1667 568 139 82 362 244 456
332 154 144 266 304 319 456 32 94 42 247 19 329 -8 30 -12 57 -10 60 10 9 54
-56 74 -109 69 -180 39 -362 -94 -566 -168 -258 -433 -465 -865 -677 -245
-120 -258 -125 -476 -205 -404 -147 -795 -247 -1185 -303 -321 -46 -429 -85
-548 -195 -37 -35 -94 -103 -127 -153 l-59 -91 -45 76 c-81 138 -202 246 -326
292 -70 26 -216 56 -375 76 -471 59 -1200 275 -1595 473 -49 24 -100 52 -114
61 -14 8 -29 16 -35 16 -18 0 -164 84 -281 161 -196 129 -375 294 -473 437
-47 68 -109 202 -128 276 -25 101 -16 248 19 326 38 81 94 141 68 72z m1429
-86 c150 -71 255 -97 433 -107 l127 -7 0 -36 c0 -33 38 -231 56 -291 l8 -25
-28 18 c-14 10 -96 47 -181 82 -85 36 -182 78 -215 95 -33 17 -60 27 -60 23 0
-21 30 -115 54 -173 57 -135 181 -360 200 -360 4 0 25 14 46 30 71 56 124 73
207 67 61 -5 77 -10 93 -29 27 -32 25 -35 -17 -43 -21 -3 -66 -17 -99 -30 -34
-14 -86 -30 -115 -36 -85 -17 -83 -15 -58 -51 179 -257 506 -450 852 -504 91
-14 117 -21 117 -34 0 -8 3 -25 6 -37 6 -22 3 -23 -42 -23 -75 0 -277 37 -362
66 -209 72 -457 247 -614 434 -125 148 -213 297 -395 670 -71 146 -146 294
-166 328 -46 78 -46 90 -4 58 18 -14 89 -52 157 -85z m3856 22 c-36 -63 -122
-237 -186 -378 -217 -479 -402 -722 -691 -908 -203 -131 -368 -186 -630 -212
l-65 -7 0 44 c1 40 3 43 31 46 94 8 240 38 314 64 159 56 348 164 455 259 64
57 196 208 196 224 0 8 -20 16 -52 20 -29 4 -96 24 -148 45 -52 21 -100 39
-107 41 -14 4 25 70 77 131 77 90 222 125 318 76 57 -29 62 -49 27 -117 -14
-28 -22 -51 -17 -51 15 0 151 293 172 370 23 87 24 96 8 82 -7 -5 -73 -35
-147 -66 -73 -31 -175 -77 -227 -101 -52 -24 -94 -43 -94 -42 0 2 11 47 25
102 14 55 28 133 32 173 l6 72 61 0 c88 0 219 18 307 41 71 19 275 112 344
157 17 11 32 18 34 16 2 -2 -17 -38 -43 -81z m-4751 -43 c9 -27 14 -54 10 -60
-3 -5 -1 -10 4 -10 6 0 11 -4 11 -8 0 -12 -107 -35 -120 -27 -6 4 -9 2 -8 -3
2 -6 -1 -12 -6 -13 -11 -5 -36 75 -36 114 0 22 7 31 33 42 17 8 46 14 64 15
29 0 33 -4 48 -50z m5623 34 c25 -17 28 -51 11 -105 -6 -19 -12 -39 -14 -46
-3 -8 -15 -6 -42 8 -20 10 -50 19 -65 19 -15 0 -29 3 -32 8 -4 8 18 105 29
122 10 16 88 12 113 -6z m-5883 -183 c12 -72 51 -178 100 -267 128 -235 328
-425 590 -561 119 -62 117 -69 -4 -13 -278 131 -572 365 -712 567 -38 54 -89
168 -89 196 1 28 16 55 60 104 38 43 44 40 55 -26z m6119 -31 l26 -48 -19 -49
c-92 -235 -386 -504 -749 -688 -109 -55 -134 -59 -37 -6 389 211 604 482 690
865 l6 29 28 -27 c16 -15 40 -49 55 -76z m-4083 20 c8 -75 51 -239 80 -306 12
-25 19 -47 17 -49 -2 -2 -21 0 -43 5 -54 13 -115 12 -115 -1 0 -6 5 -19 10
-30 9 -16 22 -19 90 -19 l80 0 20 -41 c12 -23 20 -43 17 -45 -2 -2 -21 3 -41
11 -47 20 -90 16 -94 -8 -7 -35 18 -49 73 -42 28 3 59 3 69 -1 9 -4 45 -48 78
-98 33 -50 92 -121 131 -159 69 -66 69 -67 36 -61 -59 10 -131 36 -209 73
-106 51 -233 177 -283 281 -61 128 -88 244 -94 412 l-6 147 89 -2 89 -2 6 -65z
m254 7 c49 -25 96 -29 146 -14 l46 14 18 -100 c35 -203 119 -413 233 -580 37
-55 77 -114 89 -132 l21 -32 -55 -36 -56 -37 -46 34 c-72 54 -194 184 -250
267 -128 191 -231 476 -231 643 l0 40 28 -26 c15 -14 41 -33 57 -41z m1523
-34 c-9 -113 -37 -221 -88 -337 -97 -221 -239 -409 -403 -533 l-28 -21 -59 41
c-46 31 -57 43 -49 54 6 7 15 10 20 7 5 -3 6 1 3 9 -3 8 6 27 19 43 155 188
276 473 302 710 l7 61 45 -15 c58 -19 117 -6 182 42 26 18 48 32 51 30 3 -1 2
-42 -2 -91z m357 57 c9 -54 -2 -188 -25 -299 -62 -303 -233 -488 -524 -565
l-88 -24 86 87 c47 47 109 120 136 161 54 82 74 93 145 83 37 -5 44 -2 63 22
12 15 19 31 16 36 -8 14 -60 10 -104 -7 -23 -9 -43 -14 -46 -11 -9 9 25 66 45
77 11 5 49 10 85 10 56 0 67 3 80 22 9 12 16 26 16 30 0 11 -76 10 -122 -1
-44 -10 -45 -7 -18 57 27 65 69 236 72 297 2 28 6 52 10 55 3 3 42 6 86 8 l80
3 7 -41z m-3846 -51 c11 -29 21 -56 21 -60 0 -5 -27 -22 -61 -39 l-60 -29 -30
47 c-45 71 -39 86 46 119 52 20 61 16 84 -38z m2714 40 c29 -16 37 -28 37 -63
0 -36 -35 -76 -67 -76 -57 0 -84 82 -41 127 24 26 39 28 71 12z m2767 -17 c45
-22 51 -59 18 -108 -13 -19 -28 -34 -34 -34 -20 0 -126 50 -122 58 7 15 26 58
37 86 10 24 15 27 39 21 15 -3 43 -14 62 -23z m-72 -196 c23 -22 23 -25 8 -54
-9 -17 -26 -38 -38 -46 -20 -14 -24 -14 -43 -1 -11 9 -35 23 -52 32 -18 9 -33
19 -33 23 0 3 13 27 30 53 l30 47 37 -15 c21 -9 49 -26 61 -39z m-5312 -1 c14
-25 25 -47 23 -49 -2 -1 -28 -17 -57 -35 l-53 -34 -25 24 c-16 15 -22 29 -18
43 4 15 3 17 -4 8 -7 -11 -11 -10 -16 3 -8 22 8 41 53 65 54 29 67 25 97 -25z
m2619 -57 c38 -17 55 -58 55 -132 0 -61 -2 -66 -27 -81 -28 -15 -28 -16 -3
-10 14 2 19 2 12 -1 -6 -3 -9 -11 -5 -17 4 -6 0 -8 -10 -4 -13 5 -17 1 -18
-16 l-2 -22 -4 23 c-4 20 -6 20 -20 7 -8 -9 -13 -25 -10 -35 3 -11 2 -22 -2
-24 -4 -3 -8 11 -9 31 -3 42 -8 53 -25 53 -7 0 -6 -4 3 -10 8 -5 11 -10 5 -10
-13 0 -43 20 -30 20 6 0 4 4 -4 9 -19 12 -27 132 -11 171 7 17 25 37 39 45 32
18 34 18 66 3z m-2533 -70 c14 -18 27 -40 30 -48 5 -15 -64 -80 -86 -80 -7 0
-27 15 -45 34 -28 29 -31 37 -22 55 11 19 78 71 92 71 4 0 18 -15 31 -32z
m5088 10 c51 -35 58 -52 33 -85 -13 -18 -29 -28 -44 -27 -13 1 -26 -3 -30 -7
-3 -5 -20 4 -38 19 -31 26 -33 30 -21 53 14 28 50 69 60 69 4 0 22 -10 40 -22z
m-5963 -149 c2 -9 -11 -47 -30 -85 -18 -38 -37 -83 -42 -99 -8 -30 -8 -29 -16
15 -14 82 -10 166 12 236 l21 67 25 -59 c13 -32 27 -66 30 -75z m2102 95 c48
-25 131 -105 131 -124 0 -5 -23 0 -50 11 -94 36 -206 19 -268 -41 -23 -21 -24
-21 -37 -4 -28 38 -66 126 -61 140 3 8 25 24 48 35 63 29 166 22 237 -17z
m4737 -64 c11 -55 13 -98 8 -165 l-7 -90 -16 45 c-9 25 -28 68 -44 97 -15 29
-27 58 -27 65 0 23 55 137 63 129 4 -4 14 -41 23 -81z m-5468 43 c53 -4 72
-10 72 -20 0 -23 59 -152 102 -223 45 -73 103 -151 165 -220 23 -26 39 -50 36
-54 -4 -4 0 -4 9 -1 9 4 19 2 23 -4 12 -20 -55 -12 -123 16 -73 29 -147 79
-203 139 -62 65 -137 198 -169 299 -7 22 -16 44 -21 50 -18 19 -10 38 14 31
12 -3 55 -9 95 -13z m4142 12 c0 -3 -4 -13 -10 -23 -5 -9 -23 -54 -40 -99 -87
-230 -258 -389 -453 -419 l-42 -7 82 86 c45 48 108 127 141 175 56 84 122 223
122 256 0 12 11 16 48 17 26 0 65 4 87 8 51 11 65 12 65 6z m-4521 -97 l49
-52 -19 -28 c-23 -32 -31 -34 -49 -13 -9 11 -16 13 -24 5 -7 -7 -20 0 -43 22
-27 26 -30 34 -21 52 10 20 48 66 55 66 1 0 25 -23 52 -52z m4875 14 c11 -13
15 -28 11 -41 -7 -22 -85 -94 -93 -86 -3 3 -11 0 -17 -5 -9 -7 -17 1 -30 30
l-18 41 39 42 c21 23 43 45 48 49 12 8 35 -4 60 -30z m-4731 -160 c32 -32 54
-62 50 -67 -5 -4 -3 -5 3 -2 6 4 20 -3 30 -15 19 -21 19 -21 -3 -9 -13 6 -23
9 -23 6 0 -8 -121 54 -142 72 -17 15 -17 17 -1 44 10 16 20 29 23 29 3 0 31
-26 63 -58z m4564 36 c29 -38 23 -47 -50 -82 -123 -59 -130 -56 -47 23 41 39
78 71 81 71 4 0 11 -6 16 -12z m-5583 -40 c9 -36 9 -36 -48 -96 -29 -31 -58
-66 -64 -77 -10 -18 -11 -17 -12 10 0 53 20 105 57 146 40 44 58 49 67 17z
m6589 -15 c42 -42 60 -90 55 -148 -3 -33 -5 -36 -12 -20 -5 11 -25 40 -46 65
-47 57 -60 82 -60 114 0 36 20 33 63 -11z m-4419 -42 c23 -25 28 -81 7 -73 -9
3 -12 1 -7 -6 4 -7 0 -19 -8 -27 -13 -14 -19 -11 -51 21 -30 30 -35 41 -30 63
11 45 58 56 89 22z m2260 3 c32 -32 8 -82 -51 -105 -32 -12 -34 -9 -40 40 -4
31 0 44 16 60 25 25 54 27 75 5z m-4327 -62 c15 -9 35 -61 28 -72 -2 -4 14 -8
38 -8 81 -2 161 -41 357 -172 127 -85 185 -117 293 -159 68 -26 104 -30 92
-11 -3 5 -13 6 -22 3 -10 -4 -14 -2 -10 4 4 6 -7 16 -26 24 -17 7 -41 19 -52
27 -19 13 -19 14 5 7 14 -3 34 -10 45 -15 194 -81 580 -224 752 -280 234 -75
387 -116 641 -171 112 -24 148 -35 132 -41 -11 -4 -36 -19 -55 -34 -42 -32
-61 -35 -103 -17 -25 10 -37 11 -47 3 -9 -8 -15 -8 -20 0 -3 5 -1 10 6 10 7 0
9 3 6 6 -4 4 -13 1 -22 -6 -8 -7 -15 -8 -15 -2 0 5 -7 13 -16 16 -13 5 -14 4
-5 -7 9 -12 7 -13 -14 -9 -14 2 -25 9 -25 15 0 6 -3 8 -6 4 -9 -8 -33 16 -26
27 3 5 -1 6 -8 1 -8 -5 -30 -9 -49 -11 -20 -1 -30 1 -23 3 6 3 9 10 5 16 -4 7
0 8 13 3 14 -5 16 -4 7 5 -9 9 -17 8 -34 -5 -13 -9 -28 -16 -34 -16 -5 0 -3 5
5 10 12 7 12 10 1 10 -8 0 -11 6 -7 16 5 13 4 14 -7 6 -8 -7 -17 -9 -20 -5 -4
3 -7 1 -7 -6 0 -16 -46 -9 -137 21 -39 13 -60 25 -57 32 3 7 -2 13 -10 13 -8
0 -12 -5 -9 -10 4 -7 -1 -7 -13 -2 -26 10 -253 75 -266 75 -5 0 -8 -13 -8 -30
0 -16 -1 -30 -3 -30 -9 0 -364 162 -404 185 -25 14 -55 25 -67 26 -19 1 -18 2
4 8 l24 7 -23 16 c-19 14 -29 15 -45 6 -20 -10 -20 -10 -6 7 14 17 14 18 -10
5 -14 -7 -22 -9 -18 -5 12 13 -11 33 -58 54 -35 16 -49 17 -72 9 -26 -10 -34
-7 -85 30 -30 23 -59 47 -63 54 -5 7 14 -3 41 -23 28 -19 57 -39 65 -43 24
-14 -22 27 -52 47 -16 9 -40 25 -55 35 -18 11 -24 12 -19 4 10 -17 -10 -6 -69
37 -22 16 -78 48 -125 72 -113 56 -190 64 -271 25 -30 -14 -68 -39 -84 -56
l-29 -30 -23 41 c-13 23 -23 43 -23 44 0 10 121 95 134 95 20 0 20 14 1 30
-21 17 -19 46 5 70 21 21 37 25 57 12z m6374 -11 c22 -17 23 -22 13 -59 -10
-37 -9 -41 10 -46 12 -3 43 -25 70 -49 l49 -43 -24 -35 c-13 -19 -25 -36 -26
-38 -1 -2 -10 6 -20 17 -10 12 -43 34 -73 49 -46 23 -67 28 -130 28 -113 -1
-180 -36 -480 -253 -14 -10 -24 -11 -39 -2 -28 15 -97 -16 -146 -64 -19 -20
-74 -54 -121 -77 -132 -63 -407 -180 -411 -175 -3 2 0 13 6 24 15 28 14 32 -6
32 -23 0 -199 -51 -285 -83 -50 -19 -69 -22 -79 -13 -9 8 -10 8 -5 -1 6 -11
-34 -27 -127 -52 -28 -7 -36 -6 -31 2 3 7 -1 4 -9 -5 -16 -20 -28 -14 -21 10
3 10 -1 7 -8 -6 -8 -12 -17 -19 -21 -16 -4 4 -7 2 -7 -6 0 -10 -4 -10 -17 1
-11 10 -14 10 -9 2 4 -8 1 -13 -9 -13 -10 0 -13 5 -9 13 4 6 -1 5 -12 -4 -21
-18 -93 -44 -100 -36 -3 2 7 7 21 11 14 4 25 11 25 17 0 8 -4 8 -12 1 -7 -6
-30 -13 -50 -17 -26 -5 -38 -13 -38 -24 0 -12 -2 -13 -9 -3 -5 8 -21 12 -37
11 -16 -2 -35 0 -42 5 -7 4 -16 6 -18 3 -3 -3 -22 6 -41 19 -20 13 -40 24 -46
24 -29 0 13 12 163 44 373 82 816 223 1165 371 50 21 119 50 155 65 89 38 125
46 68 15 -84 -45 -71 -69 20 -35 71 27 132 61 293 166 170 111 240 145 310
151 55 5 57 6 68 44 10 32 20 42 52 48 4 0 17 -8 30 -18z m-4177 -12 c31 -24
34 -59 6 -84 -41 -37 -100 -13 -100 41 0 20 41 64 60 64 4 0 19 -9 34 -21z
m2002 -2 c21 -18 26 -29 21 -48 -7 -27 -54 -59 -77 -52 -47 16 -55 84 -12 107
36 20 36 20 68 -7z m-1863 -84 c31 -16 36 -18 65 -21 10 -2 10 -7 1 -23 -8
-16 -8 -20 1 -14 6 4 18 -1 26 -11 9 -11 13 -13 9 -6 -3 6 -1 12 4 12 6 0 11
-5 11 -12 0 -6 6 -4 13 7 8 10 19 15 25 11 12 -7 8 -42 -5 -39 -5 1 -10 -5
-10 -12 0 -10 4 -12 12 -5 14 11 25 3 25 -18 0 -10 -8 -13 -26 -9 -17 3 -22 1
-16 -5 6 -6 30 -11 54 -11 24 0 34 -2 23 -4 -11 -3 -25 -11 -31 -18 -9 -12
-18 -12 -55 -1 -145 44 -214 112 -179 177 13 23 13 23 53 2z m1695 -5 c17 -17
15 -59 -3 -85 -20 -29 -72 -59 -141 -83 -57 -20 -57 -20 -71 0 -7 10 -20 17
-27 14 -8 -3 -17 -1 -20 4 -3 5 6 8 20 6 15 -1 24 2 21 9 -2 6 -18 12 -35 12
-17 0 -35 5 -39 9 -4 5 3 5 16 1 18 -6 22 -4 15 6 -6 11 -4 11 10 0 16 -13 17
-13 14 4 -1 10 4 20 12 22 12 4 12 3 2 -5 -11 -7 -10 -12 3 -26 18 -17 30 -22
21 -7 -3 5 3 11 14 14 13 3 20 -1 22 -14 3 -18 4 -18 30 4 21 17 24 26 17 42
-9 19 -9 18 -5 -3 3 -15 -2 -26 -17 -33 -18 -9 -20 -9 -9 2 17 18 15 34 -3 19
-26 -22 -15 4 17 40 17 19 28 29 24 23 -11 -19 5 -16 21 5 11 12 10 9 -1 -10
-16 -28 -21 -47 -9 -35 3 4 12 2 19 -4 8 -7 14 -6 20 2 4 7 3 9 -4 5 -19 -12
-24 15 -6 35 9 10 14 19 10 19 -4 0 -4 5 -1 10 9 14 48 13 63 -2z m-1588 -38
c0 -5 -2 -10 -4 -10 -3 0 -8 5 -11 10 -3 6 -1 10 4 10 6 0 11 -4 11 -10z
m1420 -34 c-7 -13 -21 -26 -31 -29 -15 -4 -16 -1 -9 18 5 13 6 26 2 31 -4 4
-1 4 6 0 7 -5 11 -15 8 -25 -5 -12 -2 -11 9 3 8 11 15 24 15 30 0 5 3 6 7 3 3
-4 1 -18 -7 -31z m-1340 -6 c0 -11 -4 -20 -9 -20 -5 0 -7 9 -4 20 3 11 7 20 9
20 2 0 4 -9 4 -20z m32 -9 c7 11 9 11 6 1 -5 -17 -23 -17 -24 0 -1 9 1 8 4 -1
3 -12 5 -12 14 0z m44 -18 c-10 -11 -37 -12 -30 -2 3 5 12 9 21 9 9 0 13 -3 9
-7z m-2455 -59 c27 -24 42 -86 29 -118 -5 -14 -7 -26 -4 -26 2 0 0 -9 -6 -21
-7 -11 -18 -18 -25 -15 -9 3 -12 0 -8 -10 7 -20 18 -18 36 9 9 12 16 16 16 9
1 -7 -11 -24 -25 -39 -23 -23 -31 -25 -82 -21 -48 4 -60 9 -83 38 -33 39 -43
78 -35 125 8 39 56 92 89 97 30 5 76 -8 98 -28z m6167 7 c12 -6 29 -26 38 -43
63 -121 -84 -257 -185 -172 -19 16 -31 35 -31 50 0 14 4 23 10 19 5 -3 7 -12
4 -19 -8 -21 35 -46 79 -46 30 0 46 7 69 30 26 27 30 36 25 67 -6 36 -20 53
-45 53 -9 0 -11 -7 -7 -20 4 -11 0 -34 -9 -50 -8 -17 -10 -28 -5 -25 13 9 11
-9 -3 -23 -16 -16 -60 -15 -84 3 -10 8 -15 15 -10 15 5 0 1 9 -9 20 -33 36 -1
128 54 156 24 12 70 6 109 -15z m-3063 -20 c145 -66 180 -251 69 -358 -95 -91
-227 -90 -316 4 -39 40 -58 94 -58 160 0 157 162 260 305 194z m515 -7 c0 -7
-6 -16 -12 -20 -7 -4 -10 -4 -6 1 4 4 3 13 -2 20 -7 8 -5 12 5 12 8 0 15 -6
15 -13z m47 -4 c3 -10 2 -11 -4 -4 -4 6 -15 14 -23 17 -11 5 -9 6 4 4 11 -1
21 -9 23 -17z m-80 -6 c-3 -3 -12 -4 -19 -1 -8 3 -5 6 6 6 11 1 17 -2 13 -5z
m-3251 -149 c18 -13 16 -14 -28 -15 -62 0 -74 -6 -99 -46 -41 -67 0 -148 45
-91 39 49 106 25 106 -38 0 -26 -7 -37 -40 -60 -70 -49 -155 -21 -192 62 -34
76 -10 146 62 184 42 23 119 25 146 4z m5512 -5 c58 -35 88 -110 63 -158 -5
-9 -14 -29 -19 -44 -14 -34 -51 -58 -100 -65 -31 -4 -44 0 -71 23 -40 34 -51
61 -39 96 8 21 16 28 37 28 40 0 73 -27 65 -53 -6 -20 -5 -21 12 -7 33 25 44
43 44 75 0 60 -64 112 -127 102 -38 -7 -43 0 -10 13 40 16 110 11 145 -10z
m292 16 c0 -2 -8 -10 -17 -17 -16 -13 -17 -12 -4 4 13 16 21 21 21 13z m-5618
-73 c26 -23 23 -59 -8 -79 -19 -13 -28 -14 -37 -5 -8 8 -8 11 1 11 7 0 12 5
12 10 0 15 -30 12 -31 -2 0 -7 -5 -2 -10 11 -7 18 -5 30 6 47 18 28 41 31 67
7z m5060 -8 c9 -19 7 -29 -6 -50 -23 -35 -67 -31 -80 7 -20 56 61 96 86 43z
m-4902 -167 c24 -26 26 -76 4 -104 -8 -10 -12 -12 -8 -4 7 13 5 13 -9 1 -11
-9 -28 -11 -53 -6 -28 5 -34 3 -28 -7 6 -10 4 -10 -9 1 -11 8 -17 28 -17 53 0
73 75 114 120 66z m4785 -3 c32 -31 32 -59 -1 -91 -19 -20 -31 -24 -52 -20
l-27 6 24 -20 c27 -23 12 -26 -28 -5 -32 16 -41 33 -41 76 0 37 40 79 75 79
14 0 37 -11 50 -25z m-4534 -111 c35 -18 63 -75 55 -110 -3 -12 -18 -36 -32
-53 -22 -26 -33 -31 -69 -31 -50 0 -77 22 -96 77 -9 27 -7 40 8 70 29 59 78
77 134 47z m4280 -7 c58 -39 64 -109 13 -160 -46 -46 -119 -34 -149 23 -21 41
-19 83 6 114 39 50 80 57 130 23z m-3791 -46 c16 -31 12 -49 -15 -67 -49 -32
-101 19 -68 65 19 27 68 28 83 2z m3273 -2 c19 -26 11 -58 -18 -71 -47 -21
-93 35 -59 73 22 25 59 24 77 -2z m-2294 -15 c32 -7 43 -24 15 -24 -32 0 -130
-57 -185 -107 -31 -29 -59 -49 -63 -46 -4 4 -4 -1 0 -12 3 -11 -12 0 -34 25
-34 38 -38 48 -29 67 12 26 42 49 107 80 46 22 127 29 189 17z m1453 -27 c71
-35 94 -67 78 -107 -11 -26 -29 -41 -55 -45 -5 -1 -32 20 -60 46 -45 43 -161
109 -192 109 -19 0 -16 18 5 24 9 2 51 4 92 2 58 -1 88 -8 132 -29z m-3301
-71 c10 -17 19 -45 19 -63 0 -38 -43 -93 -73 -93 -20 0 -20 0 -1 15 21 16 21
16 -56 18 -51 2 -69 18 -70 62 -1 103 129 147 181 61z m5069 37 c50 -29 67
-110 33 -150 -22 -25 -63 -47 -63 -34 0 5 8 12 18 15 9 3 4 4 -13 2 -16 -2
-38 0 -47 5 -12 6 -18 6 -18 0 0 -6 12 -17 28 -25 36 -20 9 -20 -33 0 -80 38
-69 143 20 192 28 16 42 15 75 -5z m-3790 -33 c41 -41 13 -110 -45 -110 -39 0
-65 28 -65 72 0 52 71 77 110 38z m2467 -2 c31 -29 29 -54 -7 -89 -23 -23 -35
-29 -52 -24 -56 17 -74 67 -42 113 20 29 70 29 101 0z m-3125 0 c32 -25 26
-75 -9 -89 -22 -8 -30 -6 -50 12 -12 13 -23 33 -23 45 0 38 50 57 82 32z
m3760 -5 c25 -22 23 -59 -4 -77 -30 -21 -47 -20 -69 6 -23 26 -24 46 -2 70 20
22 51 23 75 1z m-2296 -10 c133 -44 220 -134 334 -340 25 -46 47 -83 50 -83 3
0 18 25 33 56 79 159 204 305 304 352 50 23 71 27 153 27 79 0 103 -4 142 -23
290 -143 290 -525 0 -649 -70 -30 -139 -42 -177 -30 -44 13 -45 27 -2 28 17 0
41 5 52 10 13 5 3 6 -30 1 -55 -7 -403 -7 -411 1 -3 3 19 36 48 74 29 38 69
93 87 121 31 49 51 65 51 42 0 -6 19 -31 42 -56 94 -102 220 -128 327 -69 56
31 112 91 130 138 18 47 13 133 -10 182 -40 86 -138 145 -237 145 -148 0 -229
-63 -393 -309 -103 -153 -114 -167 -124 -147 -17 31 -155 247 -177 276 -44 58
-120 128 -165 150 -70 36 -181 40 -251 10 -158 -68 -202 -258 -89 -386 94
-107 224 -122 344 -41 26 18 62 54 79 80 l32 46 58 -86 c33 -47 69 -101 81
-119 12 -18 27 -35 33 -39 27 -17 -5 -20 -182 -19 -142 1 -210 5 -258 17 -35
9 -66 14 -68 12 -3 -2 9 -7 24 -10 16 -4 38 -10 49 -15 11 -5 27 -11 35 -13 9
-3 5 -6 -10 -7 -22 -2 -21 -3 10 -13 l35 -11 -33 -4 c-48 -5 -162 33 -229 77
-59 38 -100 87 -128 153 -19 46 -21 214 -3 255 64 146 185 232 329 233 36 0
88 -7 115 -17z m-1047 -29 c27 -19 51 -71 51 -110 0 -62 -70 -124 -125 -110
-38 10 -92 62 -99 98 -8 39 24 110 57 126 33 16 90 14 116 -4z m2964 4 c66
-35 85 -103 47 -166 -23 -37 -54 -52 -109 -52 -45 0 -77 29 -92 83 -12 43 8
102 44 129 25 20 79 23 110 6z m-2444 -66 c36 -27 36 -37 -2 -79 -27 -29 -43
-37 -68 -38 -41 0 -49 9 -49 55 -1 33 -1 34 -15 16 -31 -41 -11 -96 40 -109
13 -3 10 -5 -12 -6 -38 -1 -83 46 -83 87 0 94 107 135 189 74z m1981 -3 c28
-35 34 -73 16 -106 -20 -41 -38 -53 -83 -59 l-38 -6 33 21 c17 11 35 21 40 22
13 1 29 41 25 60 -3 10 -14 25 -24 35 -18 17 -19 16 -13 -12 6 -34 -14 -58
-57 -69 -29 -7 -58 16 -84 66 -13 24 -12 28 8 47 48 45 140 45 177 1z m-1491
-98 c16 -12 37 -41 47 -66 14 -38 15 -52 5 -85 -13 -44 -61 -87 -101 -90 -47
-4 -81 0 -76 9 3 4 18 6 33 3 16 -2 26 -2 23 1 -3 3 -17 7 -30 9 -14 2 -31 8
-39 12 -11 7 -13 5 -8 -8 13 -32 -29 1 -47 38 -63 132 76 260 193 177z m968
10 c49 -23 73 -62 73 -121 0 -78 -54 -131 -134 -132 -136 -3 -174 178 -54 252
41 25 62 25 115 1z m-2202 -67 c22 -9 45 -57 45 -94 0 -30 -39 -80 -63 -80 -5
0 5 13 22 29 39 36 40 45 2 23 -24 -14 -35 -15 -60 -6 -19 8 -33 8 -39 2 -19
-19 -35 29 -22 67 18 54 65 78 115 59z m3400 -19 c31 -30 33 -82 4 -119 -11
-14 -25 -26 -31 -26 -6 0 -6 6 2 15 11 13 8 15 -21 15 -20 0 -42 9 -57 23
l-25 22 7 -35 c4 -25 3 -31 -4 -20 -5 8 -10 34 -10 58 0 54 33 92 80 92 19 0
40 -9 55 -25z m-4206 -135 c56 -82 119 -185 139 -227 33 -70 37 -86 37 -158 0
-63 -5 -90 -23 -127 -50 -101 -141 -159 -259 -166 -64 -4 -80 -1 -136 26 -73
34 -127 85 -159 151 -18 36 -23 63 -23 121 1 68 5 82 40 149 22 41 62 105 90
141 144 192 180 239 186 240 3 0 51 -67 108 -150z m5174 -35 c142 -189 168
-241 174 -345 4 -67 2 -81 -24 -130 -112 -218 -429 -223 -548 -8 -26 46 -30
63 -30 133 0 73 4 88 41 165 23 47 78 136 122 198 45 62 89 126 99 142 14 24
19 27 32 17 8 -7 68 -84 134 -172z m-3895 161 c15 -8 34 -26 42 -41 12 -23 12
-30 0 -52 -17 -30 -29 -37 -90 -55 l-45 -13 0 -57 c0 -66 22 -104 73 -128 36
-17 39 -25 16 -34 -45 -17 -139 37 -171 97 -35 69 -8 184 56 238 20 16 28 27
19 23 -27 -9 -22 15 5 26 33 13 65 12 95 -4z m2444 5 c23 -9 79 -85 98 -135
14 -38 13 -110 -4 -149 -24 -60 -126 -121 -170 -104 -24 9 -19 24 9 31 42 11
78 70 83 136 5 66 1 70 -64 75 -56 5 -84 28 -84 69 0 39 8 51 45 70 34 18 54
20 87 7z m-2254 -153 c20 -43 -8 -88 -57 -88 -43 0 -65 55 -40 101 16 31 80
23 97 -13z m2087 8 c15 -22 15 -27 1 -54 -21 -40 -44 -47 -76 -24 -50 37 -34
102 25 102 26 0 39 -6 50 -24z m-2037 -125 c22 -71 18 -78 -77 -148 -2 -2 -2
-5 1 -8 3 -3 27 11 53 31 47 36 48 36 67 16 56 -56 -73 -120 -133 -66 -22 19
-49 72 -49 96 0 11 109 118 121 118 3 0 11 -17 17 -39z m1966 -14 c34 -32 56
-61 56 -74 0 -33 -20 -71 -48 -89 -69 -45 -196 17 -137 66 13 11 18 10 30 -7
16 -23 75 -48 75 -32 0 6 -16 26 -35 46 -19 20 -35 46 -35 58 0 29 20 85 30
85 5 0 33 -24 64 -53z m-2639 18 c14 -13 25 -35 25 -49 0 -30 -36 -66 -64 -65
-21 0 -21 1 -1 9 18 8 18 9 2 9 -10 1 -15 5 -12 11 4 6 -1 7 -11 3 -12 -4 -15
-3 -10 6 9 14 -16 11 -26 -4 -4 -5 -8 5 -8 23 0 36 37 82 65 82 9 0 27 -11 40
-25z m3313 -8 c27 -28 20 -60 -16 -76 -21 -10 -23 -14 -11 -22 10 -6 6 -9 -17
-9 -43 0 -68 30 -60 71 3 18 11 38 17 46 18 20 63 16 87 -10z m-1281 -223 c-3
-3 -12 -4 -19 -1 -8 3 -5 6 6 6 11 1 17 -2 13 -5z m-744 -11 c-13 -2 -33 -2
-45 0 -13 2 -3 4 22 4 25 0 35 -2 23 -4z m674 1 c-3 -3 -12 -4 -19 -1 -8 3 -5
6 6 6 11 1 17 -2 13 -5z m1384 -33 c32 -32 38 -71 15 -94 -23 -22 -92 -14
-116 13 -27 31 -25 56 5 85 32 33 60 31 96 -4z m-3352 -7 c25 -32 26 -45 6
-85 -27 -52 -102 -63 -126 -18 -11 21 -10 21 18 -1 21 -15 37 -19 56 -15 36 9
35 26 -1 19 -35 -7 -82 31 -82 66 0 61 90 84 129 34z m1690 -10 c113 -95 -11
-275 -133 -195 -55 36 -71 102 -41 161 34 65 118 82 174 34z m80 -289 c277
-39 482 -127 619 -267 185 -189 235 -428 147 -705 -29 -91 -115 -249 -134
-245 -7 1 -10 -2 -7 -7 4 -5 1 -13 -5 -17 -6 -3 -15 0 -20 7 -6 9 -9 10 -9 2
0 -6 5 -15 10 -18 6 -4 2 -18 -11 -36 -11 -16 -24 -27 -29 -24 -5 3 -11 1 -15
-5 -3 -5 -1 -10 5 -10 6 0 8 -5 5 -10 -4 -6 -11 -7 -17 -4 -6 4 -8 2 -4 -4 9
-14 -162 -184 -265 -263 -46 -35 -160 -116 -253 -179 l-169 -116 -190 128
c-105 71 -211 145 -236 165 -95 76 -231 205 -231 220 0 8 -5 11 -12 7 -8 -5
-9 -2 -4 12 4 10 4 15 0 11 -11 -11 -33 13 -27 29 8 20 23 17 17 -3 -5 -14 -4
-15 4 -4 8 11 0 28 -30 68 -22 29 -44 50 -49 47 -5 -3 -6 3 -2 12 4 12 3 15
-5 10 -7 -4 -12 -15 -13 -24 0 -10 -3 -12 -5 -5 -3 7 0 22 7 35 9 19 9 21 -2
10 -11 -10 -16 -8 -26 10 -15 28 -17 5 -2 -25 9 -19 7 -18 -10 3 -11 14 -19
31 -16 38 3 7 1 11 -4 8 -12 -8 -79 144 -102 232 -24 93 -25 259 -3 352 23
101 77 198 155 283 152 165 379 258 709 290 78 8 124 6 229 -8z m-1739 -59
c140 -93 84 -300 -86 -314 -99 -8 -194 74 -194 168 0 36 23 96 48 124 53 60
160 70 232 22z m3367 15 c106 -49 133 -194 52 -280 -99 -105 -293 -37 -307
108 -13 135 128 229 255 172z m-3411 -616 c63 -18 159 -87 197 -142 111 -160
86 -371 -58 -495 -11 -10 -51 -34 -90 -55 -67 -36 -74 -38 -165 -38 -87 0
-100 3 -155 32 -86 44 -159 113 -192 181 -25 51 -28 67 -28 157 1 91 3 106 30
159 71 141 226 235 365 220 25 -3 68 -12 96 -19z m3548 -21 c78 -38 150 -110
184 -181 24 -51 27 -70 27 -158 0 -82 -4 -109 -22 -148 -32 -69 -112 -148
-190 -188 -62 -31 -74 -34 -158 -34 -82 0 -97 3 -158 33 -81 40 -155 110 -194
183 -25 49 -28 63 -28 154 0 93 2 104 32 160 47 91 122 161 210 196 38 15 67
19 143 16 81 -3 104 -7 154 -33z m-2633 -601 c13 -16 12 -17 -3 -4 -17 13 -22
21 -14 21 2 0 10 -8 17 -17z m-1 -33 c0 -5 -2 -10 -4 -10 -3 0 -8 5 -11 10 -3
6 -1 10 4 10 6 0 11 -4 11 -10z"/>
<path d="M4495 7120 c3 -5 8 -10 11 -10 2 0 4 5 4 10 0 6 -5 10 -11 10 -5 0
-7 -4 -4 -10z"/>
<path d="M2682 7300 c-26 -34 -19 -41 9 -8 17 19 25 38 16 38 -2 0 -13 -13
-25 -30z"/>
<path d="M4085 6939 c-4 -6 -5 -12 -2 -15 2 -3 7 2 10 11 7 17 1 20 -8 4z"/>
<path d="M4080 6861 c0 -7 -4 -10 -9 -7 -4 3 -6 -7 -3 -22 l5 -27 8 29 c5 17
6 32 4 35 -3 2 -5 -1 -5 -8z"/>
<path d="M4030 6846 c0 -2 7 -7 16 -10 8 -3 12 -2 9 4 -6 10 -25 14 -25 6z"/>
<path d="M4051 6804 c0 -11 3 -14 6 -6 3 7 2 16 -1 19 -3 4 -6 -2 -5 -13z"/>
<path d="M4012 6650 c0 -14 2 -19 5 -12 2 6 2 18 0 25 -3 6 -5 1 -5 -13z"/>
<path d="M4035 6651 c-3 -5 -1 -12 5 -16 5 -3 10 1 10 9 0 18 -6 21 -15 7z"/>
<path d="M6612 7255 c0 -16 2 -22 5 -12 2 9 2 23 0 30 -3 6 -5 -1 -5 -18z"/>
<path d="M6632 7255 c0 -16 2 -22 5 -12 2 9 2 23 0 30 -3 6 -5 -1 -5 -18z"/>
<path d="M6580 7215 c0 -8 2 -15 4 -15 2 0 6 7 10 15 3 8 1 15 -4 15 -6 0 -10
-7 -10 -15z"/>
<path d="M6668 7203 c7 -3 16 -2 19 1 4 3 -2 6 -13 5 -11 0 -14 -3 -6 -6z"/>
<path d="M6628 7193 c7 -3 16 -2 19 1 4 3 -2 6 -13 5 -11 0 -14 -3 -6 -6z"/>
<path d="M6580 7177 c0 -10 8 -17 18 -17 9 0 13 4 7 8 -5 4 -13 11 -17 16 -5
5 -8 2 -8 -7z"/>
<path d="M6005 7140 c-3 -6 1 -7 9 -4 18 7 21 14 7 14 -6 0 -13 -4 -16 -10z"/>
<path d="M6266 6887 c3 -10 9 -15 12 -12 3 3 0 11 -7 18 -10 9 -11 8 -5 -6z"/>
<path d="M6281 6857 c-8 -10 -7 -14 2 -14 8 0 14 6 14 14 0 7 -1 13 -2 13 -2
0 -8 -6 -14 -13z"/>
<path d="M6253 6794 c-3 -8 -1 -25 4 -37 8 -18 10 -16 9 16 -1 41 -4 45 -13
21z"/>
<path d="M6288 6723 c5 -21 7 -23 10 -9 2 10 0 22 -6 28 -6 6 -7 0 -4 -19z"/>
<path d="M6270 6711 c0 -11 4 -22 9 -25 4 -3 6 6 3 19 -5 30 -12 33 -12 6z"/>
<path d="M6260 6652 c0 -13 43 -26 62 -19 7 3 2 6 -12 6 -15 1 -31 6 -38 13
-9 9 -12 9 -12 0z"/>
<path d="M5099 6815 c-55 -30 -58 -108 -6 -151 26 -22 38 -25 72 -21 45 6 95
52 95 88 0 28 -27 77 -49 89 -27 14 -81 12 -112 -5z"/>
<path d="M4456 6615 c-13 -36 69 -77 89 -45 4 6 10 8 15 5 4 -3 14 3 21 13 12
15 12 16 -1 7 -14 -10 -55 -11 -90 -3 -8 1 -17 12 -20 23 -6 20 -6 20 -14 0z"/>
<path d="M2067 6563 c3 -7 9 -13 14 -13 5 0 9 6 9 13 0 8 -6 14 -14 14 -8 0
-12 -6 -9 -14z"/>
<path d="M6415 5881 c-36 -10 -105 -38 -105 -44 0 -2 18 -1 41 3 57 11 99 -1
192 -55 76 -44 81 -46 94 -29 19 26 16 37 -14 67 -50 47 -146 74 -208 58z"/>
<path d="M4082 6278 c-7 -7 -12 -17 -12 -23 0 -17 34 -45 53 -45 18 0 33 41
23 65 -7 18 -47 20 -64 3z"/>
<path d="M4080 6105 c0 -14 8 -29 19 -35 25 -13 81 -13 101 0 24 17 -35 60
-82 60 -34 0 -38 -3 -38 -25z"/>
<path d="M4283 5734 c-8 -20 29 -54 59 -54 16 0 19 6 16 33 -3 28 -7 32 -36
35 -23 2 -34 -1 -39 -14z"/>
<path d="M4517 6132 c-21 -23 -21 -46 -1 -77 27 -41 94 -29 94 17 0 10 -7 18
-15 18 -13 0 -14 4 -5 20 6 11 8 25 5 30 -10 17 -61 11 -78 -8z"/>
<path d="M4590 5930 c-13 -8 -13 -13 0 -37 9 -16 24 -28 35 -28 29 0 29 69 0
73 -11 1 -27 -2 -35 -8z"/>
<path d="M4670 5811 c-18 -12 -3 -64 20 -68 30 -6 45 14 34 44 -10 30 -30 39
-54 24z"/>
<path d="M4756 5681 c-16 -18 -15 -20 27 -49 l44 -29 -16 45 c-19 53 -31 60
-55 33z"/>
<path d="M5700 6130 c-8 -14 -8 -20 0 -20 8 0 9 -11 5 -31 -8 -35 4 -49 42
-49 28 0 63 37 63 65 0 50 -87 77 -110 35z"/>
<path d="M5657 5918 c-13 -46 41 -67 61 -23 10 21 9 26 -8 35 -29 16 -47 12
-53 -12z"/>
<path d="M5590 5801 c-14 -28 -12 -48 6 -55 27 -10 34 -7 44 20 18 45 -27 76
-50 35z"/>
<path d="M5503 5650 c-10 -47 -9 -49 10 -38 11 5 30 22 43 37 l22 26 -21 12
c-36 20 -44 15 -54 -37z"/>
<path d="M6166 6266 c-8 -32 2 -56 23 -56 29 0 53 24 49 51 -2 19 -10 25 -34
27 -26 3 -33 -1 -38 -22z"/>
<path d="M6129 6107 c-19 -12 -34 -27 -34 -32 0 -6 22 -11 48 -13 56 -4 97 17
97 48 0 29 -66 27 -111 -3z"/>
<path d="M5960 5735 c-16 -19 -9 -49 13 -53 20 -4 57 24 57 43 0 26 -51 33
-70 10z"/>
<path d="M3480 5456 c0 -2 7 -7 16 -10 8 -3 12 -2 9 4 -6 10 -25 14 -25 6z"/>
<path d="M2676 5827 c2 -7 14 -19 27 -26 21 -13 21 -12 -2 13 -27 29 -33 32
-25 13z"/>
<path d="M4030 5570 c0 -5 5 -10 10 -10 6 0 10 5 10 10 0 6 -4 10 -10 10 -5 0
-10 -4 -10 -10z"/>
<path d="M3602 4834 c-7 -8 -8 -14 -3 -14 10 0 25 19 20 25 -2 1 -10 -3 -17
-11z"/>
<path d="M3680 4815 c-7 -9 -11 -17 -9 -20 3 -2 10 5 17 15 14 24 10 26 -8 5z"/>
<path d="M3625 4810 c3 -5 8 -10 11 -10 2 0 4 5 4 10 0 6 -5 10 -11 10 -5 0
-7 -4 -4 -10z"/>
<path d="M3740 4811 c0 -7 -4 -10 -8 -7 -5 3 -9 -2 -9 -10 0 -13 2 -13 16 0 8
9 12 19 8 22 -4 4 -7 2 -7 -5z"/>
<path d="M3695 4800 c-3 -5 -1 -10 4 -10 6 0 11 5 11 10 0 6 -2 10 -4 10 -3 0
-8 -4 -11 -10z"/>
<path d="M6117 5523 c5 -23 33 -32 33 -11 0 6 -3 8 -7 5 -3 -4 -12 1 -19 11
-12 15 -12 15 -7 -5z"/>
<path d="M4333 5465 c0 -8 4 -12 8 -9 4 2 10 -2 12 -8 4 -8 6 -9 6 -2 1 6 -5
17 -12 23 -10 8 -14 7 -14 -4z"/>
<path d="M4372 5441 c-6 -17 -9 -31 -6 -31 7 0 25 52 20 57 -2 2 -8 -10 -14
-26z"/>
<path d="M4470 5419 c0 -5 5 -7 10 -4 6 3 10 8 10 11 0 2 -4 4 -10 4 -5 0 -10
-5 -10 -11z"/>
<path d="M4470 5326 c0 -2 7 -6 15 -10 8 -3 15 -1 15 4 0 6 -7 10 -15 10 -8 0
-15 -2 -15 -4z"/>
<path d="M5970 5486 c0 -2 9 -6 20 -9 11 -3 20 -1 20 4 0 5 -9 9 -20 9 -11 0
-20 -2 -20 -4z"/>
<path d="M5820 5341 c0 -10 19 -25 25 -20 1 2 -3 10 -11 17 -8 7 -14 8 -14 3z"/>
<path d="M2024 5273 c-22 -24 -25 -35 -21 -71 3 -24 10 -49 17 -55 10 -9 11
-9 6 1 -10 17 2 15 20 -3 23 -22 32 -18 26 13 -3 15 -5 46 -6 69 0 23 -3 41
-6 41 -18 -1 -21 4 -10 17 22 26 0 16 -26 -12z"/>
<path d="M5065 4950 c10 -16 73 -29 110 -23 57 9 40 20 -24 15 -36 -3 -61 0
-65 7 -4 6 -12 11 -17 11 -6 0 -8 -4 -4 -10z"/>
<path d="M5230 4950 c-8 -5 -10 -10 -5 -10 6 0 17 5 25 10 8 5 11 10 5 10 -5
0 -17 -5 -25 -10z"/>
<path d="M2281 4981 c-10 -7 -11 -13 -2 -27 6 -11 11 -17 12 -14 1 8 6 50 5
50 -1 0 -7 -4 -15 -9z"/>
<path d="M2950 4695 c0 -35 28 -65 61 -65 34 0 69 16 69 31 0 5 -13 3 -28 -5
-35 -18 -70 -4 -89 34 -11 22 -13 23 -13 5z"/>
<path d="M7350 4669 c-16 -20 -70 -34 -70 -18 0 6 -4 8 -9 5 -5 -4 -12 -1 -14
4 -3 6 -4 5 -3 -2 1 -7 14 -19 28 -26 32 -15 74 0 84 30 8 27 2 29 -16 7z"/>
<path d="M3880 4560 c0 -5 5 -10 11 -10 5 0 7 5 4 10 -3 6 -8 10 -11 10 -2 0
-4 -4 -4 -10z"/>
<path d="M6345 4550 c3 -5 11 -10 16 -10 6 0 7 5 4 10 -3 6 -11 10 -16 10 -6
0 -7 -4 -4 -10z"/>
<path d="M4910 4123 c0 -17 -116 -91 -162 -104 -22 -5 -38 -12 -37 -13 2 -2
73 -7 157 -11 l153 -7 -47 64 c-61 81 -64 85 -64 71z"/>
<path d="M5374 4092 c-10 -20 -34 -51 -52 -69 l-33 -33 98 1 c54 1 125 4 158
8 62 7 62 7 -9 34 -16 6 -54 29 -86 53 l-57 42 -19 -36z"/>
<path d="M3629 4521 c-43 -34 -31 -106 20 -116 12 -2 26 -7 31 -10 18 -11 10
2 -20 35 -29 31 -29 33 -14 61 8 17 25 34 37 39 21 8 21 9 -4 9 -15 1 -37 -8
-50 -18z"/>
<path d="M3741 4434 c-11 -14 -25 -23 -31 -19 -5 3 -10 2 -10 -4 0 -30 39 -8
64 37 12 21 -2 13 -23 -14z"/>
<path d="M6642 4530 c35 -27 40 -64 15 -96 -15 -20 -25 -24 -45 -19 -26 6 -54
34 -46 47 2 4 0 9 -6 13 -16 10 -12 -41 4 -54 46 -38 127 -25 146 24 13 35
-13 80 -53 95 -42 14 -43 13 -15 -10z"/>
<path d="M4694 4205 c-10 -8 -14 -15 -8 -15 6 0 17 7 24 15 16 19 9 19 -16 0z"/>
<path d="M5583 4213 c23 -26 57 -33 92 -19 25 10 24 11 -18 13 -25 1 -56 7
-69 14 -23 12 -23 12 -5 -8z"/>
<path d="M2532 4178 c-28 -40 -76 -105 -106 -144 -80 -103 -106 -157 -106
-218 0 -96 66 -193 158 -232 51 -22 150 -20 204 4 137 61 188 192 125 327 -27
58 -206 334 -218 335 -3 0 -29 -33 -57 -72z m99 -48 c18 -25 38 -50 44 -56 5
-7 19 -24 30 -40 11 -15 25 -32 31 -38 23 -24 62 -103 73 -148 9 -39 9 -55 -3
-83 -8 -19 -13 -35 -10 -35 6 0 -28 -53 -41 -62 -5 -4 -16 -6 -23 -3 -7 3 -10
0 -7 -5 11 -17 -44 -58 -88 -66 -86 -15 -172 1 -161 29 7 19 -31 51 -49 40
-12 -6 -10 -12 11 -27 l27 -20 -19 22 c-11 12 -14 22 -9 22 18 0 37 -30 27
-40 -19 -19 -104 72 -109 115 -1 6 -7 24 -14 40 -26 61 24 179 113 264 20 19
36 38 36 43 0 13 95 107 101 100 3 -4 21 -27 40 -52z"/>
<path d="M2411 3774 c0 -11 3 -14 6 -6 3 7 2 16 -1 19 -3 4 -6 -2 -5 -13z"/>
<path d="M2555 3670 c3 -5 12 -10 20 -10 8 0 17 5 20 10 4 6 -5 10 -20 10 -15
0 -24 -4 -20 -10z"/>
<path d="M7726 4245 c-3 -8 -44 -68 -91 -134 -135 -189 -164 -268 -135 -372
14 -49 77 -119 132 -147 115 -57 287 -2 344 110 28 55 32 80 5 28 -11 -19 -25
-35 -33 -35 -7 0 -12 -8 -10 -18 2 -9 -1 -16 -5 -15 -4 2 -18 -7 -31 -20 -13
-13 -30 -21 -38 -18 -8 3 -13 2 -10 -3 11 -17 -41 -28 -109 -25 -101 6 -106 7
-100 22 2 7 0 10 -5 7 -14 -9 -52 14 -44 27 4 6 3 8 -3 5 -15 -9 -65 56 -79
103 -10 33 -10 56 -3 89 11 50 57 141 71 141 5 0 7 4 4 9 -4 5 -3 11 2 13 4 1
27 31 51 65 24 35 48 60 52 57 5 -3 9 1 9 9 0 7 12 24 27 36 17 16 24 18 20 8
-4 -11 -1 -15 14 -12 10 2 19 0 19 -5 0 -5 9 -14 20 -20 14 -7 8 6 -21 50 -22
33 -41 60 -43 60 -2 0 -6 -7 -10 -15z"/>
<path d="M7850 4086 c0 -2 8 -10 18 -17 15 -13 16 -12 3 4 -13 16 -21 21 -21
13z"/>
<path d="M8002 3805 c0 -16 2 -22 5 -12 2 9 2 23 0 30 -3 6 -5 -1 -5 -18z"/>
<path d="M7570 3721 c0 -6 4 -13 10 -16 6 -3 7 1 4 9 -7 18 -14 21 -14 7z"/>
<path d="M7658 3693 c6 -2 9 -10 6 -15 -4 -7 -2 -8 5 -4 13 9 5 26 -12 25 -9
0 -8 -2 1 -6z"/>
<path d="M7610 3676 c0 -2 11 -11 25 -20 14 -9 25 -13 25 -8 0 5 -11 14 -25
20 -14 6 -25 10 -25 8z"/>
<path d="M7615 3640 c3 -5 8 -10 11 -10 2 0 4 5 4 10 0 6 -5 10 -11 10 -5 0
-7 -4 -4 -10z"/>
<path d="M5090 3630 c0 -5 10 -16 22 -24 22 -16 61 -13 86 7 20 16 14 29 -9
17 -12 -7 -32 -9 -47 -4 -45 12 -52 13 -52 4z"/>
<path d="M5100 3457 c-401 -307 -545 -473 -614 -707 -14 -47 -25 -78 -25 -70
-1 8 3 31 9 49 8 28 7 32 -3 22 -9 -9 -11 -53 -9 -164 5 -196 6 -206 15 -200
4 2 7 -1 7 -7 0 -6 13 -45 30 -88 36 -92 90 -167 185 -252 87 -78 119 -102
380 -282 l80 -55 50 38 c28 21 55 39 60 39 6 0 3 -5 -5 -11 -13 -9 -13 -10 0
-6 8 2 15 10 15 18 0 8 8 13 19 11 10 -2 15 1 12 6 -6 11 34 42 169 133 188
127 296 258 348 421 32 99 44 230 29 298 -8 31 -8 48 0 57 6 8 8 16 4 20 -3 3
-6 0 -7 -8 0 -8 -11 16 -23 53 -70 201 -248 413 -511 609 -38 28 -88 67 -111
85 -23 19 -43 34 -45 34 -2 0 -29 -19 -59 -43z m300 -401 c127 -136 196 -227
243 -321 49 -97 60 -146 60 -250 1 -204 -118 -390 -323 -509 -41 -24 -102 -64
-135 -88 -33 -24 -66 -47 -73 -52 -8 -5 -43 13 -95 47 -45 30 -120 80 -167
110 -98 63 -147 109 -200 187 -143 211 -133 430 32 673 59 87 147 187 286 325
l123 123 72 -66 c40 -36 119 -116 177 -179z"/>
<path d="M5111 2236 c-9 -10 -8 -15 3 -19 9 -4 18 -1 22 5 4 7 3 8 -4 4 -7 -4
-12 -3 -12 3 0 5 6 12 13 14 7 4 8 6 1 6 -6 1 -17 -5 -23 -13z"/>
<path d="M4922 2224 c-10 -11 -8 -15 13 -20 15 -4 36 -1 48 5 21 11 21 11 -5
6 -17 -3 -30 0 -35 9 -7 12 -10 12 -21 0z"/>
<path d="M5055 2220 c-3 -5 -1 -10 4 -10 6 0 11 5 11 10 0 6 -2 10 -4 10 -3 0
-8 -4 -11 -10z"/>
<path d="M5224 2221 c4 -5 1 -11 -6 -13 -7 -3 -5 -7 6 -11 10 -4 15 -3 11 3
-3 6 2 10 12 10 15 0 16 2 3 10 -19 12 -33 13 -26 1z"/>
<path d="M5390 2216 c0 -2 7 -7 16 -10 8 -3 12 -2 9 4 -6 10 -25 14 -25 6z"/>
<path d="M5100 2201 c0 -13 -38 -25 -77 -24 -27 0 -33 -4 -33 -20 0 -20 0 -20
14 -1 8 10 18 16 22 11 4 -4 1 -7 -7 -7 -11 0 -11 -2 1 -10 13 -8 13 -10 1
-10 -11 0 -9 -4 5 -15 23 -17 34 -19 34 -4 0 5 -4 8 -9 4 -5 -3 -12 -1 -16 5
-3 5 1 10 9 10 9 0 16 6 16 13 0 8 11 19 25 25 21 10 35 32 20 32 -3 0 -5 -4
-5 -9z"/>
<path d="M5260 2200 c-9 -6 -10 -10 -3 -10 6 0 15 5 18 10 8 12 4 12 -15 0z"/>
<path d="M5038 2193 c6 -2 18 -2 25 0 6 3 1 5 -13 5 -14 0 -19 -2 -12 -5z"/>
<path d="M5163 2180 c-3 -11 -10 -20 -15 -20 -5 0 -6 5 -3 10 3 6 -4 10 -17
10 -18 0 -20 -2 -8 -10 12 -8 10 -10 -10 -11 -18 -1 -20 -3 -7 -6 12 -3 16
-11 12 -22 -12 -38 25 -72 39 -36 3 8 1 15 -5 15 -6 0 -7 5 -4 10 3 6 11 10
16 10 6 0 7 -4 4 -10 -3 -5 -2 -10 4 -10 6 0 8 -8 5 -17 -4 -11 -2 -14 3 -8 4
6 24 10 44 10 26 -1 35 3 32 12 -3 7 2 20 11 28 9 9 16 14 16 10 0 -3 6 0 13
7 10 9 11 15 3 24 -8 9 -13 9 -19 -2 -4 -8 -17 -14 -28 -14 -13 0 -18 4 -13
13 4 7 3 9 -2 4 -5 -5 -10 -13 -10 -18 -1 -5 -2 -13 -3 -19 -1 -6 -10 -6 -23
-1 -13 4 -29 6 -37 3 -12 -4 -12 -3 0 11 8 8 16 11 17 6 2 -5 11 -9 20 -8 11
0 12 2 4 6 -6 2 -10 9 -6 14 3 5 -2 9 -11 9 -9 0 -13 5 -10 10 3 6 3 10 0 10
-4 0 -9 -9 -12 -20z m97 -34 c0 -2 -7 -6 -15 -10 -8 -3 -15 -1 -15 4 0 6 7 10
15 10 8 0 15 -2 15 -4z"/>
<path d="M4945 2181 c-3 -5 -2 -12 3 -15 5 -3 9 1 9 9 0 17 -3 19 -12 6z"/>
<path d="M4972 2170 c0 -14 2 -19 5 -12 2 6 2 18 0 25 -3 6 -5 1 -5 -13z"/>
<path d="M5073 2143 c1 -13 5 -23 9 -23 4 0 8 -5 8 -11 0 -5 -4 -8 -9 -5 -5 3
-13 0 -19 -7 -8 -9 -4 -12 17 -12 24 0 28 4 27 27 -1 16 -6 28 -13 28 -6 0
-13 6 -16 13 -3 6 -4 2 -4 -10z"/>
<path d="M5312 2151 c-11 -6 -10 -10 4 -15 9 -4 22 -2 28 4 8 8 6 9 -8 4 -13
-5 -17 -4 -12 4 8 14 6 15 -12 3z"/>
<path d="M5277 2122 c-14 -6 -12 -10 15 -19 28 -11 31 -11 15 1 -14 11 -15 15
-5 19 7 3 9 5 3 6 -5 0 -18 -4 -28 -7z"/>
<path d="M5396 2067 c-11 -7 -27 -19 -37 -29 -22 -21 -73 -45 -124 -58 l-40
-10 43 5 c24 3 63 15 85 27 23 12 45 21 50 20 4 -1 6 4 5 11 -2 6 6 12 17 12
11 1 19 7 17 14 -2 9 3 11 13 7 9 -3 13 -2 10 4 -8 13 -15 12 -39 -3z"/>
<path d="M4900 2060 c-9 -6 -10 -10 -3 -10 6 0 15 5 18 10 8 12 4 12 -15 0z"/>
<path d="M4952 2065 c4 -4 3 -17 -3 -28 -7 -13 -7 -17 -1 -13 6 3 13 2 17 -4
7 -11 65 -43 65 -36 0 2 -16 14 -36 25 -23 14 -34 27 -30 36 3 8 0 17 -7 21
-7 4 -9 4 -5 -1z"/>
<path d="M5454 3377 c11 -7 42 -32 69 -56 42 -39 51 -43 68 -33 27 17 29 15
23 -17 -5 -22 -1 -32 17 -45 22 -15 24 -14 46 5 14 14 28 19 40 14 17 -7 17
-8 -2 -15 -41 -16 -47 -35 -20 -60 21 -20 27 -21 41 -9 9 8 28 19 43 25 l25
10 -54 41 c-30 22 -75 52 -100 66 -45 26 -232 96 -196 74z"/>
<path d="M4780 3357 c-77 -26 -199 -95 -253 -141 -35 -31 -35 -33 -11 -28 16
3 36 -3 54 -16 l28 -21 23 25 c25 27 25 27 -24 55 -10 5 -15 14 -12 20 9 14
24 11 42 -11 24 -27 36 -25 70 10 15 17 32 30 38 30 6 0 22 11 37 25 15 14 44
36 64 50 45 31 29 31 -56 2z m-60 -66 c0 -5 -8 -11 -18 -13 -11 -3 -19 0 -19
8 0 8 9 14 19 14 10 0 18 -4 18 -9z"/>
<path d="M5826 3154 c3 -13 -6 -26 -31 -43 -40 -27 -43 -41 -17 -65 17 -15 22
-15 55 -1 20 8 43 15 52 15 22 0 19 -27 -5 -40 -11 -6 -20 -17 -20 -25 0 -12
5 -12 26 -3 20 10 27 9 34 -2 12 -20 -26 -60 -57 -60 -26 0 -26 0 -13 -35 9
-25 14 -27 48 -21 96 17 94 16 89 45 -8 37 -102 192 -137 226 -23 22 -28 24
-24 9z"/>
<path d="M4442 3122 c-43 -53 -112 -183 -112 -209 0 -18 9 -24 56 -34 52 -12
58 -11 70 6 21 29 17 39 -26 57 -28 12 -40 23 -40 37 0 12 5 21 10 21 16 0 74
-31 82 -44 4 -6 11 -7 15 -2 4 5 0 13 -10 20 -10 6 -28 19 -39 29 -12 9 -25
17 -30 17 -9 0 -11 34 -2 43 4 3 28 -5 54 -18 l48 -25 20 32 20 32 -21 11
c-49 26 -67 41 -62 52 8 22 -2 14 -33 -25z"/>
<path d="M5827 2983 c-10 -9 -9 -23 1 -23 5 0 9 7 9 15 0 17 -1 18 -10 8z"/>
<path d="M5932 2832 c-59 -23 -62 -25 -46 -41 13 -12 31 -15 71 -13 47 3 53 6
52 25 -1 52 -9 55 -77 29z"/>
<path d="M4306 2819 c-3 -17 -6 -58 -6 -90 l0 -58 35 15 c19 7 46 14 60 14 21
0 25 5 25 30 0 29 -1 30 -50 30 -39 0 -50 3 -50 16 0 11 5 14 16 10 24 -9 94
5 94 19 0 7 -21 19 -47 26 -27 7 -53 15 -59 17 -6 1 -14 -11 -18 -29z"/>
<path d="M5922 2753 c-27 -4 -33 -8 -30 -26 2 -12 10 -23 18 -24 70 -9 90 -15
90 -29 0 -13 -10 -15 -54 -12 -51 4 -54 3 -44 -15 5 -11 8 -34 6 -52 -2 -19 0
-31 4 -29 8 5 10 0 12 -53 0 -18 9 -40 19 -50 17 -17 18 -17 8 10 -15 40 -13
46 5 17 l15 -25 -4 27 c-2 15 -1 25 3 23 4 -3 15 37 24 88 10 50 19 100 21
110 9 45 -5 51 -93 40z m38 -198 c0 -7 -5 -17 -12 -21 -7 -5 -8 -3 -4 5 5 7 0
21 -11 33 -18 21 -18 21 5 9 12 -6 22 -18 22 -26z"/>
<path d="M4356 2662 l-49 -3 6 -48 c3 -26 13 -65 22 -87 14 -37 19 -40 46 -36
37 5 36 36 -1 39 -22 1 -22 1 -2 -4 29 -6 28 -18 -2 -19 -16 -1 -23 3 -22 13
3 18 32 36 46 28 5 -3 7 1 4 9 -4 10 -16 14 -37 11 -29 -4 -28 -3 6 7 39 12
48 24 20 30 -15 3 -15 4 1 21 29 29 16 42 -38 39z"/>
<path d="M4433 2615 c0 -14 3 -27 7 -30 4 -2 6 7 4 21 -3 35 -11 41 -11 9z"/>
<path d="M5879 2588 c0 -2 -2 -19 -4 -39 -5 -72 -17 -135 -36 -183 -10 -28
-17 -52 -14 -54 5 -5 45 73 52 102 6 28 13 176 7 176 -2 0 -4 -1 -5 -2z"/>
<path d="M5901 2534 c0 -11 3 -14 6 -6 3 7 2 16 -1 19 -3 4 -6 -2 -5 -13z"/>
<path d="M4432 2520 c0 -14 2 -19 5 -12 2 6 2 18 0 25 -3 6 -5 1 -5 -13z"/>
<path d="M4365 2470 c-3 -5 3 -30 14 -56 24 -53 118 -211 131 -219 16 -10 1
53 -29 120 -17 37 -31 74 -31 81 0 20 -17 26 -42 14 -21 -10 -21 -10 2 9 19
16 20 20 6 14 -13 -4 -17 -3 -12 5 7 11 -6 17 -27 13 -5 -1 -6 3 -2 9 3 6 10
8 14 6 4 -3 13 -1 21 5 11 6 8 9 -12 9 -15 0 -30 -4 -33 -10z m108 -167 c29
-69 27 -88 -2 -23 -10 22 -20 38 -22 36 -2 -3 -12 9 -21 25 -9 16 -13 29 -7
29 6 0 7 5 4 10 -4 6 -11 7 -17 4 -7 -5 -8 -2 -3 5 11 20 37 -13 68 -86z"/>
<path d="M5873 2379 c-29 -61 -46 -88 -54 -83 -7 4 -9 3 -5 -4 3 -6 -3 -28
-15 -48 -17 -31 -18 -36 -3 -24 9 8 20 13 23 11 7 -6 50 54 97 136 31 54 33
64 22 82 -7 12 -15 21 -18 21 -3 0 -24 -41 -47 -91z m52 27 c-20 -47 -57 -108
-62 -102 -3 2 0 13 6 24 6 11 7 22 4 26 -3 3 -1 6 5 6 10 0 28 38 24 53 -1 4
3 7 8 7 6 0 10 7 10 16 0 8 4 13 9 9 6 -3 4 -19 -4 -39z"/>
<path d="M5877 2213 c-4 -3 -7 -11 -7 -17 0 -6 5 -5 12 2 6 6 9 14 7 17 -3 3
-9 2 -12 -2z"/>
<path d="M5756 2184 c-9 -8 -16 -20 -16 -26 0 -6 1 -9 3 -7 1 2 11 14 21 27
22 25 16 30 -8 6z"/>
<path d="M3330 3266 c0 -8 4 -17 9 -20 5 -4 7 3 4 14 -6 23 -13 26 -13 6z"/>
<path d="M3350 3223 c0 -7 17 -24 37 -38 38 -26 83 -33 83 -14 0 5 -4 8 -10 4
-13 -8 -80 22 -96 43 -8 10 -13 12 -14 5z"/>
<path d="M6808 3163 c7 -3 16 -2 19 1 4 3 -2 6 -13 5 -11 0 -14 -3 -6 -6z"/>
<path d="M3311 2769 c-78 -23 -167 -105 -203 -187 -50 -112 -25 -263 58 -352
49 -53 125 -94 192 -105 71 -11 174 12 240 54 75 49 98 79 123 164 52 169 -19
333 -176 408 -50 24 -72 29 -130 28 -38 0 -85 -5 -104 -10z m196 -75 c23 -9
41 -20 38 -23 -5 -9 31 -41 46 -41 5 0 7 6 3 13 -4 6 8 -1 25 -18 90 -83 110
-187 57 -297 -86 -180 -325 -226 -464 -89 -59 57 -84 109 -90 182 -6 82 30
178 68 179 8 0 26 14 39 31 26 32 88 69 118 69 12 0 5 -11 -24 -37 -23 -21
-49 -54 -58 -73 -9 -20 -11 -29 -3 -20 13 16 48 16 48 0 0 -6 9 -6 23 -1 12 5
33 7 47 6 14 -1 38 -3 53 -4 20 -1 26 -5 21 -13 -4 -7 2 -4 14 6 17 14 22 16
22 5 0 -12 2 -12 9 0 6 10 13 11 29 2 11 -6 24 -11 27 -11 14 0 -42 84 -77
116 -42 38 -35 42 29 18z"/>
<path d="M6820 2771 c-87 -27 -167 -97 -210 -186 -20 -40 -25 -66 -25 -125 0
-129 38 -208 129 -272 139 -97 317 -84 438 33 92 90 115 248 54 372 -36 75
-121 152 -188 172 -54 16 -155 19 -198 6z m19 -108 c-28 -26 -57 -60 -65 -75
-14 -27 -14 -28 11 -18 14 5 25 6 25 2 0 -4 5 0 10 8 5 8 10 10 10 4 0 -7 7
-15 16 -18 10 -4 13 -2 8 6 -5 8 1 9 22 3 28 -7 135 -7 142 0 2 2 15 0 28 -5
41 -16 23 23 -44 94 -24 25 -41 46 -39 46 22 0 89 -39 117 -68 19 -21 46 -46
59 -57 l24 -20 -12 25 c-11 24 -11 24 3 6 23 -28 56 -122 56 -156 0 -113 -125
-257 -242 -278 -54 -11 -146 1 -190 24 -86 45 -158 164 -158 262 0 52 26 119
55 142 17 13 18 13 11 0 -5 -8 9 4 30 26 51 54 107 86 166 93 4 1 -16 -20 -43
-46z"/>
</g>
</svg>
