<?xml version="1.0" standalone="no"?>
<!DOCTYPE svg PUBLIC "-//W3C//DTD SVG 20010904//EN"
 "http://www.w3.org/TR/2001/REC-SVG-20010904/DTD/svg10.dtd">
<svg version="1.0" xmlns="http://www.w3.org/2000/svg"
 width="1024.000000pt" height="1024.000000pt" viewBox="0 0 1024.000000 1024.000000"
 preserveAspectRatio="xMidYMid meet">

<g transform="translate(0.000000,1024.000000) scale(0.100000,-0.100000)"
fill="#000000" stroke="none">
<path d="M4644 8230 c-106 -22 -216 -104 -253 -190 -15 -36 -26 -94 -36 -203
-22 -228 -71 -592 -82 -610 -3 -5 -116 -7 -252 -5 -239 3 -248 2 -309 -21 -77
-29 -154 -96 -187 -162 -25 -48 -48 -157 -60 -279 -7 -68 -53 -409 -61 -447
-4 -22 -6 -22 -262 -25 -297 -4 -332 -12 -414 -93 -74 -73 -77 -84 -134 -445
-59 -380 -84 -531 -104 -628 -25 -122 -57 -303 -140 -802 -33 -201 -69 -419
-80 -485 -11 -66 -32 -205 -46 -308 -29 -219 -25 -268 30 -340 37 -49 113
-103 164 -116 22 -6 354 -11 802 -13 l765 -3 58 28 c32 16 73 45 92 64 l34 35
36 -40 c19 -22 56 -50 80 -61 44 -21 56 -21 822 -23 l778 -2 68 34 c37 18 78
46 91 61 l24 28 41 -40 c23 -21 60 -48 83 -60 41 -21 47 -21 825 -20 773 2
785 2 841 23 75 28 162 113 185 182 23 68 21 116 -12 311 -16 94 -35 206 -41
250 -27 202 -135 837 -185 1095 -14 69 -38 206 -55 305 -16 99 -39 231 -50
293 -11 62 -31 197 -45 300 -14 103 -32 211 -40 241 -17 66 -72 147 -119 180
-79 53 -101 56 -386 56 l-264 0 -42 333 c-24 192 -49 352 -59 378 -24 63 -111
154 -182 189 l-58 30 -277 0 c-185 0 -278 3 -278 10 0 16 -58 556 -71 655 -16
131 -34 177 -95 238 -30 29 -79 65 -111 80 l-58 27 -465 2 c-256 1 -483 -2
-506 -7z m926 -214 c68 -35 90 -64 90 -120 0 -28 7 -83 15 -121 8 -39 19 -107
24 -150 5 -44 16 -141 25 -215 8 -74 23 -205 32 -290 17 -164 22 -209 48 -440
59 -512 57 -481 35 -517 -25 -41 -96 -102 -126 -109 -18 -5 -23 -13 -23 -40 0
-19 5 -34 11 -34 6 0 8 9 4 20 -4 12 -2 20 5 20 9 0 10 -15 5 -52 l-7 -53 21
19 c19 17 21 17 21 3 0 -10 -4 -17 -10 -17 -5 0 -10 -10 -10 -22 0 -19 -2 -20
-11 -8 -13 18 -9 -17 19 -170 11 -58 23 -134 27 -170 8 -67 16 -80 50 -80 14
0 16 3 7 8 -9 6 -1 19 28 46 22 20 40 41 40 46 0 6 7 10 15 10 8 0 15 5 15 11
0 5 5 7 10 4 13 -8 13 -48 -1 -77 -5 -13 -25 -33 -43 -46 -35 -24 -96 -30 -96
-9 0 8 -3 9 -8 1 -5 -8 -143 -11 -482 -9 -261 1 -569 -1 -685 -5 -206 -7 -211
-7 -250 16 -22 12 -51 33 -64 47 l-23 26 20 168 c12 92 30 256 42 363 37 348
81 709 116 975 20 143 42 316 50 385 36 317 64 513 75 526 18 22 96 66 132 74
18 4 210 7 427 5 357 -1 398 -3 430 -19z m838 -995 c9 -5 31 -15 48 -21 53
-19 94 -67 94 -109 0 -20 5 -54 10 -77 19 -82 135 -834 145 -939 3 -38 8 -87
10 -108 2 -21 15 -91 29 -155 26 -119 76 -457 76 -511 0 -36 -73 -121 -125
-145 -19 -9 -35 -24 -35 -32 0 -17 38 -239 45 -264 2 -8 9 -64 15 -125 5 -60
12 -128 15 -150 l6 -40 -668 1 c-368 0 -674 2 -681 2 -7 1 -38 25 -68 53 -43
41 -54 58 -54 83 0 53 38 315 64 441 13 66 27 147 30 180 4 33 9 79 12 103 l5
42 276 0 c315 0 322 1 404 85 l43 44 164 -4 164 -3 34 30 c46 40 47 85 3 122
-29 25 -35 26 -162 26 -73 0 -137 4 -143 8 -6 4 -14 32 -16 62 -5 53 -16 144
-78 649 -16 129 -27 238 -24 243 3 4 74 8 157 8 133 0 156 3 184 20 39 23 67
74 59 106 -12 48 -52 56 -250 53 l-181 -4 -11 110 c-6 61 -15 136 -19 168 l-8
57 207 0 c113 0 214 -4 224 -9z m-2181 -7 l29 -6 -21 -149 -20 -149 -150 0
c-126 0 -155 -3 -175 -17 -62 -43 -64 -75 -10 -128 l41 -40 134 -6 c74 -3 137
-8 140 -10 9 -10 -94 -887 -111 -947 -3 -11 -27 -13 -117 -7 -103 6 -115 4
-145 -15 -41 -25 -65 -76 -50 -105 6 -11 20 -30 31 -42 20 -22 28 -23 176 -23
l156 -1 33 -33 c19 -19 57 -47 85 -62 l52 -29 238 -3 239 -4 -6 -26 c-4 -23
-3 -23 9 6 13 27 20 32 49 32 30 0 34 -4 40 -31 3 -17 6 -58 6 -89 0 -53 -4
-63 -39 -108 -25 -31 -54 -55 -80 -65 -36 -15 -40 -20 -36 -44 3 -16 14 -91
26 -168 41 -276 49 -317 65 -351 14 -29 19 -33 26 -20 5 9 17 16 27 16 11 0
22 7 25 16 3 9 13 14 21 10 8 -3 17 0 21 6 5 7 2 8 -6 3 -8 -5 -11 -4 -7 2 8
13 47 24 47 14 0 -11 -61 -67 -90 -82 -20 -12 -151 -14 -724 -14 l-699 -1 -43
29 c-73 48 -77 59 -64 200 6 67 20 183 30 257 11 74 33 245 50 380 30 243 72
523 130 860 29 170 54 333 105 683 14 92 29 176 35 186 9 18 42 43 90 68 26
13 376 19 437 7z m-867 -931 c2 -2 -6 -65 -18 -141 -12 -75 -22 -148 -22 -160
l0 -24 -146 4 -146 3 -29 -33 c-45 -50 -38 -95 21 -135 19 -13 47 -17 130 -17
58 0 111 -4 118 -9 10 -6 7 -50 -17 -222 -17 -118 -37 -268 -45 -334 -34 -267
-58 -450 -62 -454 -1 -2 -52 -6 -113 -10 -104 -6 -111 -8 -140 -35 -42 -41
-42 -85 0 -120 29 -24 37 -26 139 -26 l108 0 30 -53 c35 -62 98 -121 156 -148
37 -17 69 -19 321 -19 l280 0 3 -59 c3 -52 -1 -64 -29 -105 -17 -26 -49 -59
-70 -73 -43 -28 -45 -37 -29 -124 5 -30 19 -136 30 -237 11 -101 25 -202 30
-225 5 -23 10 -48 10 -54 0 -10 -143 -13 -680 -13 -743 0 -705 -3 -764 59
l-29 30 12 73 c6 40 18 127 26 193 9 66 31 199 50 295 19 96 46 263 60 370 14
107 50 323 80 480 29 157 63 341 74 410 12 69 34 202 51 295 16 94 44 253 61
355 34 205 37 212 119 253 46 23 54 24 236 19 104 -2 191 -6 194 -9z m3957 -7
c61 -30 89 -63 97 -114 29 -194 101 -632 121 -732 13 -69 31 -172 40 -230 9
-58 22 -132 30 -165 8 -33 28 -139 44 -235 43 -250 68 -388 80 -440 6 -25 11
-67 11 -94 0 -62 -37 -112 -114 -152 -48 -25 -53 -30 -45 -51 4 -12 15 -64 24
-115 9 -51 20 -115 25 -143 42 -212 50 -259 50 -299 l0 -46 -694 0 -694 1 -39
28 c-54 39 -66 57 -61 88 3 16 20 118 37 228 18 110 42 238 52 285 11 47 23
124 26 172 l6 86 280 1 c258 1 283 3 326 22 54 23 132 96 167 157 l25 42 129
0 c119 0 131 2 155 23 30 26 46 73 34 105 -5 12 -23 31 -41 42 -28 17 -51 20
-160 20 l-127 0 -5 33 c-5 33 -32 265 -61 527 -21 184 -53 399 -65 427 -12 29
7 33 153 33 128 0 161 9 191 54 23 35 20 51 -13 88 l-29 33 -171 3 c-166 4
-171 4 -175 25 -2 12 -9 69 -16 127 -6 58 -14 124 -17 148 l-6 42 190 0 c180
0 192 -1 240 -24z m-1418 -256 c0 -10 -3 -8 -9 5 -12 27 -12 43 0 25 5 -8 9
-22 9 -30z m8 -102 c-3 -7 -5 -2 -5 12 0 14 2 19 5 13 2 -7 2 -19 0 -25z
m-727 -455 c0 -1 -9 -64 -20 -140 -20 -137 -29 -178 -35 -171 -3 3 -65 299
-65 309 0 2 27 4 60 4 33 0 60 -1 60 -2z m1517 -355 c-3 -7 -5 -2 -5 12 0 14
2 19 5 13 2 -7 2 -19 0 -25z m10 -100 c-3 -7 -5 -2 -5 12 0 14 2 19 5 13 2 -7
2 -19 0 -25z m150 0 c-3 -7 -5 -2 -5 12 0 14 2 19 5 13 2 -7 2 -19 0 -25z
m-1723 -536 c8 -23 90 -86 142 -109 33 -14 76 -17 295 -16 l257 0 6 -36 c13
-78 8 -95 -38 -140 -24 -23 -59 -53 -78 -64 l-35 -22 14 -85 c7 -47 22 -139
33 -205 11 -66 24 -156 30 -200 5 -44 12 -92 16 -108 l6 -27 -667 0 c-366 0
-669 -1 -673 -4 -4 -2 -25 2 -46 9 -46 16 -107 73 -108 101 0 20 31 226 57
364 41 226 55 315 55 350 0 73 -17 69 277 70 237 0 270 2 308 19 49 22 125 87
125 107 0 20 18 17 24 -4z m-935 -219 c-10 -60 -19 -117 -20 -128 0 -11 -7 23
-15 75 -7 52 -15 110 -18 128 -5 31 -4 32 33 32 l37 0 -17 -107z m1921 100 c0
-5 -7 -57 -16 -118 -18 -118 -34 -158 -34 -85 0 25 -7 72 -15 105 -23 98 -22
105 25 105 22 0 40 -3 40 -7z m1647 -295 c-3 -7 -5 -2 -5 12 0 14 2 19 5 13 2
-7 2 -19 0 -25z m10 -65 c-3 -10 -5 -2 -5 17 0 19 2 27 5 18 2 -10 2 -26 0
-35z m-3750 -383 l15 -62 -27 -27 c-15 -14 -25 -20 -21 -13 8 13 19 61 18 77
-1 6 -3 29 -5 53 -6 56 0 48 20 -28z m1908 -59 c3 -5 1 -12 -5 -16 -5 -3 -10
1 -10 9 0 18 6 21 15 7z m-25 -36 c0 -2 -10 -10 -22 -16 -21 -11 -22 -11 -9 4
13 16 31 23 31 12z"/>
<path d="M5571 7834 c0 -11 3 -14 6 -6 3 7 2 16 -1 19 -3 4 -6 -2 -5 -13z"/>
<path d="M5588 7655 c3 -71 6 -132 8 -134 7 -8 3 185 -5 224 -5 24 -6 -12 -3
-90z"/>
<path d="M4838 7723 c-41 -5 -98 -59 -98 -94 0 -30 28 -66 58 -76 15 -5 172
-7 350 -5 l323 4 35 33 c47 45 45 88 -5 122 -34 23 -37 23 -330 21 -163 -1
-313 -3 -333 -5z"/>
<path d="M5603 7410 c0 -41 3 -106 7 -145 7 -69 7 -69 7 -15 1 30 -2 96 -6
145 l-8 90 0 -75z"/>
<path d="M5623 7150 c0 -25 2 -35 4 -22 2 12 2 32 0 45 -2 12 -4 2 -4 -23z"/>
<path d="M5646 6865 c11 -180 22 -241 17 -92 -3 77 -9 151 -14 165 -6 17 -7
-10 -3 -73z"/>
<path d="M5680 6874 c0 -28 3 -35 18 -32 11 2 18 14 20 36 3 27 0 32 -17 32
-17 0 -21 -6 -21 -36z"/>
<path d="M4752 6627 c-18 -18 -32 -43 -32 -55 0 -31 25 -78 45 -86 9 -3 173
-6 364 -6 381 0 374 -1 407 62 21 40 11 74 -29 98 -30 19 -52 20 -378 20
l-345 0 -32 -33z"/>
<path d="M5671 6604 c0 -11 3 -14 6 -6 3 7 2 16 -1 19 -3 4 -6 -2 -5 -13z"/>
<path d="M6422 6945 c0 -16 2 -22 5 -12 2 9 2 23 0 30 -3 6 -5 -1 -5 -18z"/>
<path d="M6547 6065 c4 -38 10 -81 14 -95 10 -31 0 88 -12 133 -4 19 -5 5 -2
-38z"/>
<path d="M6592 5690 c0 -14 2 -19 5 -12 2 6 2 18 0 25 -3 6 -5 1 -5 -13z"/>
<path d="M4746 5152 l-19 -27 24 22 c12 12 21 24 18 27 -2 2 -13 -8 -23 -22z"/>
<path d="M7372 5335 c0 -16 2 -22 5 -12 2 9 2 23 0 30 -3 6 -5 -1 -5 -18z"/>
<path d="M7512 4495 c0 -16 2 -22 5 -12 2 9 2 23 0 30 -3 6 -5 -1 -5 -18z"/>
<path d="M7523 4425 c0 -22 2 -30 4 -17 2 12 2 30 0 40 -3 9 -5 -1 -4 -23z"/>
<path d="M7532 4350 c0 -19 2 -27 5 -17 2 9 2 25 0 35 -3 9 -5 1 -5 -18z"/>
</g>
</svg>
