<?xml version="1.0" standalone="no"?>
<!DOCTYPE svg PUBLIC "-//W3C//DTD SVG 20010904//EN"
 "http://www.w3.org/TR/2001/REC-SVG-20010904/DTD/svg10.dtd">
<svg version="1.0" xmlns="http://www.w3.org/2000/svg"
 width="292.000000pt" height="577.000000pt" viewBox="0 0 292.000000 577.000000"
 preserveAspectRatio="xMidYMid meet">

<g transform="translate(0.000000,577.000000) scale(0.100000,-0.100000)"
fill="#000000" stroke="none">
<path d="M882 5495 c-61 -27 -62 -33 -62 -546 l0 -461 -74 7 c-91 8 -142 -5
-181 -45 l-30 -31 -5 -215 -5 -214 -52 -45 c-149 -130 -306 -372 -377 -579
-53 -154 -67 -239 -73 -436 -6 -205 6 -309 53 -455 78 -242 185 -415 376 -609
l79 -80 -3 -190 c-2 -168 -1 -195 15 -224 31 -57 68 -72 180 -72 l97 0 0 -529
c0 -291 3 -542 6 -560 4 -17 17 -42 30 -56 20 -22 31 -25 88 -25 l65 0 3 158
3 157 28 3 c53 6 57 -6 57 -169 l0 -149 365 0 365 0 0 141 c0 77 5 149 10 160
15 28 56 24 76 -6 14 -22 16 -41 10 -120 -3 -52 -3 -112 0 -135 l7 -40 56 0
c51 0 61 3 87 31 l29 30 3 555 2 554 93 0 c115 0 152 16 185 80 20 41 22 57
22 233 l0 190 98 101 c112 118 184 219 253 357 53 105 113 274 124 352 4 27
13 51 19 53 13 5 18 414 4 414 -4 0 -10 17 -13 38 -51 305 -194 584 -406 793
l-77 76 -4 204 c-3 231 -10 254 -81 290 -32 17 -50 19 -127 13 l-90 -7 0 469
c0 502 0 498 -52 537 -22 16 -35 18 -80 13 l-53 -7 3 -90 c4 -97 -10 -139 -47
-139 -40 0 -51 31 -51 138 l0 102 -129 0 c-71 0 -143 -3 -160 -6 l-31 -6 0
-102 c0 -108 -7 -126 -46 -126 -36 0 -43 21 -46 131 l-3 104 -157 2 -158 2 0
-104 c0 -109 -9 -135 -49 -135 -32 0 -40 24 -43 131 l-3 104 -45 2 c-25 2 -60
-4 -78 -12z m202 -447 c22 -30 22 -131 0 -152 -18 -19 -45 -21 -62 -4 -16 16
-16 150 0 166 19 19 45 14 62 -10z m830 0 c22 -30 22 -131 0 -152 -18 -19 -45
-21 -62 -4 -17 17 -16 165 1 171 26 11 47 6 61 -15z m-411 -49 c5 -9 7 -28 3
-42 -12 -48 -86 -32 -86 18 0 12 6 27 12 33 17 17 58 11 71 -9z m477 -444 l0
-55 -510 0 -510 0 0 55 0 55 510 0 510 0 0 -55z m-321 -351 c256 -37 510 -166
710 -358 172 -167 280 -337 350 -553 52 -160 66 -243 65 -408 0 -343 -131
-652 -379 -900 -169 -169 -335 -271 -550 -340 -114 -36 -291 -65 -397 -65
-162 0 -393 53 -547 126 -191 90 -387 250 -519 424 -196 260 -286 617 -237
945 46 303 171 544 402 771 216 213 443 320 773 368 66 9 233 4 329 -10z m321
-2979 l0 -55 -510 0 -510 0 0 55 0 55 510 0 510 0 0 -55z m-896 -371 c17 -16
23 -138 8 -160 -12 -18 -42 -24 -63 -14 -16 9 -19 22 -19 88 0 47 5 83 12 90
17 17 44 15 62 -4z m825 2 c7 -8 13 -47 14 -86 2 -61 -1 -74 -17 -86 -24 -17
-28 -17 -50 -1 -26 19 -34 128 -12 162 18 28 47 33 65 11z m-411 -8 c16 -16
16 -110 0 -126 -7 -7 -21 -12 -33 -12 -33 0 -45 20 -45 75 0 55 12 75 45 75
12 0 26 -5 33 -12z m0 -380 c7 -7 12 -40 12 -80 0 -58 -3 -69 -21 -79 -16 -8
-28 -8 -45 0 -22 10 -24 17 -24 79 0 72 10 92 45 92 12 0 26 -5 33 -12z"/>
<path d="M1260 4075 c-295 -52 -566 -222 -756 -474 -273 -364 -315 -841 -108
-1241 83 -161 205 -301 366 -421 477 -354 1157 -287 1574 154 139 147 239 323
291 512 25 93 27 114 28 290 0 153 -4 203 -18 255 -69 247 -168 422 -336 588
-108 107 -208 177 -345 243 -159 76 -267 101 -461 105 -104 2 -187 -2 -235
-11z m410 -136 c237 -56 408 -154 568 -323 303 -320 379 -756 201 -1153 -123
-274 -411 -511 -720 -590 -90 -23 -125 -27 -254 -28 -111 0 -169 5 -223 18
-378 91 -678 359 -795 707 -121 363 -34 746 238 1048 122 136 320 256 500 306
122 33 122 33 270 35 100 1 150 -4 215 -20z"/>
<path d="M1422 3888 c-8 -8 -12 -49 -12 -118 0 -115 6 -130 50 -130 48 0 60
26 60 132 0 79 -3 98 -18 111 -22 20 -63 22 -80 5z"/>
<path d="M941 3754 c-12 -15 -21 -31 -21 -37 0 -13 68 -137 88 -159 31 -36
102 -11 102 37 0 9 -18 51 -41 91 -54 99 -89 117 -128 68z"/>
<path d="M1898 3763 c-8 -10 -32 -50 -53 -89 -43 -82 -43 -119 1 -130 42 -11
70 11 113 89 47 85 49 99 21 127 -25 25 -62 26 -82 3z"/>
<path d="M1844 3408 c-56 -57 -156 -161 -223 -232 l-121 -129 -60 -3 -59 -3
-143 127 c-78 70 -156 139 -172 155 -36 32 -68 35 -96 7 -42 -42 -30 -58 154
-232 168 -157 174 -164 175 -203 1 -51 37 -122 74 -149 21 -15 43 -21 83 -20
61 0 94 19 132 75 20 29 23 43 20 97 l-4 64 60 67 c34 37 130 141 214 230 159
170 175 197 136 235 -35 36 -64 21 -170 -86z"/>
<path d="M2280 3413 c-39 -14 -148 -94 -153 -111 -8 -33 15 -67 48 -70 43 -3
166 73 180 112 8 25 6 31 -18 52 -29 25 -32 26 -57 17z"/>
<path d="M586 3394 c-23 -22 -20 -60 6 -84 35 -32 125 -80 152 -80 35 0 58 27
54 63 -3 26 -14 37 -73 74 -74 45 -114 53 -139 27z"/>
<path d="M456 2928 c-21 -30 -20 -54 4 -78 17 -17 33 -20 105 -20 93 0 125 16
125 63 0 45 -28 57 -128 57 -83 0 -92 -2 -106 -22z"/>
<path d="M2252 2938 c-7 -7 -12 -27 -12 -44 0 -50 28 -64 125 -64 72 0 84 3
103 23 26 28 27 45 6 75 -14 20 -23 22 -113 22 -62 0 -101 -4 -109 -12z"/>
<path d="M667 2514 c-106 -62 -124 -107 -56 -141 21 -11 32 -8 89 24 36 20 73
43 83 51 25 22 22 77 -5 96 -12 9 -25 16 -28 16 -3 0 -40 -20 -83 -46z"/>
<path d="M2152 2547 c-27 -12 -38 -50 -25 -80 6 -12 44 -42 86 -65 83 -48 106
-49 134 -6 23 36 6 61 -75 110 -83 51 -92 54 -120 41z"/>
<path d="M1023 2272 c-18 -11 -103 -161 -103 -181 0 -44 72 -68 102 -33 25 28
88 147 88 165 0 37 -56 69 -87 49z"/>
<path d="M1829 2259 c-14 -14 -19 -28 -15 -42 11 -44 78 -158 102 -174 24 -15
27 -15 52 4 39 29 38 55 -3 131 -55 102 -93 124 -136 81z"/>
<path d="M1429 2157 c-18 -13 -33 -173 -20 -217 10 -35 52 -48 85 -26 25 16
26 20 26 121 0 96 -2 105 -22 119 -27 19 -47 20 -69 3z"/>
<path d="M421 5424 c-12 -15 -21 -34 -21 -44 0 -30 39 -70 69 -70 60 0 93 79
49 120 -31 28 -72 26 -97 -6z"/>
<path d="M2422 5430 c-26 -24 -29 -66 -6 -98 32 -47 124 -12 124 47 0 29 -43
71 -73 71 -13 0 -33 -9 -45 -20z"/>
<path d="M0 5141 c0 -116 2 -142 13 -132 16 17 17 228 0 256 -10 16 -12 -6
-13 -124z"/>
<path d="M2913 5180 c0 -41 2 -58 4 -37 2 20 2 54 0 75 -2 20 -4 3 -4 -38z"/>
<path d="M376 4954 c-64 -64 25 -166 92 -104 30 28 30 83 0 104 -29 20 -72 20
-92 0z"/>
<path d="M2535 4945 c-30 -30 -31 -54 -4 -89 40 -51 119 -23 121 43 2 65 -70
93 -117 46z"/>
<path d="M0 4490 c1 -61 3 -71 12 -55 15 25 15 102 0 117 -9 9 -12 -6 -12 -62z"/>
<path d="M282 920 c-12 -5 -27 -21 -32 -36 -19 -50 11 -94 64 -94 65 0 91 79
40 119 -29 23 -38 24 -72 11z"/>
<path d="M2580 918 c-31 -11 -40 -25 -40 -64 0 -65 82 -87 123 -32 17 23 18
31 8 57 -15 35 -55 52 -91 39z"/>
<path d="M2913 750 c0 -41 2 -58 4 -37 2 20 2 54 0 75 -2 20 -4 3 -4 -38z"/>
<path d="M450 623 c-74 -27 -62 -133 14 -133 75 0 97 98 29 129 -13 6 -25 11
-26 10 -1 0 -9 -3 -17 -6z"/>
<path d="M2426 598 c-53 -75 47 -153 103 -82 25 32 26 52 5 82 -11 16 -25 22
-54 22 -29 0 -43 -6 -54 -22z"/>
<path d="M166 228 c-21 -30 -20 -50 5 -82 23 -29 54 -33 87 -10 28 19 30 74 4
97 -27 25 -78 22 -96 -5z"/>
<path d="M428 233 c-30 -34 -31 -61 -4 -88 14 -14 34 -25 46 -25 27 0 70 43
70 70 0 50 -79 80 -112 43z"/>
<path d="M2405 236 c-40 -29 -10 -116 40 -116 57 0 89 74 49 114 -19 20 -64
21 -89 2z"/>
<path d="M2647 232 c-58 -64 33 -151 91 -89 43 46 17 107 -45 107 -16 0 -37
-8 -46 -18z"/>
</g>
</svg>
