<?xml version="1.0" standalone="no"?>
<!DOCTYPE svg PUBLIC "-//W3C//DTD SVG 20010904//EN"
 "http://www.w3.org/TR/2001/REC-SVG-20010904/DTD/svg10.dtd">
<svg version="1.0" xmlns="http://www.w3.org/2000/svg"
 width="1024.000000pt" height="1024.000000pt" viewBox="0 0 1024.000000 1024.000000"
 preserveAspectRatio="xMidYMid meet">

<g transform="translate(0.000000,1024.000000) scale(0.100000,-0.100000)"
fill="#000000" stroke="none">
<path d="M0 5120 l0 -5120 5120 0 5120 0 0 5120 0 5120 -5120 0 -5120 0 0
-5120z m5230 3698 c5 -13 17 -63 25 -113 50 -278 229 -517 468 -624 34 -15 74
-31 88 -34 41 -10 71 -39 63 -60 -4 -11 -13 -16 -21 -13 -8 3 -21 -1 -29 -9
-9 -8 -25 -15 -37 -14 -21 0 -21 1 -2 9 36 16 -97 11 -160 -6 -82 -21 -137
-55 -223 -138 -81 -78 -129 -154 -162 -258 -12 -38 -25 -68 -30 -68 -4 0 -6 8
-3 18 2 10 -2 24 -11 31 -12 10 -14 9 -9 -11 4 -18 3 -20 -6 -8 -6 9 -11 10
-11 3 0 -6 -3 -20 -7 -30 -6 -16 -5 -16 10 -4 17 13 18 12 21 -21 1 -7 6 -17
11 -21 6 -5 0 -7 -12 -4 -19 4 -23 1 -23 -18 0 -13 8 -29 18 -34 15 -9 14 -11
-8 -11 -14 -1 -20 -3 -15 -6 16 -6 10 -79 -6 -82 -10 -2 -21 23 -37 85 -54
209 -157 361 -322 473 -83 56 -117 72 -204 95 -128 33 -130 71 -7 117 109 40
174 76 246 135 151 124 242 278 295 498 18 72 34 133 37 138 10 17 54 6 63
-15z m-1264 -543 c7 -19 14 -41 14 -49 0 -33 43 -128 77 -168 46 -55 91 -85
164 -110 44 -15 59 -24 57 -37 -3 -13 -17 -16 -83 -16 -90 0 -155 -25 -206
-78 -26 -27 -30 -34 -29 -52 1 -3 -6 -13 -15 -21 -19 -20 -19 -35 0 -28 8 4
15 1 15 -6 0 -6 -4 -8 -10 -5 -5 3 -15 -5 -21 -19 -9 -20 -9 -29 1 -41 11 -13
10 -14 -3 -10 -21 9 -31 -26 -16 -59 7 -14 16 -26 21 -26 13 0 9 -17 -6 -23
-11 -4 -19 13 -32 66 -23 96 -54 155 -104 201 -45 41 -132 86 -166 86 -11 0
-29 6 -40 14 -28 21 -9 46 52 66 137 47 199 107 233 227 31 110 38 123 61 123
14 0 26 -11 36 -35z m2522 23 c5 -7 15 -39 22 -70 28 -138 113 -236 248 -283
78 -28 67 -47 -28 -49 -174 -4 -279 -111 -289 -293 -2 -30 -17 -8 -35 48 -25
81 -95 158 -181 199 -35 16 -74 30 -88 30 -28 0 -52 23 -44 44 3 8 30 22 59
31 73 24 121 50 163 87 39 34 88 122 99 178 16 82 45 113 74 78z m-3241 -478
c75 -45 84 -148 19 -207 -64 -59 -157 -39 -196 42 -24 49 -25 65 -6 110 29 68
118 95 183 55z m4021 0 c108 -66 61 -240 -64 -240 -56 0 -100 28 -120 76 -28
67 -12 122 45 161 42 29 95 30 139 3z m-3338 -220 c0 -5 8 -6 18 -3 15 6 16 5
2 -13 -8 -10 -15 -20 -16 -22 0 -1 -6 9 -12 23 -7 15 -8 25 -2 25 6 0 10 -4
10 -10z m1923 -92 c73 -38 58 -133 -24 -153 -19 -5 -34 0 -57 20 -75 63 -4
179 81 133z m-1338 -70 c54 -48 49 -131 -11 -168 -108 -68 -220 75 -129 166
33 33 103 34 140 2z m705 -28 c12 -8 10 -9 -7 -7 -12 2 -26 6 -29 10 -11 11
19 8 36 -3z m20 -40 c0 -5 -2 -10 -4 -10 -3 0 -8 5 -11 10 -3 6 -1 10 4 10 6
0 11 -4 11 -10z m-46 -35 c-4 -8 -8 -15 -10 -15 -2 0 -4 7 -4 15 0 8 4 15 10
15 5 0 7 -7 4 -15z m-1880 -37 c7 -13 17 -45 21 -73 10 -72 61 -169 112 -215
24 -21 76 -51 116 -67 45 -19 73 -36 75 -47 2 -10 -2 -16 -10 -15 -7 2 -24 -2
-38 -9 -24 -13 -24 -13 -5 3 19 16 17 17 -45 13 -154 -9 -261 -112 -257 -249
2 -45 -1 -55 -15 -56 -11 -1 -19 9 -23 30 -12 55 -57 127 -104 166 -57 47 -81
60 -151 81 -47 14 -55 20 -55 40 0 20 10 28 65 50 92 36 123 54 158 95 44 50
59 82 82 176 23 99 45 122 74 77z m3851 -73 c44 -164 85 -218 213 -277 63 -29
83 -43 80 -56 -2 -9 -12 -18 -23 -19 -20 -3 -20 -3 0 6 15 7 4 10 -43 10 -73
1 -169 -33 -215 -77 -38 -35 -73 -106 -81 -160 -9 -70 -21 -80 -35 -30 -33
112 -114 196 -222 229 -117 35 -115 57 8 103 81 31 154 89 184 147 10 21 26
69 35 106 23 106 23 105 51 101 24 -3 28 -11 48 -83z m-1972 49 c-3 -8 -12
-13 -20 -10 -8 3 -11 1 -8 -4 3 -6 14 -10 23 -10 14 0 15 -2 2 -10 -9 -5 -19
-5 -27 2 -18 15 -16 36 5 41 30 8 32 7 25 -9z m-960 -224 c41 -45 35 -121 -12
-157 -9 -7 -38 -13 -64 -13 -41 0 -53 5 -78 29 -23 23 -29 38 -29 71 0 35 6
48 35 77 32 32 39 35 78 30 30 -4 50 -15 70 -37z m2043 21 c84 -51 62 -174
-36 -196 -41 -9 -95 19 -114 60 -20 41 -20 58 -1 95 29 57 96 75 151 41z
m-448 -211 c3 -7 -16 -53 -41 -104 -58 -116 -138 -287 -163 -348 -10 -27 -22
-48 -26 -48 -4 0 -18 16 -30 35 l-23 35 -374 -3 -374 -2 -23 -66 c-12 -37 -25
-81 -29 -98 l-7 -31 349 0 348 0 48 -59 c26 -32 47 -61 47 -65 0 -3 -216 -6
-481 -6 -454 0 -481 1 -474 18 4 9 29 80 57 157 52 149 112 301 189 480 l47
110 49 6 c26 4 241 5 477 4 338 -1 431 -5 434 -15z m-3010 -216 c60 -41 65
-123 11 -168 -55 -46 -131 -30 -164 34 -24 46 -19 78 19 116 27 27 42 34 73
34 21 0 49 -7 61 -16z m4889 -30 c11 -7 26 -29 33 -48 30 -92 -81 -156 -151
-87 -48 49 -37 120 24 146 34 15 58 12 94 -11z m-1319 -81 c48 -43 119 -105
157 -137 39 -33 74 -63 79 -67 5 -4 -21 -48 -57 -96 -74 -97 -81 -125 -47
-180 21 -34 49 -47 96 -41 23 2 42 21 96 93 37 49 70 91 75 92 4 2 35 -21 69
-49 33 -29 95 -82 137 -118 43 -35 77 -68 77 -73 0 -4 -17 -15 -37 -23 -58
-23 -151 -69 -223 -110 -36 -20 -112 -61 -170 -91 -58 -31 -117 -64 -131 -74
l-27 -19 -118 128 c-65 70 -166 176 -223 235 l-105 108 62 122 c167 326 193
377 197 377 3 0 45 -35 93 -77z m-2202 -9 c32 -42 92 -117 132 -167 40 -50 72
-100 72 -112 0 -24 -23 -47 -90 -90 -90 -57 -356 -323 -410 -410 -19 -30 -40
-55 -45 -55 -6 0 -58 48 -115 106 l-105 106 -127 -4 -127 -5 -37 45 -37 45 24
19 c21 16 140 106 705 530 49 36 92 67 95 67 3 1 32 -33 65 -75z m-906 36 c0
-5 8 -11 18 -11 16 -1 16 -2 0 -6 -21 -5 -23 -14 -6 -31 9 -9 8 -12 -4 -12 -9
0 -18 10 -22 23 -8 32 -7 47 4 47 6 0 10 -4 10 -10z m3828 -8 c-15 -3 -16 -7
-6 -25 10 -20 10 -21 -5 -8 -10 7 -17 19 -17 26 0 16 21 25 35 16 6 -3 2 -7
-7 -9z m-4248 -592 c11 -21 43 -59 72 -84 l53 -47 -56 -48 c-30 -27 -63 -68
-74 -90 -10 -23 -22 -41 -26 -41 -5 0 -18 19 -29 43 -25 51 -45 75 -87 105
-18 13 -33 29 -33 35 1 7 18 24 40 39 22 15 49 47 61 70 40 80 47 81 79 18z
m4735 -1 c11 -22 41 -61 69 -85 l50 -44 -56 -50 c-33 -29 -62 -66 -72 -90 -9
-22 -20 -40 -26 -40 -5 0 -19 20 -31 45 -20 43 -88 115 -109 115 -24 0 -5 38
33 65 23 17 53 52 67 78 14 26 32 47 41 47 9 0 24 -18 34 -41z m-1650 -101
c33 -40 92 -106 130 -148 179 -194 288 -324 274 -328 -8 -3 -50 -30 -94 -62
-44 -31 -152 -105 -240 -165 -192 -129 -211 -146 -233 -207 -9 -27 -20 -48
-23 -48 -7 0 -312 364 -316 377 -2 5 30 31 70 60 331 239 409 298 414 311 8
19 -21 73 -57 107 l-27 26 -188 -126 c-104 -70 -193 -129 -199 -131 -6 -2 -24
12 -40 32 l-29 36 29 28 c33 32 443 309 459 310 6 0 38 -32 70 -72z m-715 -18
c0 -6 -26 -35 -57 -65 l-58 -54 -296 -1 -297 0 -6 -22 c-3 -13 -6 -53 -6 -89
l0 -66 43 -7 c23 -4 155 -4 293 0 138 4 262 4 276 1 16 -4 44 -31 72 -69 l47
-63 -253 -3 -252 -2 -81 -78 c-44 -42 -113 -108 -153 -145 l-73 -69 -82 5
c-61 4 -83 9 -85 20 -3 15 24 148 105 510 l47 207 408 0 c277 0 408 -3 408
-10z m-1588 -281 c67 -72 123 -136 123 -142 0 -6 -88 -80 -195 -164 -107 -84
-218 -171 -246 -193 -28 -22 -61 -40 -73 -40 -12 0 -79 13 -149 30 -70 16
-137 32 -150 35 -22 5 -23 8 -20 112 l3 107 129 93 c71 51 133 93 138 93 4 0
8 -42 7 -94 -2 -74 2 -99 16 -124 20 -32 52 -52 88 -52 32 0 86 36 97 66 6 14
10 106 10 204 0 178 0 180 23 184 45 10 62 14 69 15 3 0 62 -58 130 -130z
m3488 -104 c107 -36 198 -69 202 -73 5 -5 -3 -42 -18 -83 -14 -41 -38 -112
-54 -159 -25 -74 -50 -115 -63 -100 -2 3 -48 64 -101 135 -54 72 -108 144
-122 162 -17 22 -36 34 -62 39 -20 3 -61 11 -90 18 l-53 11 55 67 c52 63 57
66 83 58 16 -5 116 -39 223 -75z m-3074 -220 c-6 -39 -14 -46 -174 -168 -180
-136 -180 -136 -277 -119 l-40 8 150 119 c83 66 193 152 245 192 l95 73 3 -32
c2 -18 1 -51 -2 -73z m2677 -41 c75 -10 84 -13 102 -41 10 -16 12 -23 6 -17
-10 9 -46 -7 -147 -64 -74 -42 -153 -93 -177 -113 -47 -42 -60 -45 -202 -55
l-100 -7 116 84 c298 214 324 231 347 223 8 -2 32 -7 55 -10z m-1826 -84 c22
-30 66 -93 96 -139 l56 -85 -57 -55 c-134 -129 -302 -281 -311 -281 -9 0 -54
50 -197 217 l-44 52 157 138 c87 76 178 157 203 180 25 23 47 39 51 35 3 -4
23 -32 46 -62z m-2222 40 c4 -12 -1 -31 -14 -48 -57 -81 -25 -165 84 -220 111
-55 440 -127 860 -186 132 -19 529 -56 601 -56 52 0 52 -1 111 -67 32 -38 79
-93 103 -123 24 -30 64 -77 89 -103 44 -46 45 -47 16 -37 -45 15 -135 19 -135
6 0 -7 -3 -6 -8 2 -6 8 -75 17 -223 27 -225 15 -274 20 -589 61 -267 34 -262
33 -377 55 -57 11 -107 18 -112 15 -5 -4 -11 -2 -13 2 -1 4 -60 22 -130 38
-106 26 -125 28 -121 15 4 -12 2 -12 -8 2 -8 10 -50 30 -94 46 -136 48 -212
90 -260 144 -25 27 -45 45 -45 39 0 -5 7 -15 15 -22 8 -7 12 -17 8 -23 -3 -6
-1 -7 5 -3 7 4 12 1 12 -8 0 -9 5 -16 10 -16 6 0 5 -6 -2 -14 -36 -38 -75 125
-57 237 18 111 56 161 169 222 75 40 96 43 105 15z m5054 0 c111 -51 191 -139
191 -213 0 -47 -50 -112 -117 -153 -81 -48 -251 -107 -418 -144 -72 -16 -187
-48 -193 -54 -3 -3 6 -6 19 -6 14 0 34 -7 46 -15 14 -10 24 -12 28 -5 11 17
24 11 20 -10 -2 -11 0 -20 6 -20 5 0 9 7 9 16 0 13 3 14 14 5 11 -9 15 -9 19
1 3 7 4 3 4 -9 -1 -17 -11 -24 -47 -34 -25 -6 -71 -20 -102 -30 -32 -10 -79
-21 -105 -24 -26 -4 -113 -17 -193 -30 -449 -73 -890 -103 -1563 -107 -303 -1
-414 -5 -430 -14 -57 -33 -113 -56 -146 -61 -20 -3 -44 -10 -55 -15 -13 -7
-16 -7 -12 1 4 6 1 11 -8 11 -8 0 -16 -5 -18 -12 -3 -8 -12 -5 -27 9 -13 12
-29 19 -36 17 -7 -3 -15 2 -19 11 -4 11 -13 15 -28 11 -13 -3 -17 -3 -10 0 6
3 10 9 7 14 -2 4 12 2 33 -6 53 -19 110 -17 161 7 29 12 96 71 190 163 80 79
164 152 186 163 38 19 66 21 525 26 611 7 838 24 1315 98 412 64 641 134 697
212 34 47 30 106 -9 150 -55 62 -21 86 66 47z m-799 -154 c0 -2 -7 -7 -16 -10
-8 -3 -12 -2 -9 4 6 10 25 14 25 6z m-4434 -349 c8 3 14 0 14 -6 0 -6 -7 -11
-16 -11 -9 0 -12 -5 -8 -12 4 -7 3 -8 -5 -4 -6 4 -9 11 -6 16 3 5 1 11 -5 15
-6 4 -7 12 -3 18 5 8 9 7 11 -5 2 -10 9 -15 18 -11z m34 -27 c0 -5 -9 -14 -20
-20 -16 -9 -18 -8 -14 5 3 8 10 12 15 9 5 -3 9 0 9 5 0 6 2 11 5 11 3 0 5 -4
5 -10z m48 -21 c-3 -8 -7 -3 -11 10 -4 17 -3 21 5 13 5 -5 8 -16 6 -23z m-31
-26 c-11 -12 -16 -12 -22 -2 -6 8 -4 10 4 5 8 -5 14 0 18 15 4 14 8 18 11 10
2 -7 -2 -20 -11 -28z m57 21 c3 -8 2 -12 -4 -9 -6 3 -10 10 -10 16 0 14 7 11
14 -7z m4670 -10 c3 -8 2 -12 -4 -9 -6 3 -10 10 -10 16 0 14 7 11 14 -7z
m-4698 -29 c-9 -9 -16 -13 -16 -8 0 12 22 34 28 28 2 -2 -3 -11 -12 -20z m101
-25 c-7 -17 -13 -26 -15 -21 -3 10 15 51 22 51 3 0 -1 -14 -7 -30z m4733 11
c0 -5 -9 -11 -20 -14 -11 -3 -20 -1 -20 3 0 5 8 11 18 13 9 3 18 5 20 6 1 0 2
-3 2 -8z m-4619 -54 c-10 -9 -11 -8 -5 6 3 10 9 15 12 12 3 -3 0 -11 -7 -18z
m284 -68 c-4 -5 -12 -9 -18 -8 -9 0 -8 2 1 6 6 2 9 10 6 15 -4 7 -2 8 5 4 6
-4 9 -12 6 -17z m1565 -190 c0 -5 -4 -9 -8 -9 -5 0 -9 7 -9 15 0 8 4 12 9 9 4
-3 8 -9 8 -15z m-1595 -119 c17 -5 84 -18 150 -30 133 -23 176 -46 194 -102
10 -32 51 -293 90 -578 31 -223 90 -621 111 -755 10 -66 31 -203 45 -305 15
-102 33 -219 41 -260 8 -41 14 -94 14 -117 0 -38 -3 -43 -26 -49 -60 -15 -216
43 -252 93 -24 33 -60 189 -207 878 -53 248 -118 551 -145 675 -91 416 -120
551 -120 560 0 9 55 4 105 -10z m825 -120 c121 -14 148 -24 171 -65 17 -30 34
-178 59 -530 6 -77 19 -243 30 -370 21 -248 63 -765 82 -1014 l12 -154 -29
-25 c-26 -22 -35 -24 -84 -18 -100 12 -153 62 -165 158 -4 29 -25 170 -46 313
-22 143 -60 409 -85 590 -25 182 -57 409 -71 505 -31 222 -84 611 -84 623 0
10 28 8 210 -13z m790 -69 c19 -9 40 -27 47 -41 7 -17 15 -208 22 -595 7 -313
16 -725 21 -915 6 -190 10 -394 10 -453 0 -105 -1 -109 -27 -134 -26 -23 -33
-25 -96 -20 -118 10 -144 41 -158 184 -13 145 -47 578 -64 823 -14 187 -59
766 -84 1065 -4 55 -6 103 -4 108 8 14 296 -4 333 -22z m713 -606 c-2 -341 -6
-816 -11 -1055 -9 -481 -8 -476 -74 -499 -40 -14 -170 -14 -201 0 -52 23 -54
39 -66 414 -25 773 -30 957 -37 1353 l-7 412 199 -2 199 -3 -2 -620z m1072
609 c50 -9 93 -19 97 -23 3 -3 0 -44 -8 -91 -8 -47 -17 -100 -19 -117 l-6 -33
-101 0 -100 0 5 28 c4 15 12 78 18 140 7 61 15 112 18 112 3 0 47 -7 96 -16z
m-693 -38 c46 -18 127 -48 181 -67 66 -23 97 -38 97 -49 0 -32 -70 -877 -76
-917 l-6 -43 -154 0 -154 0 5 228 c3 125 8 374 11 555 4 180 8 327 10 327 2 0
41 -15 86 -34z m1349 -273 c-17 -76 -51 -237 -75 -358 -25 -121 -61 -294 -81
-385 -20 -91 -49 -228 -65 -305 -17 -77 -32 -146 -35 -152 -3 -8 -24 -13 -55
-13 -41 0 -50 3 -50 18 0 9 18 123 41 252 99 574 120 695 145 855 14 94 30
175 36 180 14 15 163 63 166 54 2 -5 -10 -71 -27 -146z m-631 -180 c0 -15 -85
-545 -96 -600 -4 -21 -10 -23 -74 -23 -53 0 -70 3 -70 14 0 7 7 80 15 162 8
82 19 199 25 259 6 61 13 131 16 158 l6 47 89 0 c77 0 89 -2 89 -17z m-545
-905 c-11 -128 -1 -118 -113 -120 -53 -1 -114 -2 -134 -4 l-38 -2 0 92 c0 51
3 96 7 99 3 4 69 7 145 7 l139 0 -6 -72z m406 -23 l-15 -95 -63 0 c-60 0 -63
1 -59 23 3 12 8 51 11 87 4 35 9 68 11 72 3 4 33 8 67 8 l62 0 -14 -95z m-444
-357 c-4 -29 -12 -109 -18 -178 -6 -69 -17 -137 -25 -152 -19 -36 -62 -58
-114 -58 -33 0 -48 6 -72 31 l-31 30 6 136 c4 75 7 160 7 190 l0 53 126 0 127
0 -6 -52z m393 40 c-1 -48 -12 -58 -61 -58 l-49 0 0 35 0 35 55 0 c37 0 55 -4
55 -12z m530 4 c0 -9 -101 -54 -108 -47 -2 2 -2 16 2 30 6 23 11 25 56 25 28
0 50 -4 50 -8z m-623 -270 c9 -6 11 -24 6 -60 -4 -41 -10 -52 -24 -52 -25 0
-33 17 -30 64 3 56 16 69 48 48z m-2512 -287 c305 -78 762 -135 1250 -156 594
-25 1384 43 1813 156 113 30 130 31 78 3 -82 -43 -225 -82 -466 -129 -94 -18
-135 -25 -275 -45 -22 -3 -47 -10 -55 -15 -11 -8 -8 -9 13 -4 15 3 26 2 25 -2
-2 -5 0 -8 4 -8 4 0 14 -9 22 -20 10 -14 11 -22 3 -27 -8 -5 -4 -13 11 -27 22
-18 22 -20 4 -25 -10 -4 -102 -16 -203 -27 -237 -27 -909 -38 -1201 -20 -467
29 -973 113 -1126 187 -62 30 -102 82 -102 133 0 43 26 75 55 66 11 -3 79 -21
150 -40z m2433 -220 c-3 -3 -9 2 -12 12 -6 14 -5 15 5 6 7 -7 10 -15 7 -18z"/>
<path d="M4898 7853 c7 -3 16 -2 19 1 4 3 -2 6 -13 5 -11 0 -14 -3 -6 -6z"/>
<path d="M4936 7833 c-6 -14 -5 -15 5 -6 7 7 10 15 7 18 -3 3 -9 -2 -12 -12z"/>
<path d="M4975 7790 c-3 -6 1 -7 9 -4 18 7 21 14 7 14 -6 0 -13 -4 -16 -10z"/>
<path d="M4995 7770 c-3 -6 1 -7 9 -4 18 7 21 14 7 14 -6 0 -13 -4 -16 -10z"/>
<path d="M5022 7745 c-16 -19 -3 -19 22 0 14 11 16 15 5 15 -8 -1 -20 -7 -27
-15z"/>
<path d="M4960 7746 c0 -2 7 -7 16 -10 8 -3 12 -2 9 4 -6 10 -25 14 -25 6z"/>
<path d="M5039 7693 c-13 -16 -12 -17 4 -4 16 13 21 21 13 21 -2 0 -10 -8 -17
-17z"/>
<path d="M5075 7700 c-3 -5 -1 -10 4 -10 6 0 11 5 11 10 0 6 -2 10 -4 10 -3 0
-8 -4 -11 -10z"/>
<path d="M5084 7668 c-10 -15 1 -19 26 -10 l24 9 -22 5 c-12 4 -25 2 -28 -4z"/>
<path d="M5060 7626 c7 -7 13 -7 20 0 6 6 3 10 -10 10 -13 0 -16 -4 -10 -10z"/>
<path d="M5090 7600 c0 -5 5 -10 10 -10 6 0 10 5 10 10 0 6 -4 10 -10 10 -5 0
-10 -4 -10 -10z"/>
<path d="M5125 7600 c-12 -19 -13 -60 -2 -53 6 4 8 0 4 -10 -3 -9 1 -21 11
-28 14 -11 15 -11 4 1 -10 12 -8 16 10 27 l23 12 -22 1 c-17 0 -23 6 -22 23 1
16 2 18 6 5 2 -10 9 -18 14 -18 6 0 5 10 -2 23 -16 30 -16 30 -24 17z"/>
<path d="M5165 7470 c-16 -7 -17 -9 -3 -9 9 -1 20 4 23 9 7 11 7 11 -20 0z"/>
<path d="M4035 6381 c-16 -10 -91 -66 -165 -123 l-135 -104 2 -43 c1 -24 9
-52 19 -62 21 -24 68 -33 94 -19 28 15 246 184 288 223 40 39 43 82 7 121 -29
31 -67 34 -110 7z"/>
<path d="M5989 5480 c-106 -71 -194 -146 -197 -169 -8 -56 30 -111 78 -111 30
0 45 9 168 107 80 64 92 78 92 105 0 32 -55 98 -82 98 -8 0 -34 -13 -59 -30z"/>
<path d="M7225 4554 c9 -9 18 -14 21 -11 9 9 -6 27 -22 27 -13 0 -13 -2 1 -16z"/>
<path d="M6040 1420 c0 -5 5 -10 11 -10 5 0 7 5 4 10 -3 6 -8 10 -11 10 -2 0
-4 -4 -4 -10z"/>
</g>
</svg>
