<?xml version="1.0" standalone="no"?>
<!DOCTYPE svg PUBLIC "-//W3C//DTD SVG 20010904//EN"
 "http://www.w3.org/TR/2001/REC-SVG-20010904/DTD/svg10.dtd">
<svg version="1.0" xmlns="http://www.w3.org/2000/svg"
 width="351.000000pt" height="351.000000pt" viewBox="0 0 351.000000 351.000000"
 preserveAspectRatio="xMidYMid meet">

<g transform="translate(0.000000,351.000000) scale(0.100000,-0.100000)"
fill="#000000" stroke="none">
<path d="M2020 2793 c-150 -25 -288 -91 -376 -178 -104 -103 -144 -199 -144
-347 l0 -77 52 -16 c28 -8 55 -15 60 -15 4 0 8 45 8 100 0 109 9 140 59 213
39 57 164 143 255 175 64 23 86 26 221 26 132 1 159 -2 220 -22 132 -44 242
-131 297 -233 21 -41 23 -58 26 -222 3 -124 0 -188 -8 -208 -19 -44 -122 -134
-192 -166 -120 -56 -179 -68 -346 -68 -117 0 -151 -3 -147 -12 2 -7 7 -35 11
-62 6 -44 9 -50 36 -55 53 -11 173 -6 261 9 144 25 251 70 350 147 l37 30 0
-82 c0 -51 -5 -91 -14 -109 -39 -74 -178 -157 -316 -188 -49 -11 -124 -17
-212 -17 l-138 -1 0 -62 0 -63 63 -2 c249 -7 428 34 557 126 27 20 52 36 55
36 3 0 5 -35 5 -79 0 -96 -18 -127 -107 -188 -119 -79 -278 -118 -464 -111
l-107 3 -6 -59 c-3 -33 -4 -62 -1 -64 3 -3 65 -5 138 -5 216 0 392 46 503 130
l46 36 -3 -80 c-3 -66 -9 -86 -32 -121 -94 -143 -424 -218 -695 -160 l-53 11
-47 -47 c-55 -54 -54 -55 57 -82 114 -28 394 -26 506 4 171 46 294 132 348
243 l27 55 1 725 c0 768 1 748 -47 840 -28 57 -93 127 -160 175 -121 87 -260
125 -446 123 -62 -1 -124 -4 -138 -6z"/>
<path d="M2217 2596 c-70 -26 -111 -78 -132 -171 l-11 -50 -54 -3 c-63 -4 -80
-14 -80 -51 0 -39 17 -51 72 -51 29 0 48 -4 48 -11 0 -20 -58 -114 -100 -161
-44 -51 -51 -85 -20 -113 21 -19 37 -17 105 9 53 20 84 20 185 -5 47 -11 96
-17 110 -14 54 14 75 59 49 107 -9 17 -17 19 -49 14 -23 -3 -63 0 -97 9 -31 8
-75 15 -97 15 -37 0 -38 1 -23 18 9 10 28 43 42 75 26 56 27 57 69 57 58 0 78
17 74 60 -3 35 -3 35 -57 38 l-53 3 7 37 c4 20 11 45 16 54 13 25 56 33 95 19
78 -28 117 59 46 101 -42 25 -101 30 -145 14z"/>
<path d="M1150 2109 c-228 -40 -416 -174 -479 -344 -20 -53 -21 -74 -21 -433
l0 -377 28 -60 c84 -177 312 -285 602 -285 281 1 512 111 606 291 l29 54 0
380 c0 371 -1 381 -22 435 -60 148 -213 272 -398 323 -82 22 -263 31 -345 16z
m275 -124 c101 -21 207 -77 274 -144 89 -89 95 -108 99 -299 3 -164 3 -164
-23 -203 -58 -83 -193 -162 -332 -193 -90 -20 -220 -21 -315 -1 -150 31 -304
129 -348 220 -20 41 -22 57 -18 188 3 131 6 146 30 193 54 104 206 208 348
238 86 19 199 19 285 1z m-486 -911 c259 -115 610 -82 810 76 l51 40 0 -99 c0
-116 -6 -135 -56 -191 -72 -79 -163 -125 -306 -155 -247 -52 -552 33 -643 180
-27 44 -30 57 -34 157 l-3 110 63 -47 c35 -26 88 -58 118 -71z"/>
<path d="M1236 1920 c-35 -11 -73 -45 -93 -84 -11 -22 -14 -49 -11 -103 l5
-73 -32 0 c-38 0 -55 -16 -55 -51 0 -35 10 -41 70 -41 27 1 52 -3 55 -8 9 -15
-21 -72 -59 -114 -71 -77 -27 -143 70 -106 20 8 50 6 115 -6 73 -14 96 -15
129 -5 45 13 63 39 54 75 -10 39 -28 50 -65 37 -23 -8 -50 -8 -99 0 l-67 11
19 36 c10 20 18 47 18 59 0 21 5 23 50 23 43 0 52 3 59 23 5 13 4 31 -2 45 -9
19 -18 22 -72 22 l-62 0 -11 39 c-25 83 -8 125 48 119 29 -3 36 -8 44 -36 13
-45 45 -66 79 -53 74 28 24 158 -72 190 -39 13 -74 13 -115 1z"/>
</g>
</svg>
