<?xml version="1.0" standalone="no"?>
<!DOCTYPE svg PUBLIC "-//W3C//DTD SVG 20010904//EN"
 "http://www.w3.org/TR/2001/REC-SVG-20010904/DTD/svg10.dtd">
<svg version="1.0" xmlns="http://www.w3.org/2000/svg"
 width="1024.000000pt" height="1024.000000pt" viewBox="0 0 1024.000000 1024.000000"
 preserveAspectRatio="xMidYMid meet">

<g transform="translate(0.000000,1024.000000) scale(0.100000,-0.100000)"
fill="#000000" stroke="none">
<path d="M4983 8445 c-60 -18 -136 -70 -183 -122 -118 -135 -141 -328 -59
-489 l33 -64 -21 -22 c-33 -37 -52 -82 -65 -157 -30 -178 72 -371 258 -487
l74 -46 0 -149 0 -149 -22 14 c-13 7 -47 21 -75 31 -29 9 -53 20 -53 23 0 44
-34 213 -53 264 -58 159 -138 239 -345 341 -162 80 -205 88 -244 49 -22 -22
-23 -30 -22 -165 1 -127 3 -150 27 -220 42 -121 101 -204 193 -267 54 -38 152
-70 214 -70 27 0 50 -2 50 -4 0 -2 -15 -35 -32 -72 -30 -64 -33 -77 -33 -169
0 -91 3 -106 31 -165 61 -127 165 -213 294 -245 l70 -17 0 -251 c0 -147 -4
-247 -9 -241 -5 5 -64 77 -131 159 -67 83 -138 166 -157 186 -26 28 -39 54
-54 114 -62 249 -204 398 -575 605 -120 66 -160 74 -194 38 -18 -20 -20 -35
-20 -147 1 -307 71 -517 225 -672 79 -80 189 -135 301 -151 80 -11 116 -7 220
27 24 7 77 -52 277 -311 l117 -152 0 -253 0 -254 -28 35 c-15 19 -62 73 -104
120 l-78 85 0 110 c0 225 -73 376 -220 454 -73 39 -180 52 -256 31 -56 -16
-119 -74 -132 -122 -6 -21 -14 -32 -23 -29 -8 2 -51 6 -95 9 -72 4 -89 1 -136
-21 -80 -36 -103 -73 -103 -167 0 -64 4 -82 28 -123 16 -26 42 -63 58 -82 30
-34 30 -34 11 -55 -39 -42 -71 -190 -72 -330 l0 -66 -107 53 c-146 72 -356
153 -396 153 -20 0 -42 -9 -56 -22 -20 -18 -23 -28 -18 -67 15 -130 151 -444
265 -616 92 -139 229 -286 334 -359 22 -15 22 -16 4 -53 -9 -20 -22 -77 -28
-127 -5 -50 -11 -92 -12 -94 -2 -1 -45 15 -97 37 -138 57 -436 151 -481 151
-47 0 -78 -28 -78 -70 0 -69 147 -405 249 -569 119 -192 286 -386 411 -477
190 -139 389 -204 579 -190 130 10 155 18 331 104 6 2 138 -148 208 -236 l42
-54 0 -133 c0 -117 2 -135 20 -158 11 -14 33 -28 49 -32 34 -7 85 15 101 44 5
11 10 73 10 138 0 83 4 126 15 146 14 28 140 182 203 249 l35 37 36 -23 c223
-140 577 -99 857 100 228 162 481 512 613 849 75 192 80 217 47 250 -18 18
-36 25 -61 25 -44 0 -345 -97 -470 -152 -49 -22 -96 -42 -102 -45 -10 -4 -13
8 -13 43 0 67 -16 159 -34 194 l-14 29 72 59 c118 97 252 258 338 407 92 160
208 458 208 535 0 43 -33 80 -72 80 -31 0 -280 -101 -406 -164 -50 -25 -94
-46 -97 -46 -3 0 -5 41 -5 90 0 138 -40 300 -80 325 -7 4 3 23 25 50 79 98
108 212 70 284 -20 39 -68 78 -113 92 -39 11 -175 9 -203 -5 -13 -5 -18 0 -23
25 -9 46 -81 114 -136 129 -141 38 -306 -30 -399 -165 -59 -85 -75 -147 -76
-298 l-2 -138 -104 -116 -104 -117 -3 249 c-2 198 0 252 11 269 8 12 59 78
113 147 55 69 131 167 169 217 39 50 76 91 83 91 7 1 25 -7 39 -16 34 -22 184
-24 258 -4 84 23 183 81 245 143 150 149 218 354 223 668 2 113 0 130 -17 149
-25 27 -74 27 -127 0 -94 -48 -250 -146 -337 -211 -167 -126 -282 -292 -312
-448 -7 -36 -18 -69 -25 -75 -17 -15 -246 -294 -285 -348 -18 -26 -35 -47 -37
-47 -2 0 -3 116 -3 258 l0 258 73 21 c86 26 181 85 225 140 113 143 131 324
47 469 l-24 41 72 5 c132 9 275 98 343 214 62 106 85 200 85 360 1 121 -7 146
-52 164 -34 14 -65 6 -175 -46 -177 -85 -290 -177 -353 -288 -31 -54 -65 -167
-76 -251 -12 -100 -13 -102 -53 -110 -20 -4 -53 -15 -74 -26 l-39 -20 3 152 3
152 68 41 c86 53 139 102 188 179 49 76 79 171 79 251 0 78 -12 118 -54 189
l-35 58 19 32 c142 244 17 568 -245 637 -55 14 -191 11 -242 -5z m201 -166
c81 -22 156 -128 156 -219 0 -42 -56 -113 -113 -141 -94 -49 -232 -27 -296 46
-34 39 -43 44 -34 18 5 -15 4 -16 -8 -5 -23 22 -18 139 9 189 52 99 168 145
286 112z m-195 -648 c38 -20 101 -83 101 -101 0 -20 22 -9 53 27 44 50 114 93
153 93 93 0 101 -180 11 -229 -17 -9 -45 -28 -62 -43 -39 -33 -45 -34 -45 -9
0 32 -41 71 -82 78 -32 5 -41 1 -68 -25 -16 -17 -30 -38 -30 -46 0 -26 -15
-19 -83 39 -88 75 -112 151 -66 209 25 32 64 34 118 7z m-511 -389 c68 -33
135 -107 161 -178 22 -58 27 -94 13 -94 -5 0 -42 24 -83 54 -165 121 -165 121
-182 182 -9 31 -14 61 -11 66 7 11 35 3 102 -30z m1367 19 c6 -21 -25 -113
-46 -133 -8 -8 -47 -35 -88 -61 -41 -25 -94 -64 -118 -86 -53 -49 -56 -36 -16
71 32 87 97 158 183 200 66 33 77 34 85 9z m-453 -629 c16 -16 23 -49 19 -98
-2 -35 -66 -107 -128 -144 -32 -19 -61 -38 -64 -43 -7 -10 -19 17 -19 43 0 10
-12 32 -26 49 -48 58 -133 31 -154 -50 -10 -36 -12 -38 -33 -28 -41 22 -134
98 -151 123 -9 14 -23 26 -31 26 -36 0 -4 123 35 135 44 14 108 -5 167 -49 32
-23 64 -50 72 -59 19 -24 33 -21 67 14 89 95 196 130 246 81z m-1259 -198
c126 -65 265 -190 309 -280 37 -72 60 -149 56 -186 l-3 -33 -133 133 c-74 74
-135 132 -137 130 -1 -1 19 -48 45 -103 76 -159 75 -175 -7 -112 -98 76 -159
190 -188 356 -20 114 -10 130 58 95z m2018 -7 c15 -34 -21 -200 -63 -284 -48
-98 -179 -225 -205 -199 -7 6 2 25 47 101 16 28 29 56 30 63 0 7 9 31 19 52
11 22 16 40 13 39 -4 0 -34 -33 -67 -72 -60 -72 -203 -212 -210 -206 -8 9 16
120 40 186 40 109 140 211 301 308 68 41 81 43 95 12z m-1656 -966 c52 -23 88
-66 114 -137 23 -60 40 -204 25 -204 -24 0 -53 34 -75 87 -30 76 -59 124 -59
100 0 -10 4 -26 10 -36 5 -10 12 -33 15 -50 5 -31 4 -31 -17 -20 -89 47 -127
80 -137 117 -12 41 -15 145 -4 155 13 13 89 6 128 -12z m1353 7 c15 -15 16
-142 1 -169 -13 -24 -163 -123 -167 -110 -2 5 8 37 23 72 14 34 25 65 25 68 0
14 -37 -58 -54 -104 -22 -57 -29 -69 -65 -94 l-26 -19 6 97 c6 103 24 151 75
205 50 53 152 84 182 54z m-1661 -153 c66 -33 79 -50 86 -111 l6 -52 -57 5
c-88 7 -147 30 -182 69 -37 43 -41 90 -7 104 41 17 102 11 154 -15z m1998 13
c28 -13 32 -36 11 -76 -31 -60 -68 -79 -181 -91 l-60 -7 -2 50 c-3 55 10 77
62 104 60 31 128 39 170 20z m-1735 -302 l75 -50 -50 -12 c-82 -20 -153 -16
-259 14 l-100 27 55 9 c92 14 128 26 156 50 15 13 32 22 38 18 5 -3 44 -28 85
-56z m1477 24 c48 -23 77 -30 124 -30 37 0 58 -4 54 -10 -3 -5 -44 -22 -91
-36 -77 -24 -96 -26 -187 -21 -150 8 -152 10 -60 73 43 29 82 53 87 53 5 1 38
-12 73 -29z m-1148 -257 c36 -34 208 -230 227 -259 12 -17 14 -105 12 -507
l-3 -486 -76 92 c-41 51 -88 109 -104 130 l-28 38 18 57 c26 80 32 247 11 335
-40 169 -125 315 -260 445 -83 80 -85 82 -58 88 49 10 116 37 162 65 57 35 63
35 99 2z m747 -3 c49 -30 112 -54 175 -65 l36 -7 -89 -86 c-130 -125 -201
-237 -249 -392 -32 -102 -33 -294 -2 -386 l20 -60 -44 -55 c-24 -30 -71 -89
-104 -131 -34 -43 -63 -78 -65 -78 -2 0 -4 222 -4 494 l0 493 76 89 c80 94
192 214 199 214 2 0 25 -13 51 -30z m-1362 -71 c121 -62 221 -134 317 -229 70
-70 94 -101 127 -170 43 -90 62 -169 62 -258 l0 -53 -42 33 c-44 35 -109 68
-131 68 -21 0 -64 52 -83 100 -18 47 -107 193 -163 270 l-34 45 7 -34 c3 -19
28 -89 55 -155 l49 -121 -29 -23 c-43 -35 -41 -94 6 -153 l35 -44 -73 -3 c-94
-4 -241 22 -338 59 -77 30 -159 81 -159 99 0 6 55 10 143 10 153 0 176 6 210
52 l20 27 -36 113 c-45 142 -57 208 -57 320 0 106 -1 105 114 47z m2011 21
c15 -48 -21 -287 -60 -394 -31 -86 -31 -117 -1 -153 l24 -28 161 -3 c89 -2
161 -7 161 -11 0 -25 -152 -104 -252 -130 -133 -36 -328 -50 -328 -25 0 3 16
25 35 48 46 56 47 101 5 149 -19 22 -26 37 -19 44 11 11 101 274 95 280 -10
11 -135 -189 -174 -280 -26 -58 -78 -127 -97 -127 -28 0 -106 -41 -135 -70
-16 -16 -32 -30 -35 -30 -11 0 -4 126 11 183 43 167 153 305 344 434 59 40
232 133 247 133 6 0 14 -9 18 -20z m-2537 -187 c47 -20 105 -47 130 -61 54
-30 147 -121 155 -151 5 -21 3 -21 -119 -21 -123 0 -125 0 -150 28 -28 30
-114 201 -114 226 0 21 0 21 98 -21z m2995 -94 c-75 -143 -69 -139 -218 -139
l-126 0 12 23 c41 79 112 131 278 204 89 39 96 41 99 23 2 -11 -18 -61 -45
-111z m-1891 -871 c98 -110 164 -188 226 -271 l52 -68 0 -380 c0 -210 -4 -379
-8 -377 -5 2 -37 36 -72 77 l-63 74 -2 161 c-2 169 -9 210 -61 349 -56 148
-190 309 -334 403 l-75 49 60 6 c61 6 162 34 180 50 16 15 21 11 97 -73z m834
68 c44 -22 143 -46 191 -46 24 0 43 -3 43 -7 -1 -5 -27 -24 -58 -43 -83 -51
-239 -212 -288 -295 -94 -162 -118 -256 -118 -466 l-1 -167 -70 -83 -70 -84
-3 384 c-2 383 -2 384 20 422 17 27 317 397 324 399 0 0 14 -7 30 -14z m-1381
-141 c147 -71 227 -124 305 -204 113 -115 183 -260 197 -409 l6 -62 -57 29
c-31 17 -72 33 -91 37 -39 7 -53 24 -104 119 -47 90 -215 314 -227 303 -7 -8
20 -74 83 -211 l56 -118 -21 -22 c-47 -50 -37 -107 30 -168 23 -21 39 -41 36
-44 -10 -10 -222 -6 -278 6 -191 40 -350 103 -350 140 0 4 75 9 166 11 160 3
166 4 185 27 27 33 24 78 -11 154 -16 36 -39 101 -50 144 -24 93 -42 259 -34
303 8 37 9 37 159 -35z m1987 -48 c-4 -118 -25 -220 -69 -332 -19 -49 -37
-108 -40 -131 -4 -36 -1 -44 22 -63 26 -19 39 -21 186 -21 99 0 159 -4 159
-10 0 -5 -19 -24 -42 -40 -41 -30 -140 -64 -273 -95 -72 -17 -307 -26 -321
-13 -4 4 16 28 44 53 30 27 53 57 57 75 7 32 -15 84 -39 93 -13 5 -11 13 9 49
22 39 43 90 105 248 l22 55 -32 -30 c-50 -47 -125 -153 -188 -266 -62 -110
-72 -119 -173 -154 -25 -8 -55 -24 -67 -36 l-22 -20 0 36 c0 68 32 190 70 270
77 161 226 285 480 401 64 29 98 40 105 33 6 -6 9 -50 7 -102z m574 -71 c-41
-89 -74 -135 -109 -151 -17 -8 -63 -40 -102 -70 -38 -30 -90 -62 -114 -70 -59
-20 -141 -20 -141 -1 0 8 4 17 9 21 5 3 21 41 36 86 23 68 33 84 63 104 73 48
361 159 375 145 5 -4 -3 -33 -17 -64z m-3178 32 c52 -17 135 -52 185 -78 88
-43 93 -47 105 -90 11 -38 30 -88 59 -157 9 -21 -105 -16 -154 7 -24 10 -90
56 -148 102 -97 76 -109 89 -140 155 -19 40 -35 77 -35 83 0 17 31 12 128 -22z"/>
</g>
</svg>
